<?xml version="1.0" encoding="UTF-8"?><!DOCTYPE svg PUBLIC "-//W3C//DTD SVG 1.1//EN" "http://www.w3.org/Graphics/SVG/1.1/DTD/svg11.dtd"><svg xmlns="http://www.w3.org/2000/svg" xmlns:xlink="http://www.w3.org/1999/xlink" xmlns:sketch="http://www.bohemiancoding.com/sketch/ns" xmlns:x="&amp;ns_extend;" xmlns:i="&amp;ns_ai;" xmlns:graph="&amp;ns_graphs;" xmlns:a="http://ns.adobe.com/AdobeSVGViewerExtensions/3.0/"><symbol id="svg-ic_apology-communication" viewBox="0 0 58 57">
    <!-- Generator: Sketch 3.3.2 (12043) - http://www.bohemiancoding.com/sketch -->
    <title>communication-2</title>
    <desc>Created with Sketch.</desc>
    
    <g id="Page-1" stroke="none" stroke-width="1">
        <g id="communication-2">
            <path d="M1.514,56.647 L4.842,44.447 C1.672,40.256 0,35.272 0,30 C0,16.766 10.767,6 24,6 C37.233,6 48,16.766 48,30 C48,43.234 37.233,54 24,54 C20.505,54 17.141,53.267 13.995,51.821 L1.514,56.647 L1.514,56.647 Z M24,8 C11.869,8 2,17.869 2,30 C2,34.987 3.633,39.694 6.723,43.61 L7.035,44.006 L4.486,53.353 L14.077,49.645 L14.467,49.833 C17.453,51.271 20.661,52 24,52 C36.131,52 46,42.131 46,30 C46,17.869 36.131,8 24,8 L24,8 Z" id="Fill-5" sketch:type="MSShapeGroup"/>
            <path d="M27.566,25.122 C26.082,25.122 24.627,24.743 23.391,23.793 C20.384,21.482 16.364,21.449 14.042,23.716 C13.646,24.101 13.014,24.094 12.628,23.699 C12.242,23.303 12.249,22.67 12.644,22.284 C15.674,19.327 20.817,19.293 24.609,22.207 C27.451,24.391 32.48,22.222 34.271,20.315 C34.65,19.912 35.283,19.893 35.685,20.271 C36.087,20.649 36.107,21.282 35.729,21.685 C34.213,23.298 30.821,25.122 27.566,25.122" id="Fill-6" sketch:type="MSShapeGroup"/>
            <path d="M27.566,33.122 C26.082,33.122 24.627,32.743 23.391,31.793 C20.384,29.482 16.364,29.449 14.042,31.715 C13.646,32.101 13.014,32.094 12.628,31.698 C12.242,31.303 12.249,30.67 12.644,30.284 C15.674,27.327 20.817,27.293 24.609,30.207 C27.451,32.391 32.48,30.223 34.271,28.315 C34.65,27.912 35.283,27.893 35.685,28.271 C36.087,28.649 36.107,29.282 35.729,29.685 C34.213,31.298 30.821,33.122 27.566,33.122" id="Fill-7" sketch:type="MSShapeGroup"/>
            <path d="M27.566,41.122 C26.082,41.122 24.627,40.743 23.391,39.793 C20.384,37.482 16.364,37.449 14.042,39.716 C13.646,40.101 13.014,40.094 12.628,39.699 C12.242,39.303 12.249,38.67 12.644,38.284 C15.674,35.327 20.817,35.293 24.609,38.207 C27.451,40.391 32.48,38.222 34.271,36.315 C34.65,35.913 35.283,35.893 35.685,36.271 C36.087,36.649 36.107,37.282 35.729,37.685 C34.213,39.298 30.821,41.122 27.566,41.122" id="Fill-8" sketch:type="MSShapeGroup"/>
            <path d="M56.486,50.647 L44.005,45.821 C42.937,46.311 41.83,46.724 40.708,47.049 L37.049,48.111 L39.715,45.389 C43.768,41.251 46,35.786 46,30 C46,17.869 36.131,8 24,8 C21.92,8 19.848,8.296 17.841,8.88 L14.181,9.945 L16.847,7.22 C21.402,2.564 27.494,0 34,0 C47.233,0 58,10.766 58,24 C58,29.272 56.328,34.256 53.158,38.447 L56.486,50.647 L56.486,50.647 Z M43.923,43.645 L53.514,47.353 L50.965,38.006 L51.277,37.61 C54.367,33.694 56,28.987 56,24 C56,11.869 46.131,2 34,2 C29.295,2 24.827,3.463 21.1,6.176 C22.061,6.059 23.03,6 24,6 C37.233,6 48,16.766 48,30 C48,34.991 46.477,39.764 43.655,43.774 L43.923,43.645 L43.923,43.645 Z" id="Fill-9" sketch:type="MSShapeGroup"/>
        </g>
    </g>
</symbol><symbol id="svg-ic_arrow" viewBox="0 0 24 24" preserveAspectRatio="none">
    <path d="M8 5v14l11-7z"/>
    <path d="M0 0h24v24H0z" fill="none"/>
</symbol><symbol id="svg-ic_arrow_drop_up_white_48px" viewBox="0 0 24 24">
    <path d="M7 14l5-5 5 5z"/>
    <path d="M0 0h24v24H0z" fill="none"/>
</symbol><symbol id="svg-ic_arrow_forward_orange" viewBox="0 0 24 24">
    <path d="M0 0h24v24H0z" fill="none"/>
    <path d="M12 4l-1.41 1.41L16.17 11H4v2h12.17l-5.58 5.59L12 20l8-8z"/>
</symbol><symbol id="svg-ic_arrow_forward_white_48px" viewBox="0 0 24 24">
    <path d="M0 0h24v24H0z" fill="none"/>
    <path d="M12 4l-1.41 1.41L16.17 11H4v2h12.17l-5.58 5.59L12 20l8-8z"/>
</symbol><symbol id="svg-ic_arrow_right_blue" viewBox="0 0 24 24">
    <path d="M8.59 16.34l4.58-4.59-4.58-4.59L10 5.75l6 6-6 6z"/>
    <path d="M0-.25h24v24H0z" fill="none"/>
</symbol><symbol id="svg-ic_arrow_right_orange" viewBox="0 0 24 24">
    <path d="M8.59 16.34l4.58-4.59-4.58-4.59L10 5.75l6 6-6 6z"/>
    <path d="M0-.25h24v24H0z" fill="none"/>
</symbol><symbol id="svg-ic_audio-orange" viewBox="0 0 33 57">
<style type="text/css">
<![CDATA[
	.st0{fill-rule:evenodd;clip-rule:evenodd;}
]]>
</style>
<g>
	<g>
		<path d="M16.5,47C23.4,47,29,41.4,29,34.5v-22C29,5.6,23.4,0,16.5,0S4,5.6,4,12.5v22C4,41.4,9.6,47,16.5,47z M6,12.5
			C6,6.7,10.7,2,16.5,2C22.3,2,27,6.7,27,12.5v22C27,40.3,22.3,45,16.5,45C10.7,45,6,40.3,6,34.5V12.5z M32,24c-0.6,0-1,0.4-1,1v9.5
			c0,8-6.5,14.5-14.5,14.5S2,42.5,2,34.5V25c0-0.6-0.4-1-1-1s-1,0.4-1,1v9.5c0,8.6,6.6,15.7,15,16.4c0,0,0,0,0,0.1v4h-3
			c-0.6,0-1,0.4-1,1s0.4,1,1,1h8c0.6,0,1-0.4,1-1s-0.4-1-1-1h-3v-4c0,0,0,0,0,0c8.9-0.3,16-7.5,16-16.5V25C33,24.4,32.6,24,32,24z
			 M9,13h15c0.6,0,1-0.4,1-1c0-0.6-0.4-1-1-1H9c-0.6,0-1,0.4-1,1C8,12.6,8.4,13,9,13z M9,17h15c0.6,0,1-0.4,1-1c0-0.6-0.4-1-1-1H9
			c-0.6,0-1,0.4-1,1C8,16.6,8.4,17,9,17z M9,21h15c0.6,0,1-0.4,1-1c0-0.6-0.4-1-1-1H9c-0.6,0-1,0.4-1,1C8,20.6,8.4,21,9,21z M9,25
			h15c0.6,0,1-0.4,1-1c0-0.6-0.4-1-1-1H9c-0.6,0-1,0.4-1,1C8,24.6,8.4,25,9,25z M9,29h15c0.6,0,1-0.4,1-1c0-0.6-0.4-1-1-1H9
			c-0.6,0-1,0.4-1,1C8,28.6,8.4,29,9,29z M9,33h15c0.6,0,1-0.4,1-1c0-0.6-0.4-1-1-1H9c-0.6,0-1,0.4-1,1C8,32.6,8.4,33,9,33z M25,36
			c0-0.6-0.4-1-1-1H9c-0.6,0-1,0.4-1,1c0,0.6,0.4,1,1,1h15C24.6,37,25,36.6,25,36z"/>
	</g>
</g>
</symbol><symbol id="svg-ic_audio" viewBox="0 0 33 57">
<style type="text/css">
<![CDATA[
	.st0{fill-rule:evenodd;clip-rule:evenodd;}
]]>
</style>
<g>
	<g>
		<path d="M16.5,47C23.4,47,29,41.4,29,34.5v-22C29,5.6,23.4,0,16.5,0S4,5.6,4,12.5v22C4,41.4,9.6,47,16.5,47z M6,12.5
			C6,6.7,10.7,2,16.5,2C22.3,2,27,6.7,27,12.5v22C27,40.3,22.3,45,16.5,45C10.7,45,6,40.3,6,34.5V12.5z M32,24c-0.6,0-1,0.4-1,1v9.5
			c0,8-6.5,14.5-14.5,14.5S2,42.5,2,34.5V25c0-0.6-0.4-1-1-1s-1,0.4-1,1v9.5c0,8.6,6.6,15.7,15,16.4c0,0,0,0,0,0.1v4h-3
			c-0.6,0-1,0.4-1,1s0.4,1,1,1h8c0.6,0,1-0.4,1-1s-0.4-1-1-1h-3v-4c0,0,0,0,0,0c8.9-0.3,16-7.5,16-16.5V25C33,24.4,32.6,24,32,24z
			 M9,13h15c0.6,0,1-0.4,1-1c0-0.6-0.4-1-1-1H9c-0.6,0-1,0.4-1,1C8,12.6,8.4,13,9,13z M9,17h15c0.6,0,1-0.4,1-1c0-0.6-0.4-1-1-1H9
			c-0.6,0-1,0.4-1,1C8,16.6,8.4,17,9,17z M9,21h15c0.6,0,1-0.4,1-1c0-0.6-0.4-1-1-1H9c-0.6,0-1,0.4-1,1C8,20.6,8.4,21,9,21z M9,25
			h15c0.6,0,1-0.4,1-1c0-0.6-0.4-1-1-1H9c-0.6,0-1,0.4-1,1C8,24.6,8.4,25,9,25z M9,29h15c0.6,0,1-0.4,1-1c0-0.6-0.4-1-1-1H9
			c-0.6,0-1,0.4-1,1C8,28.6,8.4,29,9,29z M9,33h15c0.6,0,1-0.4,1-1c0-0.6-0.4-1-1-1H9c-0.6,0-1,0.4-1,1C8,32.6,8.4,33,9,33z M25,36
			c0-0.6-0.4-1-1-1H9c-0.6,0-1,0.4-1,1c0,0.6,0.4,1,1,1h15C24.6,37,25,36.6,25,36z"/>
	</g>
</g>
</symbol><symbol id="svg-ic_basic-risk-management" viewBox="0 0 57 50">
<g>
	<g>
		<path d="M48.5,0H9.7L0,10.3V17h3v33h52V17h2v-6.6L48.5,0z M53,48H5V17h48V48z M55,15H3H2v-3.9L10.6,2h37l7.4,9.1V15z M15,31h28
			c1.7,0,3-1.3,3-3v-2c0-1.7-1.3-3-3-3H15c-1.7,0-3,1.3-3,3v2C12,29.7,13.3,31,15,31z M14,26c0-0.6,0.4-1,1-1h28c0.6,0,1,0.4,1,1v2
			c0,0.6-0.4,1-1,1H15c-0.6,0-1-0.4-1-1V26z"/>
	</g>
</g>
</symbol><symbol id="svg-ic_books-orange" viewBox="0 0 52 42.6">
<style type="text/css">
<![CDATA[
	.st0{fill-rule:evenodd;clip-rule:evenodd;}
]]>
</style>
<g>
	<g>
		<path d="M51.6,3.8c-0.1-0.1-0.2-0.2-0.3-0.3L51,3.4c-12.2-7-23.2-1-24.9,0l-0.1,0C12.7-4.3,0.9,3.5,0.8,3.5
			c-0.1,0-0.1,0.1-0.1,0.1C0.3,3.8,0,4.2,0,4.6v37c0,0.6,0.4,1,1,1c0,0,0.1,0,0.1,0c0.2,0.1,0.5,0,0.7-0.1c0.1-0.1,11-5.6,23.4-0.1
			l0.3,0.1c0.1,0.1,0.3,0.1,0.4,0.1c0,0,0.1,0,0.1,0c0,0,0,0,0,0c0,0,0.1,0,0.1,0c0,0,0,0,0,0c0.2,0.1,0.5,0,0.7-0.1
			c0.1-0.1,11-5.6,23.4-0.1l0.3,0.1c0.1,0.1,0.3,0.1,0.4,0.1c0,0,0.1,0,0.1,0c0,0,0,0,0,0c0,0,0.1,0,0.1,0c0,0,0,0,0,0
			c0.5-0.1,0.8-0.5,0.8-1v-37C52,4.3,51.8,4,51.6,3.8z M2,40.2v-35c0.9-0.6,11.3-6.8,23-0.1l0,0v35C14.4,35.8,5.1,38.9,2,40.2z
			 M27,40.2v-35c0.9-0.6,11.3-6.8,23-0.1l0,0v35C39.4,35.8,30.1,38.9,27,40.2z"/>
	</g>
</g>
</symbol><symbol id="svg-ic_books" viewBox="0 0 52 42.6">
<style type="text/css">
<![CDATA[
	.st0{fill-rule:evenodd;clip-rule:evenodd;}
]]>
</style>
<g>
	<g>
		<path d="M51.6,3.8c-0.1-0.1-0.2-0.2-0.3-0.3L51,3.4c-12.2-7-23.2-1-24.9,0l-0.1,0C12.7-4.3,0.9,3.5,0.8,3.5
			c-0.1,0-0.1,0.1-0.1,0.1C0.3,3.8,0,4.2,0,4.6v37c0,0.6,0.4,1,1,1c0,0,0.1,0,0.1,0c0.2,0.1,0.5,0,0.7-0.1c0.1-0.1,11-5.6,23.4-0.1
			l0.3,0.1c0.1,0.1,0.3,0.1,0.4,0.1c0,0,0.1,0,0.1,0c0,0,0,0,0,0c0,0,0.1,0,0.1,0c0,0,0,0,0,0c0.2,0.1,0.5,0,0.7-0.1
			c0.1-0.1,11-5.6,23.4-0.1l0.3,0.1c0.1,0.1,0.3,0.1,0.4,0.1c0,0,0.1,0,0.1,0c0,0,0,0,0,0c0,0,0.1,0,0.1,0c0,0,0,0,0,0
			c0.5-0.1,0.8-0.5,0.8-1v-37C52,4.3,51.8,4,51.6,3.8z M2,40.2v-35c0.9-0.6,11.3-6.8,23-0.1l0,0v35C14.4,35.8,5.1,38.9,2,40.2z
			 M27,40.2v-35c0.9-0.6,11.3-6.8,23-0.1l0,0v35C39.4,35.8,30.1,38.9,27,40.2z"/>
	</g>
</g>
</symbol><symbol id="svg-ic_brink-magazine" viewBox="0 0 52 46.6">
<style type="text/css">
<![CDATA[
	.st0{fill-rule:evenodd;clip-rule:evenodd;}
]]>
</style>
<g>
	<g>
		<path d="M51.6,3.8c-0.1-0.1-0.2-0.2-0.3-0.3L51,3.4c-12.2-7-23.2-1-24.9,0l-0.1,0C12.7-4.3,0.9,3.5,0.8,3.5
			c-0.1,0-0.1,0.1-0.1,0.1C0.3,3.8,0,4.2,0,4.6v37c0,0.6,0.4,1,1,1c0,0,0.1,0,0.1,0c0.2,0.1,0.5,0,0.7-0.1c0.1-0.1,11-5.6,23.4-0.1
			l0.3,0.1c0.1,0.1,0.3,0.1,0.4,0.1c0,0,0.1,0,0.1,0c0,0,0,0,0,0c0,0,0.1,0,0.1,0c0,0,0,0,0,0c0.2,0.1,0.5,0,0.7-0.1
			c0.1-0.1,11-5.6,23.4-0.1l0.3,0.1c0.1,0.1,0.3,0.1,0.4,0.1c0,0,0.1,0,0.1,0c0,0,0,0,0,0c0,0,0.1,0,0.1,0c0,0,0,0,0,0
			c0.5-0.1,0.8-0.5,0.8-1v-37C52,4.3,51.8,4,51.6,3.8z M25,40.1c-10.6-4.3-19.9-1.2-23,0.1v-35c0.9-0.6,11.3-6.8,23-0.1l0,0V40.1z
			 M50,40.1c-10.6-4.3-19.9-1.2-23,0.1v-35c0.8-0.5,8.5-5.1,18-2.2v6.7c0,0.6,0.4,1,1,1c0.6,0,1-0.4,1-1v-6c1,0.4,2,0.9,3,1.5l0,0
			V40.1z M21.9,29.2l-0.2-0.1c-8.7-3.9-16.1-0.1-16.4,0.1c-0.5,0.3-0.7,0.9-0.4,1.3c0.3,0.5,0.9,0.7,1.3,0.4c0.1,0,7-3.5,14.7,0
			l0.1,0.1c0.1,0.1,0.3,0.1,0.4,0.1c0.4,0,0.7-0.2,0.9-0.6C22.6,30,22.4,29.4,21.9,29.2z M21.9,21.2l-0.2-0.1
			c-8.7-3.9-16.1-0.1-16.4,0.1c-0.5,0.3-0.7,0.9-0.4,1.3c0.3,0.5,0.9,0.7,1.3,0.4c0.1,0,7-3.5,14.7,0l0.1,0.1
			c0.1,0.1,0.3,0.1,0.4,0.1c0.4,0,0.7-0.2,0.9-0.6C22.6,22,22.4,21.5,21.9,21.2z M21.9,13.2l-0.2-0.1c-8.7-3.9-16.1-0.1-16.4,0.1
			c-0.5,0.3-0.7,0.9-0.4,1.3c0.3,0.5,0.9,0.7,1.3,0.4c0.1,0,7-3.5,14.7,0l0.1,0.1c0.1,0.1,0.3,0.1,0.4,0.1c0.4,0,0.7-0.2,0.9-0.6
			C22.6,14,22.4,13.5,21.9,13.2z M46.8,29.1l-0.2-0.1c-8.6-3.9-16-0.1-16.3,0.1c-0.5,0.3-0.7,0.9-0.4,1.3c0.3,0.5,0.9,0.7,1.3,0.4
			c0.1,0,6.9-3.5,14.6,0l0.1,0c0.1,0.1,0.3,0.1,0.4,0.1c0.4,0,0.7-0.2,0.9-0.6C47.5,30,47.3,29.4,46.8,29.1z M30.7,23.1
			c0.2,0,0.3,0,0.5-0.1c0.1,0,6.9-3.5,14.6-0.1L46,23c0.5,0.2,1.1,0,1.3-0.5c0.2-0.5,0-1.1-0.5-1.3l-0.1-0.1
			c-8.6-3.9-16-0.1-16.3,0.1c-0.5,0.3-0.7,0.9-0.4,1.3C30,22.9,30.4,23.1,30.7,23.1z M30.7,15.2c0.2,0,0.3,0,0.5-0.1
			c0.1,0,6.9-3.5,14.7,0c0,0,0.1,0,0.1,0c0.5,0.2,1,0,1.3-0.5c0.2-0.5,0-1.1-0.5-1.3l-0.1,0c-8.6-3.9-16-0.1-16.3,0.1
			c-0.5,0.3-0.7,0.9-0.4,1.3C30,15,30.4,15.2,30.7,15.2z M51.3,44.7L51,44.6c-12.4-5.6-23.2-0.8-24.9,0l-0.1,0
			c-13.2-5.9-24.6-0.1-25.1,0.1c-0.5,0.3-0.7,0.9-0.4,1.3c0.3,0.5,0.9,0.7,1.3,0.4c0.1-0.1,11-5.6,23.4-0.1l0.3,0.1
			c0.1,0.1,0.3,0.1,0.4,0.1c0.1,0,0.2,0,0.3,0c0.2,0.1,0.5,0,0.7-0.1c0.1-0.1,11-5.6,23.4-0.1l0.3,0.1c0.1,0.1,0.3,0.1,0.4,0.1
			c0.4,0,0.7-0.2,0.9-0.6C52,45.5,51.8,44.9,51.3,44.7z"/>
	</g>
</g>
</symbol><symbol id="svg-ic_bundled-solutions" viewBox="0 0 50 48">
<g>
	<g>
		<path d="M22.9,33.1l-8.4-7.2l-1.3,1.5l10.3,8.8l12.6-22.4l-1.7-1L22.9,33.1z M48,46h-5v2h7v-7h-2V46z M19,48h12v-2H19V48z M2,41H0
			v7h7v-2H2V41z M2,18H0v12h2V18z M0,7h2V2h5V0H0V7z M31,0H19v2h12V0z M43,0v2h5v5h2V0H43z M48,30h2V18h-2V30z"/>
	</g>
</g>
</symbol><symbol id="svg-ic_check_white_48px" viewBox="0 0 24 24">
    <path d="M0 0h24v24H0z" fill="none"/>
    <path d="M9 16.17L4.83 12l-1.42 1.41L9 19 21 7l-1.41-1.41z"/>
</symbol><symbol id="svg-ic_chronic-pain-management" viewBox="0 0 58 56">
    <!-- Generator: Sketch 3.3.2 (12043) - http://www.bohemiancoding.com/sketch -->
    <title>medical-new-44</title>
    <desc>Created with Sketch.</desc>
    
    <g id="Page-1" stroke="none" stroke-width="1">
        <g id="medical-new-44">
            <path d="M16,49 C7.178,49 0,41.822 0,33 C0,24.177 7.178,17 16,17 C24.822,17 32,24.177 32,33 C32,41.822 24.822,49 16,49 L16,49 Z M16,19 C8.28,19 2,25.28 2,33 C2,40.72 8.28,47 16,47 C23.72,47 30,40.72 30,33 C30,25.28 23.72,19 16,19 L16,19 Z"/>
            <path d="M1,32 L31,32 L31,34 L1,34 L1,32 Z"/>
            <path d="M37.075,55.419 C35.483,55.419 33.986,54.806 32.86,53.694 C31.724,52.572 31.092,51.069 31.082,49.462 C31.072,47.856 31.685,46.345 32.807,45.209 L47.683,30.333 C48.833,29.167 50.352,28.523 51.957,28.523 C53.491,28.523 54.943,29.123 56.047,30.213 C57.168,31.32 57.829,32.878 57.86,34.489 C57.894,36.142 57.293,37.678 56.172,38.814 L41.341,53.645 C40.213,54.787 38.696,55.419 37.075,55.419 L37.075,55.419 Z M51.957,30.523 C50.892,30.523 49.878,30.956 49.102,31.743 L34.226,46.619 C33.483,47.371 33.075,48.378 33.082,49.45 C33.089,50.522 33.509,51.524 34.265,52.271 C35.015,53.011 36.013,53.419 37.075,53.419 C38.157,53.419 39.169,52.998 39.922,52.235 L54.753,37.404 C55.487,36.66 55.883,35.637 55.861,34.529 C55.84,33.434 55.396,32.38 54.643,31.636 C53.915,30.918 52.962,30.523 51.957,30.523 L51.957,30.523 Z"/>
            <path d="M47.683,45.889 L40.611,38.818 L42.025,37.404 L49.097,44.475 L47.683,45.889"/>
            <path d="M42.016,21.169 C41.221,21.169 40.451,21.011 39.729,20.701 L20.506,12.311 C17.472,11.01 16.06,7.475 17.363,4.434 C18.31,2.228 20.479,0.802 22.892,0.802 C23.703,0.802 24.494,0.965 25.243,1.286 L44.523,9.701 C47.594,11.018 48.987,14.42 47.69,17.444 C46.735,19.672 44.455,21.169 42.016,21.169 L42.016,21.169 Z M22.892,2.802 C21.28,2.802 19.832,3.752 19.201,5.223 C18.332,7.25 19.273,9.606 21.301,10.476 L40.523,18.866 C40.989,19.066 41.493,19.169 42.016,19.169 C43.666,19.169 45.208,18.159 45.852,16.656 C46.707,14.663 45.774,12.414 43.728,11.536 L24.448,3.121 C23.956,2.91 23.431,2.802 22.892,2.802 L22.892,2.802 Z"/>
            <path d="M31.875,16.182 L30.041,15.382 L34.041,6.217 L35.875,7.017 L31.875,16.182"/>
        </g>
    </g>
</symbol><symbol id="svg-ic_claim-reviews" viewBox="0 0 52 51">
<style type="text/css">
<![CDATA[
	.st0{fill-rule:evenodd;clip-rule:evenodd;}
]]>
</style>
<g>
	<g>
		<path d="M13.1,9H39c0.6,0,1-0.4,1-1s-0.4-1-1-1H13.1c-0.6,0-1,0.4-1,1S12.5,9,13.1,9z M11.1,16H41c0.6,0,1-0.4,1-1
			c0-0.6-0.4-1-1-1H11.1c-0.6,0-1,0.4-1,1C10.1,15.6,10.5,16,11.1,16z M9.1,23H43c0.6,0,1-0.4,1-1c0-0.6-0.4-1-1-1H9.1
			c-0.6,0-1,0.4-1,1C8.1,22.6,8.5,23,9.1,23z M45,28H7.1c-0.6,0-1,0.4-1,1c0,0.6,0.4,1,1,1H45c0.6,0,1-0.4,1-1
			C46,28.4,45.5,28,45,28z M51.8,37.4L44.3,0.8c-0.1-0.5-0.5-0.8-1-0.8H8.6c-0.5,0-0.9,0.3-1,0.8L0,37.8c0,0.2,0,0.4,0.1,0.6V50
			c0,0.6,0.4,1,1,1H51c0.6,0,1-0.4,1-1V38C52,37.8,51.9,37.6,51.8,37.4z M9.4,2h33.1l7.2,35H2.2L9.4,2z M50,49H2.1v-2H50V49z M50,45
			H2.1v-2H50V45z M50,41H2.1v-2H50V41z"/>
	</g>
</g>
</symbol><symbol id="svg-ic_clinics" viewBox="0 0 52 56">
    <!-- Generator: Sketch 3.3.2 (12043) - http://www.bohemiancoding.com/sketch -->
    <title>medical-new-19</title>
    <desc>Created with Sketch.</desc>
    
    <g id="Page-1" stroke="none" stroke-width="1">
        <g id="medical-new-19">
            <path d="M0,0 L2,0 L2,56 L0,56 L0,0 Z" id="Fill-113" sketch:type="MSShapeGroup"/>
            <path d="M8,6 L52,6 L52,50 L8,50 L8,6 Z M10,48 L50,48 L50,8 L10,8 L10,48 Z" id="Fill-114" sketch:type="MSShapeGroup"/>
            <path d="M0,17 L10,17 L10,39 L0,39 L0,17 Z M2,37 L8,37 L8,19 L2,19 L2,37 Z" id="Fill-115" sketch:type="MSShapeGroup"/>
            <path d="M37,43 L23,43 L23,35 L15,35 L15,21 L23,21 L23,13 L37,13 L37,21 L45,21 L45,35 L37,35 L37,43 L37,43 Z M25,41 L35,41 L35,33 L43,33 L43,23 L35,23 L35,15 L25,15 L25,23 L17,23 L17,33 L25,33 L25,41 L25,41 Z" id="Fill-116" sketch:type="MSShapeGroup"/>
        </g>
    </g>
</symbol><symbol id="svg-ic_cme-options" viewBox="0 0 58 51">
<g>
	<g fill="#266294">
		<path d="M47.6,40.6L58,41.4L46.1,29.4c1.4-2.8,2.2-5.9,2.2-9.2C48.4,9.1,39.3,0,28.2,0C17.1,0,8.1,9.1,8.1,20.2
			c0,3.7,1,7.2,2.8,10.2L0,41.4l10.4-0.7L9.7,51l11.8-11.8c2.1,0.8,4.4,1.2,6.8,1.2c2.8,0,5.5-0.6,7.9-1.6L48.3,51L47.6,40.6z
			 M19.5,38.4l-7.4,7.4l0.5-7.3L5.2,39l6.8-6.8c0.2,0.2,0.3,0.4,0.5,0.7c0.1,0.1,0.2,0.2,0.2,0.3c0.4,0.4,0.7,0.8,1.1,1.2
			c0.1,0.1,0.2,0.2,0.3,0.3c0.4,0.4,0.8,0.8,1.3,1.2c0,0,0.1,0,0.1,0.1c0.4,0.3,0.8,0.7,1.3,1c0.1,0.1,0.3,0.2,0.4,0.3
			c0.4,0.3,0.9,0.6,1.3,0.8c0.2,0.1,0.4,0.2,0.6,0.3C19.2,38.2,19.3,38.3,19.5,38.4z M21.5,37.1c-0.3-0.1-0.7-0.3-1-0.4
			c-0.2-0.1-0.3-0.1-0.5-0.2c-0.3-0.1-0.6-0.3-0.8-0.4c-0.2-0.1-0.4-0.3-0.7-0.4c-0.2-0.1-0.4-0.3-0.6-0.4c-0.4-0.3-0.8-0.6-1.2-0.9
			c-0.1-0.1-0.2-0.2-0.3-0.2c-0.3-0.3-0.6-0.6-0.9-0.8c-0.2-0.1-0.3-0.3-0.4-0.5c-0.2-0.2-0.4-0.4-0.6-0.7c-0.2-0.2-0.3-0.4-0.5-0.6
			c-0.2-0.2-0.3-0.4-0.5-0.6c-0.2-0.2-0.3-0.5-0.5-0.7c-1.9-2.9-3-6.3-3-9.9c0-10,8.1-18.2,18.2-18.2c10,0,18.2,8.2,18.2,18.2
			c0,3.1-0.8,6.1-2.2,8.6L44.1,29c-0.2,0.4-0.5,0.8-0.7,1.2c-0.1,0.2-0.2,0.4-0.4,0.5c-0.2,0.3-0.5,0.6-0.7,0.9
			c-0.1,0.2-0.2,0.3-0.4,0.4c-0.2,0.3-0.5,0.5-0.7,0.8c-0.1,0.1-0.3,0.3-0.4,0.4c-0.2,0.2-0.5,0.4-0.7,0.7c-0.2,0.1-0.3,0.3-0.5,0.4
			c-0.2,0.2-0.4,0.3-0.7,0.5c-0.5,0.4-1.1,0.8-1.7,1.1c0,0-0.1,0-0.1,0.1c-0.4,0.2-0.7,0.4-1.1,0.6c-0.2,0.1-0.4,0.2-0.5,0.3
			L35.2,37c-2.2,0.9-4.5,1.4-7,1.4C25.9,38.4,23.6,37.9,21.5,37.1z M38,37.9c0.1-0.1,0.2-0.1,0.3-0.2c0.3-0.2,0.6-0.3,0.8-0.5
			c0.2-0.1,0.4-0.3,0.6-0.4c0.4-0.3,0.7-0.5,1.1-0.8c0.1-0.1,0.2-0.1,0.2-0.2c0.4-0.3,0.8-0.7,1.2-1.1c0.1-0.1,0.2-0.2,0.3-0.3
			c0.4-0.4,0.8-0.8,1.1-1.3c0-0.1,0.1-0.1,0.1-0.2c0.3-0.4,0.6-0.8,0.9-1.2c0.1-0.1,0.2-0.2,0.2-0.4c0,0,0.1-0.1,0.1-0.1l7.8,7.8
			l-7.4-0.5l0.5,7.3L38,37.9z"/>
	</g>
</g>
</symbol><symbol id="svg-ic_consultants-pss-team" viewBox="0 0 46 50.8">
<g>
	<g>
		<path d="M39.9,16.2c0.5-1.4,0.8-2.9,0.8-4.6C40.7,5.2,36.3,0,30.8,0c-4.2,0-7.9,3.1-9.3,7.8c-1.1-0.4-2.3-0.6-3.5-0.6
			c-6.4,0-11.7,6.2-11.7,13.8s5.2,13.8,11.7,13.8c4.1,0,7.7-2.5,9.8-6.3c2.6,2,4.5,4.7,5.5,7.7c0.5,1.6,0.8,3.3,0.8,5
			c0,2.6-0.9,5.4-2.1,7.7H4c-1.2-2.3-2-5.1-2-7.7c0-3.2,1-6.4,2.8-9L3.1,31C1.1,34,0,37.5,0,41.2c0,3.2,0.8,6.3,2.4,9L3,50.8h30
			l0.7-0.7c1.6-2.7,2.4-5.9,2.4-9c0-1.5-0.2-3-0.6-4.5h7.6l0.3-0.5c1-1.6,2.6-4.7,2.6-7.9C46,23.5,43.7,19,39.9,16.2z M30.8,2
			c4.3,0,7.8,4.3,7.8,9.6c0,5.3-3.5,9.6-7.8,9.6c-0.4,0-0.8,0-1.1-0.1c0-0.1,0-0.1,0-0.2c0-5.3-2.6-10-6.3-12.3
			C24.4,4.7,27.4,2,30.8,2z M18.1,32.7c-5.3,0-9.7-5.3-9.7-11.8c0-6.5,4.3-11.8,9.7-11.8s9.7,5.3,9.7,11.8
			C27.7,27.4,23.4,32.7,18.1,32.7z M42,34.7h-7.1c-1.2-3.2-3.4-6.1-6.2-8.1c0.4-1.1,0.7-2.2,0.9-3.5c0.4,0.1,0.9,0.1,1.3,0.1
			c3.4,0,6.4-2.1,8.2-5.2c3.1,2.5,5,6.3,5,10.3C44,30.7,42.8,33.2,42,34.7z"/>
	</g>
</g>
</symbol><symbol id="svg-ic_education" viewBox="0 0 52 51">
<g>
	<g>
		<path d="M49,43.2V15.1c0.2-0.3,0.3-0.6,0.3-1c0-0.7-0.4-1.4-1.2-1.8L26.9,0.5c-1.2-0.7-3.2-0.7-4.4,0L1.2,12.2
			C0.4,12.7,0,13.3,0,14.1s0.4,1.4,1.2,1.8l7,3.9V30c0,6.1,4.9,11,10.9,11h11.9c6,0,10.9-4.9,10.9-11V19.2l5-2.8v26.7
			c-1.7,0.4-3,2-3,3.9c0,2.2,1.8,4,4,4s4-1.8,4-4C52,45.2,50.7,43.6,49,43.2z M40.1,30c0,5-4,9-8.9,9H19.2c-4.9,0-8.9-4-8.9-9v-9.1
			l12.2,6.7c0.6,0.3,1.4,0.5,2.2,0.5c0.8,0,1.6-0.2,2.2-0.5l13.2-7.3V30z M25.9,25.9c-0.6,0.3-1.9,0.3-2.5,0L2.2,14.2
			c-0.1,0-0.1-0.1-0.1-0.1c0,0,0.1-0.1,0.1-0.1L23.4,2.3c0.6-0.3,1.9-0.3,2.5,0L47.1,14c0.1,0,0.1,0.1,0.1,0.1H47v0.1L25.9,25.9z
			 M48,49c-1.1,0-2-0.9-2-2c0-1.1,0.9-2,2-2s2,0.9,2,2C50,48.1,49.1,49,48,49z"/>
	</g>
</g>
</symbol><symbol id="svg-ic_female-blue" viewBox="0 0 43.6 43.4">
<style type="text/css">
<![CDATA[
	.st0{fill:#266294;}
  
]]>
</style>
<g>
	<g>
		<path class="st0" d="M38.4,5.3C35,1.9,30.4,0,25.6,0c-4.8,0-9.3,1.9-12.7,5.3C9.5,8.7,7.6,13.2,7.6,18c0,4.4,1.6,8.6,4.5,11.9
			l-5.8,5.8l-5-5L0,32.1l5,5l-4.2,4.2l1.4,1.4l4.2-4.2l5,5l1.4-1.4l-4.9-5l5.8-5.8c3.3,3,7.6,4.7,12.1,4.7c4.8,0,9.3-1.9,12.7-5.3
			c3.4-3.4,5.3-7.9,5.3-12.7S41.8,8.7,38.4,5.3z M36.9,29.3c-3,3-7,4.7-11.3,4.7c-4.3,0-8.3-1.7-11.3-4.7c-3-3-4.7-7-4.7-11.3
			s1.7-8.3,4.7-11.3c3-3,7-4.7,11.3-4.7c4.3,0,8.3,1.7,11.3,4.7c3,3,4.7,7,4.7,11.3S40,26.3,36.9,29.3z"/>
	</g>
</g>
</symbol><symbol id="svg-ic_female" viewBox="0 0 43.6 43.4">
<style type="text/css">
<![CDATA[
	.st0{fill:#202020;}
]]>
</style>
<g>
	<g>
		<path class="st0" d="M38.4,5.3C35,1.9,30.4,0,25.6,0c-4.8,0-9.3,1.9-12.7,5.3C9.5,8.7,7.6,13.2,7.6,18c0,4.4,1.6,8.6,4.5,11.9
			l-5.8,5.8l-5-5L0,32.1l5,5l-4.2,4.2l1.4,1.4l4.2-4.2l5,5l1.4-1.4l-4.9-5l5.8-5.8c3.3,3,7.6,4.7,12.1,4.7c4.8,0,9.3-1.9,12.7-5.3
			c3.4-3.4,5.3-7.9,5.3-12.7S41.8,8.7,38.4,5.3z M36.9,29.3c-3,3-7,4.7-11.3,4.7c-4.3,0-8.3-1.7-11.3-4.7c-3-3-4.7-7-4.7-11.3
			s1.7-8.3,4.7-11.3c3-3,7-4.7,11.3-4.7c4.3,0,8.3,1.7,11.3,4.7c3,3,4.7,7,4.7,11.3S40,26.3,36.9,29.3z"/>
	</g>
</g>
</symbol><symbol id="svg-ic_hipaa" viewBox="0 0 43 55">
<style type="text/css">
<![CDATA[
	.st0{fill-rule:evenodd;clip-rule:evenodd;}
]]>
</style>
<g>
	<g>
		<path d="M38,0H5C2.2,0,0,2.2,0,5v45c0,0.1,0,0.1,0,0.2c0,0.1,0,0.1,0,0.2v0.4C0,53.1,1.9,55,4.3,55h34.4c2.4,0,4.3-1.9,4.3-4.3
			v-0.4c0-0.1,0-0.1,0-0.2c0-0.1,0-0.1,0-0.2V5C43,2.2,40.8,0,38,0z M2,5c0-1.7,1.3-3,3-3h33c1.7,0,3,1.3,3,3v6c0,1.7-1.3,3-3,3
			H23.4l1.1-2.9c0.9-0.7,1.5-1.8,1.5-3V7.9C26,5.8,24.2,4,22.1,4h-0.1C19.8,4,18,5.8,18,7.9v0.1c0,1.4,0.7,2.6,1.8,3.3l1,2.6H5
			c-1.7,0-3-1.3-3-3V5z M38.7,46H23V30.8c1-1.1,1.7-2.5,2-4.1c0.6-0.7,1-1.6,1-2.6v-0.1c0-1.2-0.6-2.3-1.5-3.1L22.6,16l0,0H38
			c1.1,0,2.2-0.4,3-1v31.7C40.3,46.3,39.5,46,38.7,46z M24,8.1c0,1.1-0.9,1.9-1.9,1.9h-0.1C20.9,10,20,9.1,20,8.1V7.9
			C20,6.9,20.9,6,21.9,6h0.1C23.1,6,24,6.9,24,7.9V8.1z M21.9,12h0.1c0.4,0,0.8-0.1,1.1-0.2L22.3,14h-0.5l-0.8-2.1
			C21.3,12,21.6,12,21.9,12z M21.6,16l-1.8,4.6c-1.1,0.7-1.8,1.9-1.8,3.3v0.1c0,1.8,1.3,3.4,3,3.8v3.3c-1.2,0.8-2.6,1.3-4.1,1.3
			c-0.3,0-0.5,0.2-0.5,0.5s0.2,0.5,0.5,0.5c1.5,0,2.9-0.4,4.1-1.1V46H4.3c-0.9,0-1.6,0.3-2.3,0.7V15c0.8,0.6,1.9,1,3,1L21.6,16
			L21.6,16z M20,23.9c0-1.1,0.9-1.9,1.9-1.9h0.1c1.1,0,1.9,0.9,1.9,1.9v0.1c0,1.1-0.9,1.9-1.9,1.9h-0.1c-1.1,0-1.9-0.9-1.9-1.9V23.9
			z M23,27.9c0.2-0.1,0.5-0.1,0.7-0.3c-0.2,0.5-0.4,1-0.7,1.5V27.9z M22.1,20h-0.1c-0.3,0-0.6,0-0.9,0.1l1-2.7l1.1,2.8
			C22.8,20.1,22.5,20,22.1,20z M5,53c-1.6,0-2.9-1.3-3-2.8C2.1,49,3.1,48,4.3,48h34.4c1.2,0,2.2,1,2.3,2.2c-0.1,1.6-1.4,2.8-3,2.8H5
			z"/>
	</g>
</g>
</symbol><symbol id="svg-ic_hospitals" viewBox="0 0 52 56">
    <!-- Generator: Sketch 3.3.2 (12043) - http://www.bohemiancoding.com/sketch -->
    <title>medical-new-20</title>
    <desc>Created with Sketch.</desc>
    
    <g id="Page-1" stroke="none" stroke-width="1">
        <g id="medical-new-20">
            <path d="M0,0 L2,0 L2,56 L0,56 L0,0 Z" id="Fill-117" sketch:type="MSShapeGroup"/>
            <path d="M8,6 L52,6 L52,50 L8,50 L8,6 Z M10,48 L50,48 L50,8 L10,8 L10,48 Z" id="Fill-118" sketch:type="MSShapeGroup"/>
            <path d="M0,17 L10,17 L10,39 L0,39 L0,17 Z M2,37 L8,37 L8,19 L2,19 L2,37 Z" id="Fill-119" sketch:type="MSShapeGroup"/>
            <path d="M45,42 L34,42 L34,33 L26,33 L26,42 L15,42 L15,13 L26,13 L26,22 L34,22 L34,13 L45,13 L45,42 L45,42 Z M36,40 L43,40 L43,15 L36,15 L36,24 L24,24 L24,15 L17,15 L17,40 L24,40 L24,31 L36,31 L36,40 L36,40 Z" id="Fill-120" sketch:type="MSShapeGroup"/>
        </g>
    </g>
</symbol><symbol id="svg-ic_impt-news-updates" viewBox="0 0 52 48.3">
<g>
	<g>
		<path d="M0,24.3h2v-12H0V24.3z M48,9.3h-2V0L4,10.5v15.6l42,10.5v-9.3h2c2.2,0,4-2.2,4-5v-8C52,11.5,50.2,9.3,48,9.3z M44,34
			L6,24.5V12.1l38-9.5V34z M50,22.3c0,1.6-0.9,3-2,3h-2v-14h2c1.1,0,2,1.4,2,3V22.3z M17,43.3c0,1.7-1.3,3-3,3h-2c-1.7,0-3-1.3-3-3
			v-14H7v14c0,2.8,2.2,5,5,5h2c2.8,0,5-2.2,5-5v-11h-2V43.3z"/>
	</g>
</g>
</symbol><symbol id="svg-ic_interactive--orange" viewBox="0 0 46 57">
<g>
	<g>
		<path d="M40.6,13h-1.2c-1.8,0-3.4,0.9-4.4,2.3c-1-1.4-2.6-2.3-4.4-2.3h-1.2c-1.8,0-3.4,0.9-4.4,2.3c-1-1.4-2.6-2.3-4.4-2.3h-1.2
			c-1.3,0-2.5,0.5-3.4,1.2V5.8C16,2.6,13.4,0,10.2,0H9.8C6.6,0,4,2.6,4,5.8v18c-1.9,1.6-4,4.1-4,6.7V42c0,8.4,7.4,15,15.6,15H31
			c8.3,0,15-6.7,15-15V30v-3.4v-8.2C46,15.4,43.6,13,40.6,13z M44,42c0,7.3-5.7,13-13,13H15.6C8.4,55,2,49.4,2,42V30.6
			c0-2.2,2-4.2,3.6-5.4L6,24.8v-19C6,3.7,7.7,2,9.8,2h0.4C12.3,2,14,3.7,14,5.8v12.6V21v8v2c0,0.6,0.4,1,1,1s1-0.4,1-1v-2v-8.7v-1.9
			c0-1.9,1.5-3.4,3.4-3.4h1.2c1.9,0,3.4,1.5,3.4,3.4V29v2c0,0.6,0.4,1,1,1s1-0.4,1-1v-2V18.4c0-1.9,1.5-3.4,3.4-3.4h1.2
			c1.9,0,3.4,1.5,3.4,3.4V29v2c0,0.6,0.4,1,1,1s1-0.4,1-1v-2V18.4c0-1.9,1.5-3.4,3.4-3.4h1.2c1.9,0,3.4,1.5,3.4,3.4v9.5V30V42z"/>
	</g>
</g>
</symbol><symbol id="svg-ic_interactive" viewBox="0 0 46 57">
<g>
	<g>
		<path d="M40.6,13h-1.2c-1.8,0-3.4,0.9-4.4,2.3c-1-1.4-2.6-2.3-4.4-2.3h-1.2c-1.8,0-3.4,0.9-4.4,2.3c-1-1.4-2.6-2.3-4.4-2.3h-1.2
			c-1.3,0-2.5,0.5-3.4,1.2V5.8C16,2.6,13.4,0,10.2,0H9.8C6.6,0,4,2.6,4,5.8v18c-1.9,1.6-4,4.1-4,6.7V42c0,8.4,7.4,15,15.6,15H31
			c8.3,0,15-6.7,15-15V30v-3.4v-8.2C46,15.4,43.6,13,40.6,13z M44,42c0,7.3-5.7,13-13,13H15.6C8.4,55,2,49.4,2,42V30.6
			c0-2.2,2-4.2,3.6-5.4L6,24.8v-19C6,3.7,7.7,2,9.8,2h0.4C12.3,2,14,3.7,14,5.8v12.6V21v8v2c0,0.6,0.4,1,1,1s1-0.4,1-1v-2v-8.7v-1.9
			c0-1.9,1.5-3.4,3.4-3.4h1.2c1.9,0,3.4,1.5,3.4,3.4V29v2c0,0.6,0.4,1,1,1s1-0.4,1-1v-2V18.4c0-1.9,1.5-3.4,3.4-3.4h1.2
			c1.9,0,3.4,1.5,3.4,3.4V29v2c0,0.6,0.4,1,1,1s1-0.4,1-1v-2V18.4c0-1.9,1.5-3.4,3.4-3.4h1.2c1.9,0,3.4,1.5,3.4,3.4v9.5V30V42z"/>
	</g>
</g>
</symbol><symbol id="svg-ic_keyboard_arrow_down_white_48px" viewBox="0 0 24 24">
    <path d="M7.41 7.84L12 12.42l4.59-4.58L18 9.25l-6 6-6-6z"/>
    <path d="M0-.75h24v24H0z" fill="none"/>
</symbol><symbol id="svg-ic_keyboard_arrow_left_orange" viewBox="0 0 24 24">
    <path d="M15.41 16.09l-4.58-4.59 4.58-4.59L14 5.5l-6 6 6 6z"/>
    <path d="M0-.5h24v24H0z" fill="none"/>
</symbol><symbol id="svg-ic_keyboard_arrow_left_white_48px" viewBox="0 0 24 24">
    <path d="M15.41 16.09l-4.58-4.59 4.58-4.59L14 5.5l-6 6 6 6z"/>
    <path d="M0-.5h24v24H0z" fill="none"/>
</symbol><symbol id="svg-ic_keyboard_arrow_right_orange" viewBox="0 0 24 24">
    <path d="M8.59 16.34l4.58-4.59-4.58-4.59L10 5.75l6 6-6 6z"/>
    <path d="M0-.25h24v24H0z" fill="none"/>
</symbol><symbol id="svg-ic_keyboard_arrow_right_white_48px" viewBox="0 0 24 24">
    <path d="M8.59 16.34l4.58-4.59-4.58-4.59L10 5.75l6 6-6 6z"/>
    <path d="M0-.25h24v24H0z" fill="none"/>
</symbol><symbol id="svg-ic_keyboard_arrow_up_white_48px" viewBox="0 0 24 24">
    <path d="M7.41 15.41L12 10.83l4.59 4.58L18 14l-6-6-6 6z"/>
    <path d="M0 0h24v24H0z" fill="none"/>
</symbol><symbol id="svg-ic_live-educational-programs" viewBox="0 0 51 40">
<g>
	<g fill="#266294">
		<path d="M0,0v36h51V0H0z M49,34H2V2h47V34z M0,40h51v-2H0V40z M46.4,10.2l-5.7-5.7L23.6,21.7l-1.9,7.5l7.5-1.9L46.4,10.2z
			 M24.5,26.5l0.9-3.8L40.8,7.4l2.8,2.8L28.2,25.6L24.5,26.5z"/>
	</g>
</g>
</symbol><symbol id="svg-ic_long-term--care" viewBox="0 0 34 50">
<style type="text/css">
<![CDATA[
	.st0{fill:#202020;}
]]>
</style>
<g>
	<g>
		<path class="st0" d="M31,16.2L34,0H0l3,16.2l-0.2,0.3c-1.7,3.3-2.6,7.1-2.6,11C0.2,39.5,8,50,17,50s16.8-10.5,16.8-22.5
			c0-3.9-0.9-7.7-2.6-11L31,16.2z M2.4,2h29.2L29,16H5L2.4,2z M17,48C9.2,48,2.2,38.2,2.2,27.5c0-0.2,0-0.3,0-0.5l0.5,0.8
			c4.8-3.2,11.7-2.3,13.6-1.9c3.6,7.5,11.8,8.1,14.6,8.1C28.8,41.9,23.1,48,17,48z M31.4,32c-1.8,0.1-10.2,0.1-13.5-7.4l-0.2-0.5
			L17.2,24c-0.4-0.1-8.8-1.9-15,1.8c0.2-2.7,0.9-5.4,2-7.8h25.4c1.4,2.9,2.1,6.2,2.1,9.5C31.8,29,31.6,30.6,31.4,32z M16,14h2v-4
			h3.9V8H18V4h-2v4H12v2H16V14z"/>
	</g>
</g>
</symbol><symbol id="svg-ic_long-term-care" viewBox="0 0 34 50">
<style type="text/css">
<![CDATA[
	.st0{fill:#202020;}
]]>
</style>
<g>
	<g>
		<path class="st0" d="M31,16.2L34,0H0l3,16.2l-0.2,0.3c-1.7,3.3-2.6,7.1-2.6,11C0.2,39.5,8,50,17,50s16.8-10.5,16.8-22.5
			c0-3.9-0.9-7.7-2.6-11L31,16.2z M2.4,2h29.2L29,16H5L2.4,2z M17,48C9.2,48,2.2,38.2,2.2,27.5c0-0.2,0-0.3,0-0.5l0.5,0.8
			c4.8-3.2,11.7-2.3,13.6-1.9c3.6,7.5,11.8,8.1,14.6,8.1C28.8,41.9,23.1,48,17,48z M31.4,32c-1.8,0.1-10.2,0.1-13.5-7.4l-0.2-0.5
			L17.2,24c-0.4-0.1-8.8-1.9-15,1.8c0.2-2.7,0.9-5.4,2-7.8h25.4c1.4,2.9,2.1,6.2,2.1,9.5C31.8,29,31.6,30.6,31.4,32z M16,14h2v-4
			h3.9V8H18V4h-2v4H12v2H16V14z"/>
	</g>
</g>
</symbol><symbol id="svg-ic_male-blue" viewBox="0 0 44.3 44.4">
<style type="text/css">
<![CDATA[
	.st0{fill:#266294;}
]]>
</style>
<g>
	<g>
		<path class="st0" d="M42.3,9.9l2-0.2l-0.8-9l-9-0.8l-0.2,2l6.3,0.5L30.1,13.1c-3.3-3-7.6-4.7-12.1-4.7c-4.8,0-9.3,1.9-12.7,5.3
			C1.9,17.1,0,21.6,0,26.4c0,4.8,1.9,9.3,5.3,12.7c3.4,3.4,7.9,5.3,12.7,5.3c4.8,0,9.3-1.9,12.7-5.3c3.4-3.4,5.3-7.9,5.3-12.7
			c0-4.4-1.6-8.6-4.5-11.9L41.8,4.2L42.3,9.9z M29.3,37.8c-3,3-7,4.7-11.3,4.7s-8.3-1.7-11.3-4.7c-3-3-4.7-7-4.7-11.3
			c0-4.3,1.7-8.3,4.7-11.3c3-3,7-4.7,11.3-4.7c4.3,0,8.3,1.7,11.3,4.7c3,3,4.7,7,4.7,11.3C34,30.7,32.3,34.7,29.3,37.8z"/>
	</g>
</g>
</symbol><symbol id="svg-ic_male" viewBox="0 0 44.3 44.4">
<style type="text/css">
<![CDATA[
	.st0{fill:#202020;}
]]>
</style>
<g>
	<g>
		<path class="st0" d="M42.3,9.9l2-0.2l-0.8-9l-9-0.8l-0.2,2l6.3,0.5L30.1,13.1c-3.3-3-7.6-4.7-12.1-4.7c-4.8,0-9.3,1.9-12.7,5.3
			C1.9,17.1,0,21.6,0,26.4c0,4.8,1.9,9.3,5.3,12.7c3.4,3.4,7.9,5.3,12.7,5.3c4.8,0,9.3-1.9,12.7-5.3c3.4-3.4,5.3-7.9,5.3-12.7
			c0-4.4-1.6-8.6-4.5-11.9L41.8,4.2L42.3,9.9z M29.3,37.8c-3,3-7,4.7-11.3,4.7s-8.3-1.7-11.3-4.7c-3-3-4.7-7-4.7-11.3
			c0-4.3,1.7-8.3,4.7-11.3c3-3,7-4.7,11.3-4.7c4.3,0,8.3,1.7,11.3,4.7c3,3,4.7,7,4.7,11.3C34,30.7,32.3,34.7,29.3,37.8z"/>
	</g>
</g>
</symbol><symbol id="svg-ic_managing-electronic-risk" viewBox="0 0 49 52">
    <!-- Generator: Sketch 3.3.2 (12043) - http://www.bohemiancoding.com/sketch -->
    <title>security-31</title>
    <desc>Created with Sketch.</desc>
    
    <g id="Page-1" stroke="none" stroke-width="1">
        <g id="security-31" transform="translate(0.000000, -1.000000)">
            <path d="M40,42 C39.735,42 39.481,41.895 39.293,41.707 L35.293,37.707 C34.902,37.317 34.902,36.683 35.293,36.293 C35.684,35.903 36.316,35.903 36.707,36.293 L39.917,39.503 L47.219,30.375 C47.565,29.945 48.193,29.874 48.625,30.219 C49.056,30.564 49.126,31.193 48.781,31.625 L40.781,41.625 C40.604,41.847 40.339,41.983 40.056,41.998 C40.037,42 40.019,42 40,42" id="Fill-20" sketch:type="MSShapeGroup"/>
            <path d="M24,52.234 L5.065,38.559 L0.894,7.265 L24,0.964 L47.121,7.269 L43.989,28.148 L42.011,27.852 L44.879,8.731 L24,3.036 L3.106,8.735 L6.935,37.441 L24,49.766 L31.722,44.189 L32.894,45.811 L24,52.234" id="Fill-21" sketch:type="MSShapeGroup"/>
            <path d="M24,46.12 L9.557,35.689 L6.384,11.882 L24,7.077 L41.631,11.886 L39.248,27.774 L37.269,27.477 L39.389,13.347 L24,9.15 L8.597,13.351 L11.426,34.571 L24,43.653 L29.648,39.573 L30.82,41.194 L24,46.12" id="Fill-22" sketch:type="MSShapeGroup"/>
        </g>
    </g>
</symbol><symbol id="svg-ic_medicare-billing-compliance-manual" viewBox="0 0 60 60">
            <path d="M42.252,60 L3.748,60 C1.682,60 0,58.319 0,56.252 L0,3.748 C0,1.681 1.682,0 3.748,0 L42.252,0 C44.318,0 46,1.681 46,3.748 L46,56.252 C46,58.319 44.318,60 42.252,60 L42.252,60 Z M3.748,2 C2.784,2 2,2.784 2,3.748 L2,56.252 C2,57.216 2.784,58 3.748,58 L42.252,58 C43.216,58 44,57.216 44,56.252 L44,3.748 C44,2.784 43.216,2 42.252,2 L3.748,2 L3.748,2 Z"/>
            <path d="M37,27 L9,27 C8.447,27 8,26.552 8,26 C8,25.448 8.447,25 9,25 L37,25 C37.553,25 38,25.448 38,26 C38,26.552 37.553,27 37,27"/>
            <path d="M37,21 L9,21 C8.447,21 8,20.552 8,20 C8,19.448 8.447,19 9,19 L37,19 C37.553,19 38,19.448 38,20 C38,20.552 37.553,21 37,21"/>
            <path d="M37,15 L9,15 C8.447,15 8,14.552 8,14 C8,13.448 8.447,13 9,13 L37,13 C37.553,13 38,13.448 38,14 C38,14.552 37.553,15 37,15"/>
            <path d="M28,9 L18,9 C17.447,9 17,8.552 17,8 C17,7.448 17.447,7 18,7 L28,7 C28.553,7 29,7.448 29,8 C29,8.552 28.553,9 28,9"/>
            <path d="M28,55 L18,55 L18,48 L11,48 L11,38 L18,38 L18,31 L28,31 L28,38 L35,38 L35,48 L28,48 L28,55 L28,55 Z M20,53 L26,53 L26,46 L33,46 L33,40 L26,40 L26,33 L20,33 L20,40 L13,40 L13,46 L20,46 L20,53 L20,53 Z"/>
</symbol><symbol id="svg-ic_minute-for-medicine-videos" viewBox="0 0 54 38">
<style type="text/css">
<![CDATA[
	.st0{fill-rule:evenodd;clip-rule:evenodd;}
]]>
</style>
<g>
	<g>
		<path d="M51,0H3C1.3,0,0,1.3,0,3v32c0,1.7,1.3,3,3,3h48c1.7,0,3-1.3,3-3V3C54,1.3,52.7,0,51,0z M5,36H3c-0.6,0-1-0.4-1-1v-1h3V36z
			 M5,32H2v-2h3V32z M5,28H2v-2h3V28z M5,24H2v-2h3V24z M5,20H2v-2h3V20z M5,16H2v-2h3V16z M5,12H2v-2h3V12z M5,8H2V6h3V8z M5,4H2V3
			c0-0.6,0.4-1,1-1h2V4z M47,36H7V2h40V36z M52,35c0,0.6-0.4,1-1,1h-2v-2h3V35z M52,32h-3v-2h3V32z M52,28h-3v-2h3V28z M52,24h-3v-2
			h3V24z M52,20h-3v-2h3V20z M52,16h-3v-2h3V16z M52,12h-3v-2h3V12z M52,8h-3V6h3V8z M52,4h-3V2h2c0.6,0,1,0.4,1,1V4z M38,18.5L20,8
			l0,21L38,18.5z M34,18.5l-12,7l0-14L34,18.5z"/>
	</g>
</g>
</symbol><symbol id="svg-ic_minute-for-medicine" viewBox="0 0 44 44">
<style type="text/css">
<![CDATA[
	.st0{fill-rule:evenodd;clip-rule:evenodd;}
]]>
</style>
<g>
	<g>
		<path class="st0" d="M24,0.1L24,0.1L22,0v9h2V2.1c10.1,1,18,9.5,18,19.9c0,11-9,20-20,20S2,33,2,22c0-5.5,2.2-10.5,5.9-14.1
			L6.4,6.4C2.5,10.4,0,15.9,0,22c0,12.2,9.8,22,22,22s22-9.8,22-22C44,10.5,35.2,1.1,24,0.1z M23.7,25.7c1.2-0.7,1.6-2.1,0.9-3.3
			c-0.1-0.2-0.3-0.4-0.5-0.6L15,11l5.1,13.1c0.1,0.2,0.1,0.5,0.3,0.7C21,25.9,22.6,26.3,23.7,25.7z"/>
	</g>
</g>
</symbol><symbol id="svg-ic_multilingual-resources" viewBox="0 0 54 49.2">
<g>
	<g>
		<path d="M33,16V0H0v27h13l3.5,6.2L20,27h1v16h13l3.5,6.2L41,43h13V16H33z M21,25h-2l-2.5,4.2L14,25H2V2h29v14H21V25z M52,41H40
			l-2.5,4.2L35,41H23V18h29V41z"/>
	</g>
</g>
</symbol><symbol id="svg-ic_ob-risk-solutions" viewBox="0 0 43.6 43.4">
<style type="text/css">
<![CDATA[
	.st0{fill:#202020;}
]]>
</style>
<g>
	<g>
		<path class="st0" d="M38.4,5.3C35,1.9,30.4,0,25.6,0c-4.8,0-9.3,1.9-12.7,5.3C9.5,8.7,7.6,13.2,7.6,18c0,4.4,1.6,8.6,4.5,11.9
			l-5.8,5.8l-5-5L0,32.1l5,5l-4.2,4.2l1.4,1.4l4.2-4.2l5,5l1.4-1.4l-4.9-5l5.8-5.8c3.3,3,7.6,4.7,12.1,4.7c4.8,0,9.3-1.9,12.7-5.3
			c3.4-3.4,5.3-7.9,5.3-12.7S41.8,8.7,38.4,5.3z M36.9,29.3c-3,3-7,4.7-11.3,4.7c-4.3,0-8.3-1.7-11.3-4.7c-3-3-4.7-7-4.7-11.3
			s1.7-8.3,4.7-11.3c3-3,7-4.7,11.3-4.7c4.3,0,8.3,1.7,11.3,4.7c3,3,4.7,7,4.7,11.3S40,26.3,36.9,29.3z"/>
	</g>
</g>
</symbol><symbol id="svg-ic_on-demand-webinar" viewBox="0 0 54 38">
<style type="text/css">
<![CDATA[
	.st0{fill-rule:evenodd;clip-rule:evenodd;}
]]>
</style>
<g>
	<g>
		<path d="M51,0H3C1.3,0,0,1.3,0,3v32c0,1.7,1.3,3,3,3h48c1.7,0,3-1.3,3-3V3C54,1.3,52.7,0,51,0z M5,36H3c-0.6,0-1-0.4-1-1v-1h3V36z
			 M5,32H2v-2h3V32z M5,28H2v-2h3V28z M5,24H2v-2h3V24z M5,20H2v-2h3V20z M5,16H2v-2h3V16z M5,12H2v-2h3V12z M5,8H2V6h3V8z M5,4H2V3
			c0-0.6,0.4-1,1-1h2V4z M47,36H7V2h40V36z M52,35c0,0.6-0.4,1-1,1h-2v-2h3V35z M52,32h-3v-2h3V32z M52,28h-3v-2h3V28z M52,24h-3v-2
			h3V24z M52,20h-3v-2h3V20z M52,16h-3v-2h3V16z M52,12h-3v-2h3V12z M52,8h-3V6h3V8z M52,4h-3V2h2c0.6,0,1,0.4,1,1V4z M38,18.5L20,8
			l0,21L38,18.5z M34,18.5l-12,7l0-14L34,18.5z"/>
	</g>
</g>
</symbol><symbol id="svg-ic_on-demand-webinars" viewBox="0 0 54 38">
<style type="text/css">
<![CDATA[
	.st0{fill-rule:evenodd;clip-rule:evenodd;}
]]>
</style>
<g>
	<g>
		<path d="M51,0H3C1.3,0,0,1.3,0,3v32c0,1.7,1.3,3,3,3h48c1.7,0,3-1.3,3-3V3C54,1.3,52.7,0,51,0z M5,36H3c-0.6,0-1-0.4-1-1v-1h3V36z
			 M5,32H2v-2h3V32z M5,28H2v-2h3V28z M5,24H2v-2h3V24z M5,20H2v-2h3V20z M5,16H2v-2h3V16z M5,12H2v-2h3V12z M5,8H2V6h3V8z M5,4H2V3
			c0-0.6,0.4-1,1-1h2V4z M47,36H7V2h40V36z M52,35c0,0.6-0.4,1-1,1h-2v-2h3V35z M52,32h-3v-2h3V32z M52,28h-3v-2h3V28z M52,24h-3v-2
			h3V24z M52,20h-3v-2h3V20z M52,16h-3v-2h3V16z M52,12h-3v-2h3V12z M52,8h-3V6h3V8z M52,4h-3V2h2c0.6,0,1,0.4,1,1V4z M38,18.5L20,8
			l0,21L38,18.5z M34,18.5l-12,7l0-14L34,18.5z"/>
	</g>
</g>
</symbol><symbol id="svg-ic_open_in_new_white_48px" viewBox="0 0 24 24">
    <path d="M0 0h24v24H0z" fill="none"/>
    <path d="M19 19H5V5h7V3H5c-1.11 0-2 .9-2 2v14c0 1.1.89 2 2 2h14c1.1 0 2-.9 2-2v-7h-2v7zM14 3v2h3.59l-9.83 9.83 1.41 1.41L19 6.41V10h2V3h-7z"/>
</symbol><symbol id="svg-ic_open_orange" viewBox="0 0 24 24">
    <path d="M0 0h24v24H0z" fill="none"/>
    <path d="M19 19H5V5h7V3H5c-1.11 0-2 .9-2 2v14c0 1.1.89 2 2 2h14c1.1 0 2-.9 2-2v-7h-2v7zM14 3v2h3.59l-9.83 9.83 1.41 1.41L19 6.41V10h2V3h-7z"/>
</symbol><symbol id="svg-ic_patient-centered-care" viewBox="0 0 43 53">
<g>
	<g>
		<path d="M42.8,47.4c0-0.6,0-1.1,0-1.2C42.8,39.9,38,33,31.2,33h-2.4c4.2-2.5,7.1-7.2,7.1-12.5v-6c0,0,0,0,0,0c0,0,0,0,0,0
			c0,0,0,0,0,0c0-8-6.5-14.4-14.4-14.4C13.6,0,7.1,6.5,7.1,14.5v6c0,5.3,2.9,10,7.1,12.5h-2.4C5,33,0.2,39.9,0.2,46.2
			c0,0.1,0,0.6,0,1.2c-0.1,2-0.2,4-0.2,4.7l0,1h43l0-1C43,51.3,42.9,49.3,42.8,47.4z M21.5,2C28,2,33.3,7,33.8,13.4
			c-6.2-0.4-8.7-3.9-8.8-4.1l-0.6-0.8l-0.8,0.6c-6.7,4.9-12.5,5.3-14.5,5.3C9.2,7.6,14.7,2,21.5,2z M9.1,20.5v-4.1
			c0.1,0,0.1,0,0.2,0c2.4,0,8.1-0.6,14.7-5.1c1.2,1.3,4.3,3.9,9.8,4.2v5.1c0,6.9-5.6,12.5-12.4,12.5S9.1,27.4,9.1,20.5z M20,51H2
			c0-1,0.1-2.5,0.1-3.6c0-0.7,0.1-1.2,0.1-1.3c0-5.3,4-11.1,9.6-11.1h1.7c0.1,0.1,0.1,0.1,0.2,0.2l6.3,3.6V51z M21,37
			C21,37,20.9,37,21,37l-3.6-2h7.4l-3.6,2C21.2,37,21.1,37,21,37z M22,51V38.9l6.5-3.7c0.1-0.1,0.2-0.1,0.2-0.2h2.5
			c5.7,0,9.6,5.9,9.6,11.2c0,0.1,0,0.6,0.1,1.3c0,1,0.1,2.5,0.1,3.6H22z M16.5,18.6c-1,0-1.9,0.9-1.9,1.9c0,1.1,0.9,1.9,1.9,1.9
			s1.9-0.9,1.9-1.9C18.4,19.4,17.6,18.6,16.5,18.6z M26.4,22.4c1,0,1.9-0.9,1.9-1.9c0-1.1-0.9-1.9-1.9-1.9s-1.9,0.9-1.9,1.9
			C24.6,21.6,25.4,22.4,26.4,22.4z M23.9,27.1c-0.4-0.4-1-0.4-1.4,0c-0.4,0.4-0.8,0.6-1.2,0.6c-0.6,0-1-0.5-1-0.5
			c-0.4-0.4-1-0.5-1.4-0.1c-0.4,0.4-0.5,1-0.1,1.4c0.1,0.1,1,1.2,2.4,1.2c0,0,0.1,0,0.1,0c0.7,0,1.6-0.2,2.5-1.2
			C24.3,28.2,24.3,27.5,23.9,27.1z M36.8,44h-9.9c-0.5,0-1,0.4-1,1c0,0.6,0.4,1,1,1h9.9c0.5,0,1-0.4,1-1C37.8,44.4,37.4,44,36.8,44z
			"/>
	</g>
</g>
</symbol><symbol id="svg-ic_pdf-icon-blue" viewBox="0 0 39 52">
<style type="text/css">
<![CDATA[
	.st0{fill-rule:evenodd;clip-rule:evenodd;}
]]>
</style>
<g>
	<g>
		<path d="M39,15c0-0.3-0.1-0.5-0.3-0.7l-14-14C24.5,0.1,24.2,0,24,0H3C1.3,0,0,1.3,0,3v46c0,1.7,1.3,3,3,3h33c1.7,0,3-1.3,3-3
			L39,15L39,15z M25,3.4L35.6,14H25V3.4z M37,49c0,0.6-0.4,1-1,1H3c-0.6,0-1-0.4-1-1V3c0-0.6,0.4-1,1-1h20v13c0,0.6,0.4,1,1,1h13V49
			z M19.2,14.7c-0.4-0.5-0.9-0.7-1.4-0.7c-0.2,0-0.5,0-0.7,0.1c-0.6,0.2-1.1,0.7-1.4,1.3c-0.8,1.9,0.3,5.1,1.4,7.6
			c-1,3.9-2.6,8.5-4.3,12.3c-4.3,2-6.5,3.9-6.7,5.8c-0.1,0.7,0.1,1.7,1.3,2.6C7.6,43.9,8,44,8.4,44c1,0,2-0.8,3.1-2.4
			c0.8-1.2,1.7-2.8,2.7-4.8c3-1.3,6.8-2.5,9.9-3.2c1.8,1.7,3.4,2.6,4.7,2.6c1,0,1.9-0.5,2.5-1.4c0.7-0.9,0.8-1.8,0.4-2.5
			c-0.4-0.9-1.5-1.3-3.3-1.3c-1,0-2.3,0.1-3.8,0.4c-2.1-2.2-4.2-5.4-5.7-8.6C20.5,16.4,19.5,15.1,19.2,14.7z M8.4,42.1
			c-0.5-0.4-0.5-0.7-0.5-0.8c0.1-0.6,1.1-1.8,3.5-3.1C9.5,41.6,8.5,42,8.4,42.1z M28.5,33c1,0,1.4,0.2,1.5,0.2
			c0,0.1-0.1,0.2-0.3,0.5c-0.3,0.5-0.7,0.6-1,0.6c-0.6,0-1.4-0.4-2.3-1.1C27.3,33,28,33,28.5,33z M17.3,16.2
			c0.1-0.2,0.2-0.2,0.3-0.3c0,0,0.1,0,0.1,0c0.2,0.3,0.4,1.3,0,3.7C17.3,18.2,17.1,16.9,17.3,16.2z M22.6,31.9
			c-2.4,0.6-5,1.4-7.3,2.3c1.1-2.8,2.2-5.8,3-8.6C19.6,27.9,21.1,30.1,22.6,31.9z"/>
	</g>
</g>
</symbol><symbol id="svg-ic_pdf-icon-orange" viewBox="0 0 39 52">
<style type="text/css">
<![CDATA[
	.st0{fill-rule:evenodd;clip-rule:evenodd;}
]]>
</style>
<g>
	<g>
		<path d="M39,15c0-0.3-0.1-0.5-0.3-0.7l-14-14C24.5,0.1,24.2,0,24,0H3C1.3,0,0,1.3,0,3v46c0,1.7,1.3,3,3,3h33c1.7,0,3-1.3,3-3
			L39,15L39,15z M25,3.4L35.6,14H25V3.4z M37,49c0,0.6-0.4,1-1,1H3c-0.6,0-1-0.4-1-1V3c0-0.6,0.4-1,1-1h20v13c0,0.6,0.4,1,1,1h13V49
			z M19.2,14.7c-0.4-0.5-0.9-0.7-1.4-0.7c-0.2,0-0.5,0-0.7,0.1c-0.6,0.2-1.1,0.7-1.4,1.3c-0.8,1.9,0.3,5.1,1.4,7.6
			c-1,3.9-2.6,8.5-4.3,12.3c-4.3,2-6.5,3.9-6.7,5.8c-0.1,0.7,0.1,1.7,1.3,2.6C7.6,43.9,8,44,8.4,44c1,0,2-0.8,3.1-2.4
			c0.8-1.2,1.7-2.8,2.7-4.8c3-1.3,6.8-2.5,9.9-3.2c1.8,1.7,3.4,2.6,4.7,2.6c1,0,1.9-0.5,2.5-1.4c0.7-0.9,0.8-1.8,0.4-2.5
			c-0.4-0.9-1.5-1.3-3.3-1.3c-1,0-2.3,0.1-3.8,0.4c-2.1-2.2-4.2-5.4-5.7-8.6C20.5,16.4,19.5,15.1,19.2,14.7z M8.4,42.1
			c-0.5-0.4-0.5-0.7-0.5-0.8c0.1-0.6,1.1-1.8,3.5-3.1C9.5,41.6,8.5,42,8.4,42.1z M28.5,33c1,0,1.4,0.2,1.5,0.2
			c0,0.1-0.1,0.2-0.3,0.5c-0.3,0.5-0.7,0.6-1,0.6c-0.6,0-1.4-0.4-2.3-1.1C27.3,33,28,33,28.5,33z M17.3,16.2
			c0.1-0.2,0.2-0.2,0.3-0.3c0,0,0.1,0,0.1,0c0.2,0.3,0.4,1.3,0,3.7C17.3,18.2,17.1,16.9,17.3,16.2z M22.6,31.9
			c-2.4,0.6-5,1.4-7.3,2.3c1.1-2.8,2.2-5.8,3-8.6C19.6,27.9,21.1,30.1,22.6,31.9z"/>
	</g>
</g>
</symbol><symbol id="svg-ic_pdf-icon" viewBox="0 0 39 52">
<style type="text/css">
<![CDATA[
	.st0{fill-rule:evenodd;clip-rule:evenodd;}
]]>
</style>
<g>
	<g>
		<path d="M39,15c0-0.3-0.1-0.5-0.3-0.7l-14-14C24.5,0.1,24.2,0,24,0H3C1.3,0,0,1.3,0,3v46c0,1.7,1.3,3,3,3h33c1.7,0,3-1.3,3-3
			L39,15L39,15z M25,3.4L35.6,14H25V3.4z M37,49c0,0.6-0.4,1-1,1H3c-0.6,0-1-0.4-1-1V3c0-0.6,0.4-1,1-1h20v13c0,0.6,0.4,1,1,1h13V49
			z M19.2,14.7c-0.4-0.5-0.9-0.7-1.4-0.7c-0.2,0-0.5,0-0.7,0.1c-0.6,0.2-1.1,0.7-1.4,1.3c-0.8,1.9,0.3,5.1,1.4,7.6
			c-1,3.9-2.6,8.5-4.3,12.3c-4.3,2-6.5,3.9-6.7,5.8c-0.1,0.7,0.1,1.7,1.3,2.6C7.6,43.9,8,44,8.4,44c1,0,2-0.8,3.1-2.4
			c0.8-1.2,1.7-2.8,2.7-4.8c3-1.3,6.8-2.5,9.9-3.2c1.8,1.7,3.4,2.6,4.7,2.6c1,0,1.9-0.5,2.5-1.4c0.7-0.9,0.8-1.8,0.4-2.5
			c-0.4-0.9-1.5-1.3-3.3-1.3c-1,0-2.3,0.1-3.8,0.4c-2.1-2.2-4.2-5.4-5.7-8.6C20.5,16.4,19.5,15.1,19.2,14.7z M8.4,42.1
			c-0.5-0.4-0.5-0.7-0.5-0.8c0.1-0.6,1.1-1.8,3.5-3.1C9.5,41.6,8.5,42,8.4,42.1z M28.5,33c1,0,1.4,0.2,1.5,0.2
			c0,0.1-0.1,0.2-0.3,0.5c-0.3,0.5-0.7,0.6-1,0.6c-0.6,0-1.4-0.4-2.3-1.1C27.3,33,28,33,28.5,33z M17.3,16.2
			c0.1-0.2,0.2-0.2,0.3-0.3c0,0,0.1,0,0.1,0c0.2,0.3,0.4,1.3,0,3.7C17.3,18.2,17.1,16.9,17.3,16.2z M22.6,31.9
			c-2.4,0.6-5,1.4-7.3,2.3c1.1-2.8,2.2-5.8,3-8.6C19.6,27.9,21.1,30.1,22.6,31.9z"/>
	</g>
</g>
</symbol><symbol id="svg-ic_pediatric-solutions" viewBox="0 0 54 54">
<metadata>
	<sfw xmlns="&amp;ns_sfw;">
		<slices/>
		<sliceSourceBounds bottomLeftOrigin="true" width="1050" height="325.001" x="53" y="-562.001"/>
	</sfw>
</metadata>
<g>
	<g>
		<path d="M27,0C12.112,0,0,12.112,0,27s12.112,27,27,27s27-12.112,27-27S41.888,0,27,0z M27,52C13.215,52,2,40.785,2,27
			S13.215,2,27,2s25,11.215,25,25S40.785,52,27,52z M22,26h2c0-2.757-2.243-5-5-5s-5,2.243-5,5h2c0-1.654,1.346-3,3-3
			S22,24.346,22,26z M35,21c-2.757,0-5,2.243-5,5h2c0-1.654,1.346-3,3-3s3,1.346,3,3h2C40,23.243,37.757,21,35,21z M27,31
			c-4.963,0-9,4.037-9,9s4.037,9,9,9s9-4.037,9-9S31.963,31,27,31z M27,47c-3.859,0-7-3.141-7-7s3.141-7,7-7s7,3.141,7,7
			S30.859,47,27,47z M27,36c-2.209,0-4,1.791-4,4s1.791,4,4,4s4-1.791,4-4S29.209,36,27,36z"/>
	</g>
</g>
</symbol><symbol id="svg-ic_preventing-diagnostic-error" viewBox="0 0 60 38">
    <!-- Generator: Sketch 3.3.2 (12043) - http://www.bohemiancoding.com/sketch -->
    <title>medical-new-10</title>
    <desc>Created with Sketch.</desc>
    
    <g id="Page-1" stroke="none" stroke-width="1">
        <g id="medical-new-10">
            <path d="M29.125,37.485 C29.048,37.485 28.969,37.476 28.891,37.457 C28.354,37.328 28.022,36.789 28.151,36.252 L28.555,34.569 C28.03,34.638 27.531,34.273 27.443,33.741 L26.785,29.796 C26.694,29.251 27.063,28.736 27.607,28.645 C28.152,28.554 28.667,28.922 28.758,29.467 L29.195,32.087 C29.411,31.718 29.854,31.517 30.29,31.623 C30.827,31.752 31.158,32.291 31.029,32.828 L30.097,36.718 C29.986,37.177 29.577,37.485 29.125,37.485 L29.125,37.485 Z M30.991,29.706 C30.914,29.706 30.835,29.697 30.757,29.678 C30.22,29.549 29.889,29.009 30.018,28.472 L30.951,24.583 C31.08,24.046 31.62,23.715 32.157,23.844 C32.694,23.973 33.025,24.513 32.896,25.05 L31.963,28.939 C31.853,29.398 31.442,29.706 30.991,29.706 L30.991,29.706 Z M39,29 C38.97,29 38.939,28.999 38.909,28.996 C38.485,28.957 38.133,28.655 38.03,28.242 L37.625,26.62 C37.49,26.084 37.816,25.541 38.353,25.407 C38.593,25.347 38.838,25.38 39.045,25.484 L39.053,25.467 C39.28,24.966 39.87,24.741 40.377,24.971 C40.88,25.199 41.102,25.792 40.873,26.295 L39.91,28.414 C39.747,28.773 39.39,29 39,29 L39,29 Z M27.113,26.686 C26.633,26.686 26.209,26.339 26.128,25.85 L25.471,21.904 C25.38,21.36 25.748,20.845 26.293,20.754 C26.839,20.663 27.353,21.031 27.443,21.576 L28.101,25.521 C28.191,26.066 27.823,26.581 27.278,26.672 C27.223,26.682 27.168,26.686 27.113,26.686 L27.113,26.686 Z M37.623,23.497 C37.175,23.497 36.768,23.194 36.654,22.739 L35.685,18.859 C35.55,18.323 35.876,17.78 36.412,17.646 C36.946,17.512 37.49,17.838 37.624,18.374 L38.594,22.254 C38.729,22.79 38.402,23.333 37.866,23.467 C37.785,23.487 37.703,23.497 37.623,23.497 L37.623,23.497 Z M41.617,23.24 C41.479,23.24 41.339,23.211 41.204,23.15 C40.701,22.921 40.479,22.329 40.708,21.826 L42.363,18.184 C42.591,17.683 43.18,17.458 43.688,17.688 C44.19,17.916 44.412,18.509 44.184,19.012 L42.528,22.654 C42.361,23.022 41.998,23.24 41.617,23.24 L41.617,23.24 Z M32.858,21.927 C32.781,21.927 32.702,21.918 32.624,21.899 C32.087,21.77 31.756,21.23 31.885,20.693 L32.818,16.804 C32.947,16.267 33.489,15.935 34.024,16.065 C34.562,16.194 34.893,16.733 34.764,17.27 L33.83,21.16 C33.72,21.619 33.31,21.927 32.858,21.927 L32.858,21.927 Z M17,20 C16.896,20 16.789,19.984 16.684,19.949 C16.16,19.774 15.877,19.208 16.052,18.684 L17.316,14.889 C17.491,14.365 18.052,14.082 18.581,14.257 C19.104,14.431 19.388,14.997 19.213,15.521 L17.948,19.316 C17.809,19.735 17.419,20 17,20 L17,20 Z M13,20 L9,20 C8.447,20 8,19.552 8,19 C8,18.448 8.447,18 9,18 L13,18 C13.553,18 14,18.448 14,19 C14,19.552 13.553,20 13,20 L13,20 Z M5,20 L1,20 C0.447,20 0,19.552 0,19 C0,18.448 0.447,18 1,18 L5,18 C5.553,18 6,18.448 6,19 C6,19.552 5.553,20 5,20 L5,20 Z M25.798,18.795 C25.317,18.795 24.894,18.448 24.812,17.959 L24.155,14.013 C24.064,13.469 24.433,12.953 24.977,12.863 C25.524,12.772 26.038,13.14 26.128,13.685 L26.785,17.63 C26.876,18.175 26.508,18.69 25.963,18.781 C25.907,18.79 25.853,18.795 25.798,18.795 L25.798,18.795 Z M58.244,18 L54.244,18 C53.691,18 53.244,17.552 53.244,17 C53.244,16.448 53.691,16 54.244,16 L58.244,16 C58.797,16 59.244,16.448 59.244,17 C59.244,17.552 58.797,18 58.244,18 L58.244,18 Z M50.244,18 L46.244,18 C45.691,18 45.244,17.552 45.244,17 C45.244,16.448 45.691,16 46.244,16 L50.244,16 C50.797,16 51.244,16.448 51.244,17 C51.244,17.552 50.797,18 50.244,18 L50.244,18 Z M35.683,15.736 C35.234,15.736 34.827,15.432 34.714,14.978 L34.499,14.122 C34.497,14.121 34.494,14.121 34.491,14.12 C33.954,13.991 33.623,13.451 33.752,12.914 L34.027,11.767 C34.135,11.319 34.535,11.002 34.995,11 C35.438,11.001 35.858,11.31 35.97,11.758 L36.653,14.493 C36.788,15.029 36.462,15.572 35.926,15.706 C35.845,15.726 35.763,15.736 35.683,15.736 L35.683,15.736 Z M19.53,12.411 C19.426,12.411 19.319,12.394 19.214,12.359 C18.69,12.184 18.407,11.618 18.582,11.094 L19.847,7.3 C20.021,6.776 20.583,6.492 21.111,6.667 C21.635,6.842 21.918,7.408 21.743,7.932 L20.479,11.727 C20.339,12.146 19.949,12.411 19.53,12.411 L19.53,12.411 Z M24.483,10.904 C24.003,10.904 23.579,10.557 23.498,10.068 L22.84,6.122 C22.749,5.578 23.117,5.062 23.662,4.972 C24.206,4.88 24.723,5.249 24.812,5.793 L25.471,9.739 C25.562,10.284 25.193,10.799 24.648,10.89 C24.593,10.899 24.538,10.904 24.483,10.904 L24.483,10.904 Z M22.06,4.821 C21.955,4.821 21.849,4.805 21.743,4.77 C21.22,4.595 20.937,4.029 21.111,3.505 L22.052,0.684 C22.197,0.248 22.626,-0.031 23.078,0.003 C23.536,0.039 23.911,0.382 23.986,0.835 L24.155,1.848 C24.243,2.373 23.904,2.871 23.392,2.987 L23.008,4.137 C22.868,4.556 22.478,4.821 22.06,4.821 L22.06,4.821 Z" id="Fill-57" sketch:type="MSShapeGroup"/>
        </g>
    </g>
</symbol><symbol id="svg-ic_preventing-health-care-workplace-violence" viewBox="0 0 52 52">
<style type="text/css">
<![CDATA[
	.st0{fill-rule:evenodd;clip-rule:evenodd;}
]]>
</style>
<g>
	<g>
		<path d="M26,0C11.7,0,0,11.7,0,26c0,14.3,11.7,26,26,26c14.3,0,26-11.7,26-26C52,11.7,40.3,0,26,0z M2,26C2,12.8,12.8,2,26,2
			c6.3,0,12,2.4,16.2,6.3L8.3,42.2C4.4,38,2,32.3,2,26z M26,50c-6.3,0-12-2.4-16.2-6.3L43.7,9.8C47.6,14,50,19.7,50,26
			C50,39.2,39.2,50,26,50z"/>
	</g>
</g>
</symbol><symbol id="svg-ic_risk-management-handbook" viewBox="0 0 53 57">
    <g stroke="none" stroke-width="1" fill="none" fill-rule="evenodd" sketch:type="MSPage">
        <g id="medical-new-34" fill="#266294">
            <path d="M25,45 L15,45 L15,38 L8,38 L8,28 L15,28 L15,21 L25,21 L25,28 L32,28 L32,38 L25,38 L25,45 L25,45 Z M17,43 L23,43 L23,36 L30,36 L30,30 L23,30 L23,23 L17,23 L17,30 L10,30 L10,36 L17,36 L17,43 L17,43 Z" id="Fill-193" sketch:type="MSShapeGroup"/>
            <path d="M15,8 L4,8 C1.794,8 0,6.205 0,4 C0,1.794 1.794,0 4,0 L40,0 L40,2 L4,2 C2.897,2 2,2.897 2,4 C2,5.103 2.897,6 4,6 L15,6 L15,8" id="Fill-194" sketch:type="MSShapeGroup"/>
            <path d="M37.212,57 L2.788,57 C1.251,57 0,55.749 0,54.212 L0,4 L1.89,4 L2.127,4.663 C2.413,5.463 3.166,6 4,6 L40,6 L40,54.212 C40,55.749 38.749,57 37.212,57 L37.212,57 Z M2,7.455 L2,54.212 C2,54.646 2.354,55 2.788,55 L37.212,55 C37.646,55 38,54.646 38,54.212 L38,8 L4,8 C3.282,8 2.596,7.804 2,7.455 L2,7.455 Z" id="Fill-195" sketch:type="MSShapeGroup"/>
            <path d="M4,3 L40,3 L40,5 L4,5 L4,3 Z" id="Fill-196" sketch:type="MSShapeGroup"/>
        </g>
    </g>
</symbol><symbol id="svg-ic_risklutions" viewBox="0 0 50 56">
    <!-- Generator: Sketch 3.3.2 (12043) - http://www.bohemiancoding.com/sketch -->
    <title>medical-new-39</title>
    <desc>Created with Sketch.</desc>
    
    <g id="Page-1" stroke="none" stroke-width="1" fill="none" fill-rule="evenodd" sketch:type="MSPage">
        <g id="medical-new-39" sketch:type="MSLayerGroup" transform="translate(0.000000, -1.000000)" fill="#266294">
            <path d="M27.75,42 L22.25,42 C21.009,42 20,40.991 20,39.75 L20,31.25 C20,31.112 19.888,31 19.75,31 L11.25,31 C10.009,31 9,29.991 9,28.75 L9,23.25 C9,22.009 10.009,21 11.25,21 L19.75,21 C19.888,21 20,20.888 20,20.75 L20,12.25 C20,11.009 21.009,10 22.25,10 L27.75,10 C28.991,10 30,11.009 30,12.25 L30,20.75 C30,20.888 30.112,21 30.25,21 L38.75,21 C39.991,21 41,22.009 41,23.25 L41,28.75 C41,29.991 39.991,31 38.75,31 L30.25,31 C30.112,31 30,31.112 30,31.25 L30,39.75 C30,40.991 28.991,42 27.75,42 L27.75,42 Z M11.25,23 C11.112,23 11,23.112 11,23.25 L11,28.75 C11,28.888 11.112,29 11.25,29 L19.75,29 C20.991,29 22,30.009 22,31.25 L22,39.75 C22,39.888 22.112,40 22.25,40 L27.75,40 C27.888,40 28,39.888 28,39.75 L28,31.25 C28,30.009 29.009,29 30.25,29 L38.75,29 C38.888,29 39,28.888 39,28.75 L39,23.25 C39,23.112 38.888,23 38.75,23 L30.25,23 C29.009,23 28,21.991 28,20.75 L28,12.25 C28,12.112 27.888,12 27.75,12 L22.25,12 C22.112,12 22,12.112 22,12.25 L22,20.75 C22,21.991 20.991,23 19.75,23 L11.25,23 L11.25,23 Z" id="Fill-222" sketch:type="MSShapeGroup"/>
            <path d="M25,56.242 L18.26,51.276 C9.758,45.011 4.178,35.815 2.547,25.38 L0.456,11.996 C0.125,9.881 1.426,7.834 3.481,7.235 L25,0.958 L46.519,7.235 C48.574,7.834 49.874,9.881 49.544,11.996 L47.453,25.38 C45.822,35.815 40.242,45.011 31.74,51.276 L25,56.242 L25,56.242 Z M25,3.042 L4.041,9.154 C2.948,9.474 2.256,10.562 2.432,11.688 L4.523,25.071 C6.072,34.982 11.372,43.716 19.446,49.665 L25,53.758 L30.554,49.665 C38.628,43.716 43.928,34.982 45.477,25.071 L47.568,11.688 C47.744,10.562 47.052,9.474 45.958,9.154 L25,3.042 L25,3.042 Z" id="Fill-223" sketch:type="MSShapeGroup"/>
        </g>
    </g>
</symbol><symbol id="svg-ic_sample-policies" viewBox="0 0 49 44">
<style type="text/css">
<![CDATA[
	.st0{fill-rule:evenodd;clip-rule:evenodd;}
]]>
</style>
<g>
	<g>
		<path d="M46,10V0H29v6H4v4H0v34h49V10H46z M6,8h25V2h13v8H6V8z M47,42H5.9L47,24.5V42z M21,33.4V18h18v7.7L21,33.4z M47,22.3
			l-6,2.6V16H19v18.2L2,41.5V12h45V22.3z M24,22h9v-2h-9V22z M24,26h9v-2h-9V26z"/>
	</g>
</g>
</symbol><symbol id="svg-ic_search" viewBox="0 0 50 51">
<style type="text/css">
<![CDATA[
	.st0{fill-rule:evenodd;clip-rule:evenodd;}
]]>
</style>
<g>
	<g>
		<path class="st0" d="M35,6C27-2,14-2,6,6c-8,8-8,21,0,29c8,8,21,8,29,0C43,27,43,14,35,6z M33.6,33.6c-7.2,7.2-18.9,7.2-26.2,0
			c-7.2-7.2-7.2-18.9,0-26.2c7.2-7.2,18.9-7.2,26.2,0C40.8,14.6,40.8,26.4,33.6,33.6z M38,37l-2,2l12,12l2-2L38,37z"/>
	</g>
</g>
</symbol><symbol id="svg-ic_self-assessment" viewBox="0 0 51 50">
<style type="text/css">
<![CDATA[
	.st0{fill-rule:evenodd;clip-rule:evenodd;}
]]>
</style>
<g>
	<g>
		<path d="M0,0v50h51V0H0z M49,48H2V2h47V48z M7.7,42l2.6-1.4l2.6,1.4l-0.5-2.9l2.1-2l-2.9-0.4L10.3,34L9,36.6l-2.9,0.4l2.1,2
			L7.7,42z M18,40h25c0.6,0,1-0.4,1-1c0-0.6-0.4-1-1-1H18c-0.6,0-1,0.4-1,1C17,39.6,17.4,40,18,40z M7.7,29l2.6-1.4l2.6,1.4
			l-0.5-2.9l2.1-2l-2.9-0.4L10.3,21L9,23.6l-2.9,0.4l2.1,2L7.7,29z M18,27h25c0.6,0,1-0.4,1-1c0-0.6-0.4-1-1-1H18c-0.6,0-1,0.4-1,1
			C17,26.6,17.4,27,18,27z M7.7,16l2.6-1.4l2.6,1.4l-0.5-2.9l2.1-2l-2.9-0.4L10.3,8L9,10.6l-2.9,0.4l2.1,2L7.7,16z M18,14h25
			c0.6,0,1-0.4,1-1c0-0.6-0.4-1-1-1H18c-0.6,0-1,0.4-1,1C17,13.6,17.4,14,18,14z"/>
	</g>
</g>
</symbol><symbol id="svg-ic_surgery-anesthesia" viewBox="0 0 46 47">
<style type="text/css">
<![CDATA[
	.st0{fill:#202020;}
]]>
</style>
<g>
	<g>
		<path class="st0" d="M46,7.4c0-2-0.8-3.8-2.2-5.2C42.4,0.8,40.5,0,38.5,0c-1.9,0-3.7,0.7-5,2.1l-5.5,5.5l-3.8-3.9
			c-0.4-0.4-1-0.4-1.4,0c-0.4,0.4-0.4,1,0,1.4L26.5,9L5.3,30.3c-2.2,2.2-2.5,5.6-1,8.6L0,43.3L3.7,47l4.4-4.4
			c0.8,0.3,1.6,0.4,2.5,0.4h0c2,0,3.9-0.8,5.3-2.1L37,19.6l3.8,3.9c0.2,0.2,0.5,0.3,0.7,0.3c0.3,0,0.5-0.1,0.7-0.3
			c0.4-0.4,0.4-1,0-1.4l-3.8-3.9l5.5-5.5C45.3,11.3,46,9.4,46,7.4z M14.4,39.4c-1,1-2.4,1.5-3.9,1.5c0,0,0,0,0,0
			c-0.8,0-1.6-0.2-2.3-0.5l-0.6-0.3l-4,4l-0.9-0.9l4-4.1l-0.4-0.7c-1.5-2.4-1.4-5.1,0.3-6.8l4.5-4.5c0,0,0,0,0,0.1l3,3
			c0.2,0.2,0.5,0.3,0.7,0.3s0.5-0.1,0.7-0.3c0.4-0.4,0.4-1,0-1.4l-3-3c0,0,0,0-0.1,0l2.4-2.4c0,0,0,0,0,0.1l3,3
			c0.2,0.2,0.5,0.3,0.7,0.3c0.3,0,0.5-0.1,0.7-0.3c0.4-0.4,0.4-1,0-1.4l-3-3c0,0,0,0-0.1,0l3.2-3.2c0,0,0,0,0,0.1l3,3
			c0.2,0.2,0.5,0.3,0.7,0.3s0.5-0.1,0.7-0.3c0.4-0.4,0.4-1,0-1.4l-3-3c0,0,0,0-0.1,0l2.4-2.4c0,0,0,0,0,0.1l3,3
			c0.2,0.2,0.5,0.3,0.7,0.3s0.5-0.1,0.7-0.3c0.4-0.4,0.4-1,0-1.4l-3-3c0,0,0,0-0.1,0l3.1-3.2l7.7,7.7L14.4,39.4z M37,16.7L29.3,9
			l5.5-5.5c0.9-1,2.2-1.5,3.6-1.5c1.5,0,2.9,0.6,3.9,1.6c1,1,1.6,2.4,1.6,3.8c0,1.5-0.5,2.8-1.5,3.8L37,16.7z"/>
	</g>
</g>
</symbol><symbol id="svg-ic_tools-resources" viewBox="0 0 58 53">
<g>
	<g>
		<path d="M26.9,30.3l2.4-2.4l-4.2-4.2l-2.4,2.4c-1.2-0.7-2.5-1.3-3.8-1.6v-3.3h-6v3.3c-1.4,0.3-2.6,0.8-3.8,1.6l-2.4-2.4l-4.2,4.2
			l2.4,2.4c-0.7,1.2-1.3,2.4-1.6,3.8H0v6h3.3c0.3,1.3,0.8,2.6,1.6,3.8l-2.4,2.4l4.2,4.2l2.4-2.4c1.2,0.7,2.4,1.3,3.8,1.6V53h6v-3.3
			c1.4-0.3,2.6-0.8,3.8-1.6l2.4,2.4l4.2-4.2l-2.4-2.4c0.7-1.2,1.3-2.4,1.6-3.8h3.3v-6h-3.3C28.2,32.8,27.7,31.5,26.9,30.3z
			 M29.9,38.1h-3l-0.1,0.8c-0.3,1.6-0.9,3.2-1.9,4.5l-0.5,0.7l2.1,2.1l-1.4,1.4L23,45.5L22.3,46c-1.4,1-2.9,1.6-4.5,1.9L16.9,48v3
			h-2v-3l-0.8-0.1c-1.6-0.3-3.2-0.9-4.5-1.9l-0.7-0.5l-2.1,2.1l-1.4-1.4l2.1-2.1L7,43.4c-1-1.4-1.6-2.9-1.9-4.5L5,38.1H2v-2h3
			l0.1-0.8C5.4,33.6,6,32.1,7,30.8l0.5-0.7l-2.1-2.1l1.4-1.4l2.1,2.1l0.7-0.5c1.4-1,2.9-1.6,4.5-1.9l0.8-0.1v-3h2v3l0.8,0.1
			c1.6,0.3,3.2,0.9,4.5,1.9l0.7,0.5l2.1-2.1l1.4,1.4l-2.1,2.1l0.5,0.7c1,1.4,1.6,2.9,1.9,4.5l0.1,0.8h3V38.1z M15.9,33.1
			c-2.2,0-4,1.8-4,4s1.8,4,4,4c2.2,0,4-1.8,4-4S18.1,33.1,15.9,33.1z M15.9,39.1c-1.1,0-2-0.9-2-2s0.9-2,2-2c1.1,0,2,0.9,2,2
			S17,39.1,15.9,39.1z M54.8,16.3l3.3-0.8l-1.4-5.8l-3.3,0.8C52.8,9.2,52,8.1,51,7.1l1.8-2.8l-5.1-3.2l-1.8,2.8
			c-1.3-0.4-2.7-0.7-4.1-0.7L41.1,0l-5.8,1.4l0.8,3.3C34.8,5.2,33.7,6,32.7,7l-2.8-1.8l-3.2,5.1l2.8,1.8c-0.4,1.3-0.7,2.7-0.7,4.1
			l-3.3,0.8l1.4,5.8l3.3-0.8c0.6,1.2,1.4,2.4,2.4,3.3l-1.8,2.8l5.1,3.2l1.8-2.8c1.3,0.4,2.7,0.7,4.1,0.7l0.8,3.3l5.8-1.4l-0.8-3.3
			c1.2-0.6,2.4-1.4,3.3-2.4l2.8,1.8l3.2-5.1l-2.8-1.8C54.5,19,54.7,17.6,54.8,16.3z M54.2,22.7l-1.1,1.7l-2.6-1.6L50,23.4
			c-1.1,1.2-2.4,2.2-4,2.8l-0.8,0.3l0.7,2.9L44,30l-0.7-2.9l-0.8,0.1c-1.7,0.1-3.3-0.2-4.8-0.8L36.9,26l-1.6,2.6l-1.7-1.1l1.6-2.6
			l-0.6-0.6c-1.2-1.1-2.2-2.4-2.8-4l-0.3-0.8l-2.9,0.7L28,18.4l2.9-0.7l-0.1-0.8c-0.1-1.7,0.2-3.3,0.8-4.8l0.3-0.8l-2.6-1.6L30.5,8
			l2.6,1.6l0.6-0.6c1.1-1.2,2.4-2.2,4-2.8l0.8-0.3l-0.7-2.9l1.9-0.5l0.7,2.9l0.8-0.1c1.7-0.1,3.3,0.2,4.8,0.8l0.8,0.3l1.6-2.6
			L50,4.9l-1.6,2.6L49.1,8c1.2,1.1,2.2,2.4,2.8,4l0.3,0.8l2.9-0.7l0.5,1.9l-2.9,0.7l0.1,0.8c0.1,1.7-0.2,3.3-0.8,4.8l-0.3,0.8
			L54.2,22.7z M41.8,12.2c-0.3,0-0.6,0-0.9,0.1c-2.1,0.5-3.5,2.6-3,4.8c0.4,1.8,2,3.1,3.9,3.1c0.3,0,0.6,0,0.9-0.1
			c1-0.2,1.9-0.9,2.5-1.8c0.6-0.9,0.7-2,0.5-3C45.3,13.5,43.7,12.2,41.8,12.2z M43.5,17.2c-0.3,0.5-0.7,0.8-1.2,0.9
			c-1.1,0.2-2.1-0.4-2.4-1.5c-0.2-1.1,0.4-2.1,1.5-2.4c0.1,0,0.3-0.1,0.5-0.1c0.9,0,1.7,0.6,1.9,1.5C43.9,16.3,43.8,16.8,43.5,17.2z
			"/>
	</g>
</g>
</symbol><symbol id="svg-ic_video-orange" viewBox="0 0 54 38">
<style type="text/css">
<![CDATA[
	.st0{fill-rule:evenodd;clip-rule:evenodd;}
]]>
</style>
<g>
	<g>
		<path d="M51,0H3C1.3,0,0,1.3,0,3v32c0,1.7,1.3,3,3,3h48c1.7,0,3-1.3,3-3V3C54,1.3,52.7,0,51,0z M5,36H3c-0.6,0-1-0.4-1-1v-1h3V36z
			 M5,32H2v-2h3V32z M5,28H2v-2h3V28z M5,24H2v-2h3V24z M5,20H2v-2h3V20z M5,16H2v-2h3V16z M5,12H2v-2h3V12z M5,8H2V6h3V8z M5,4H2V3
			c0-0.6,0.4-1,1-1h2V4z M47,36H7V2h40V36z M52,35c0,0.6-0.4,1-1,1h-2v-2h3V35z M52,32h-3v-2h3V32z M52,28h-3v-2h3V28z M52,24h-3v-2
			h3V24z M52,20h-3v-2h3V20z M52,16h-3v-2h3V16z M52,12h-3v-2h3V12z M52,8h-3V6h3V8z M52,4h-3V2h2c0.6,0,1,0.4,1,1V4z M38,18.5L20,8
			l0,21L38,18.5z M34,18.5l-12,7l0-14L34,18.5z"/>
	</g>
</g>
</symbol><symbol id="svg-ic_video" viewBox="0 0 54 38">
<style type="text/css">
<![CDATA[
	.st0{fill-rule:evenodd;clip-rule:evenodd;}
]]>
</style>
<g>
	<g>
		<path d="M51,0H3C1.3,0,0,1.3,0,3v32c0,1.7,1.3,3,3,3h48c1.7,0,3-1.3,3-3V3C54,1.3,52.7,0,51,0z M5,36H3c-0.6,0-1-0.4-1-1v-1h3V36z
			 M5,32H2v-2h3V32z M5,28H2v-2h3V28z M5,24H2v-2h3V24z M5,20H2v-2h3V20z M5,16H2v-2h3V16z M5,12H2v-2h3V12z M5,8H2V6h3V8z M5,4H2V3
			c0-0.6,0.4-1,1-1h2V4z M47,36H7V2h40V36z M52,35c0,0.6-0.4,1-1,1h-2v-2h3V35z M52,32h-3v-2h3V32z M52,28h-3v-2h3V28z M52,24h-3v-2
			h3V24z M52,20h-3v-2h3V20z M52,16h-3v-2h3V16z M52,12h-3v-2h3V12z M52,8h-3V6h3V8z M52,4h-3V2h2c0.6,0,1,0.4,1,1V4z M26.6,31.3
			c7,0,12.7-5.7,12.7-12.7c0-7-5.7-12.7-12.7-12.7c-7,0-12.7,5.7-12.7,12.7C13.9,25.6,19.6,31.3,26.6,31.3z M26.6,7.9
			c5.9,0,10.7,4.8,10.7,10.7c0,5.9-4.8,10.7-10.7,10.7c-5.9,0-10.7-4.8-10.7-10.7C15.9,12.7,20.7,7.9,26.6,7.9z M34,19l-12-7l0,14
			L34,19z M29.9,19L24,22.4l0-6.9L29.9,19z"/>
	</g>
</g>
</symbol><symbol id="svg-ic_webinars" viewBox="0 0 56 46">
<style type="text/css">
<![CDATA[
	.st0{fill-rule:evenodd;clip-rule:evenodd;}
]]>
</style>
<g>
	<g>
		<path d="M56,34.9V5.2L0,0v40.1l28-2.6v5.7L23.8,44c-0.5,0.1-0.9,0.6-0.8,1.2c0.1,0.5,0.5,0.8,1,0.8c0.1,0,0.1,0,0.2,0l11-2
			c0.5-0.1,0.9-0.6,0.8-1.2c-0.1-0.5-0.6-0.9-1.2-0.8L30,42.9v-5.6L56,34.9z M2,37.9V2.2L54,7v26.1L2,37.9z M5,12.1
			c0.2,0,0.3,0,0.5-0.1l7-4c0.5-0.3,0.6-0.9,0.4-1.4c-0.3-0.5-0.9-0.6-1.4-0.4l-7,4c-0.5,0.3-0.6,0.9-0.4,1.4
			C4.3,11.9,4.7,12.1,5,12.1z M20.2,6.7l-15.5,9C4.3,16,4.1,16.6,4.4,17c0.2,0.3,0.5,0.5,0.9,0.5c0.2,0,0.3,0,0.5-0.1l15.5-9
			c0.5-0.3,0.6-0.9,0.4-1.4C21.3,6.6,20.7,6.5,20.2,6.7z"/>
	</g>
</g>
</symbol><symbol id="svg-ic_well-being-center" viewBox="0 0 53.5 46">
<style type="text/css">
<![CDATA[
	.st0{fill-rule:evenodd;clip-rule:evenodd;}
]]>
</style>
<path d="M26.8,46l-1.9-1.5c-11.3-8.7-18.1-13.9-22-20.7c-2.9-5-3.6-10-2.2-14.3C1.9,5.9,4.5,3,8.2,1.3C10,0.4,12.1,0,14.2,0
	c5.1,0,9.9,2.5,12.5,6.5C29.4,2.5,34.2,0,39.3,0c2.1,0,4.2,0.4,6.1,1.3C49,3,51.7,5.9,52.9,9.5c1.4,4.3,0.6,9.3-2.2,14.3
	c-3.9,6.8-10.7,12.1-22,20.7L26.8,46z M14.2,2C12.4,2,10.6,2.4,9,3.1c-3.1,1.4-5.4,3.9-6.4,7c-1.2,3.8-0.5,8.2,2.1,12.7
	C8.3,29.3,15,34.5,26.1,43l0.7,0.5l0.6-0.5c11.1-8.5,17.8-13.7,21.5-20.2c2.6-4.5,3.3-8.9,2.1-12.7c-1-3.1-3.3-5.6-6.4-7
	C42.9,2.4,41.2,2,39.3,2c-5,0-9.7,2.8-11.6,6.9l-0.9,2l-0.9-2C23.9,4.8,19.2,2,14.2,2z"/>
</symbol><symbol id="svg-ic_youtube-orange" viewBox="0 0 54 38">
<style type="text/css">
<![CDATA[
	.st0{fill-rule:evenodd;clip-rule:evenodd;}
]]>
</style>
<g>
	<g>
		<path d="M51,0H3C1.3,0,0,1.3,0,3v32c0,1.7,1.3,3,3,3h48c1.7,0,3-1.3,3-3V3C54,1.3,52.7,0,51,0z M5,36H3c-0.6,0-1-0.4-1-1v-1h3V36z
			 M5,32H2v-2h3V32z M5,28H2v-2h3V28z M5,24H2v-2h3V24z M5,20H2v-2h3V20z M5,16H2v-2h3V16z M5,12H2v-2h3V12z M5,8H2V6h3V8z M5,4H2V3
			c0-0.6,0.4-1,1-1h2V4z M47,36H7V2h40V36z M52,35c0,0.6-0.4,1-1,1h-2v-2h3V35z M52,32h-3v-2h3V32z M52,28h-3v-2h3V28z M52,24h-3v-2
			h3V24z M52,20h-3v-2h3V20z M52,16h-3v-2h3V16z M52,12h-3v-2h3V12z M52,8h-3V6h3V8z M52,4h-3V2h2c0.6,0,1,0.4,1,1V4z M26.6,31.3
			c7,0,12.7-5.7,12.7-12.7c0-7-5.7-12.7-12.7-12.7c-7,0-12.7,5.7-12.7,12.7C13.9,25.6,19.6,31.3,26.6,31.3z M26.6,7.9
			c5.9,0,10.7,4.8,10.7,10.7c0,5.9-4.8,10.7-10.7,10.7c-5.9,0-10.7-4.8-10.7-10.7C15.9,12.7,20.7,7.9,26.6,7.9z M34,19l-12-7l0,14
			L34,19z M29.9,19L24,22.4l0-6.9L29.9,19z"/>
	</g>
</g>
</symbol><symbol id="svg-sprite" viewBox="0 0 60 2549"><svg width="58" height="57" viewBox="0 0 58 57" id="ic_apology-communication" y="0"/><svg fill="#FFF" height="48" viewBox="0 0 24 24" width="48" id="ic_arrow_drop_up_white_48px" y="57"/><svg fill="#FFF" height="48" viewBox="0 0 24 24" width="48" id="ic_arrow_forward_white_48px" y="105"/><svg id="ic_audio" width="33" height="57" viewBox="0 0 33 57" y="153"/><svg width="57" height="50" viewBox="0 0 57 50" id="ic_basic-risk-management" y="210"/><svg id="ic_books" width="52" height="42.6" viewBox="0 0 52 42.6" y="260"/><svg id="ic_brink-magazine" width="52" height="46.6" viewBox="0 0 52 46.6" y="303"/><svg width="50" height="48" viewBox="0 0 50 48" id="ic_bundled-solutions" y="350"/><svg fill="#FFF" height="48" viewBox="0 0 24 24" width="48" id="ic_check_white_48px" y="398"/><svg width="58" height="56" viewBox="0 0 58 56" id="ic_chronic-pain-management" y="446"/><svg id="ic_claim-reviews" width="52" height="51" viewBox="0 0 52 51" y="502"/><svg width="52" height="56" viewBox="0 0 52 56" id="ic_clinics" y="553"/><svg width="58" height="51" viewBox="0 0 58 51" id="ic_cme-options" y="609"/><svg width="46" height="50.8" viewBox="0 0 46 50.8" id="ic_consultants-pss-team" y="660"/><svg width="52" height="51" viewBox="0 0 52 51" id="ic_education" y="711"/><svg id="ic_female" width="43.6" height="43.4" viewBox="0 0 43.6 43.4" y="762"/><svg id="ic_hipaa" width="43" height="55" viewBox="0 0 43 55" y="806"/><svg width="52" height="56" viewBox="0 0 52 56" id="ic_hospitals" y="861"/><svg width="52" height="48.3" viewBox="0 0 52 48.3" id="ic_impt-news-updates" y="917"/><svg width="46" height="57" viewBox="0 0 46 57" id="ic_interactive" y="966"/><svg fill="#FFF" height="48" viewBox="0 0 24 24" width="48" id="ic_keyboard_arrow_down_white_48px" y="1023"/><svg fill="#FFF" height="48" viewBox="0 0 24 24" width="48" id="ic_keyboard_arrow_left_white_48px" y="1071"/><svg fill="#FFF" height="48" viewBox="0 0 24 24" width="48" id="ic_keyboard_arrow_right_white_48px" y="1119"/><svg fill="#FFF" height="48" viewBox="0 0 24 24" width="48" id="ic_keyboard_arrow_up_white_48px" y="1167"/><svg width="51" height="40" viewBox="0 0 51 40" id="ic_live-educational-programs" y="1215"/><svg id="ic_long-term--care" width="34" height="50" viewBox="0 0 34 50" y="1255"/><svg id="ic_long-term-care" width="34" height="50" viewBox="0 0 34 50" y="1305"/><svg id="ic_male" width="44.3" height="44.4" viewBox="0 0 44.3 44.4" y="1355"/><svg width="49" height="52" viewBox="0 0 49 52" id="ic_managing-electronic-risk" y="1400"/><svg width="46" height="60" viewBox="0 0 46 60" id="ic_medicare-billing-compliance-manual" y="1452"/><svg id="ic_minute-for-medicine" width="44" height="44" viewBox="0 0 44 44" y="1512"/><svg id="ic_minute-for-medicine-videos" width="54" height="38" viewBox="0 0 54 38" y="1556"/><svg width="54" height="49.2" viewBox="0 0 54 49.2" id="ic_multilingual-resources" y="1594"/><svg id="ic_ob-risk-solutions" width="43.6" height="43.4" viewBox="0 0 43.6 43.4" y="1644"/><svg id="ic_on-demand-webinar" width="54" height="38" viewBox="0 0 54 38" y="1688"/><svg id="ic_on-demand-webinars" width="54" height="38" viewBox="0 0 54 38" y="1726"/><svg fill="#FFF" height="48" viewBox="0 0 24 24" width="48" id="ic_open_in_new_white_48px" y="1764"/><svg width="43" height="53" viewBox="0 0 43 53" id="ic_patient-centered-care" y="1812"/><svg id="ic_pdf-icon" width="39" height="52" viewBox="0 0 39 52" y="1865"/><svg width="54" height="54" viewBox="0 0 54 54" id="ic_pediatric-solutions" y="1917"/><svg width="60" height="38" viewBox="0 0 60 38" id="ic_preventing-diagnostic-error" y="1971"/><svg id="ic_preventing-health-care-workplace-violence" width="52" height="52" viewBox="0 0 52 52" y="2009"/><svg width="40" height="57" viewBox="0 0 40 57" id="ic_risk-management-handbook" y="2061"/><svg width="50" height="56" viewBox="0 0 50 56" id="ic_risklutions" y="2118"/><svg id="ic_sample-policies" width="49" height="44" viewBox="0 0 49 44" y="2174"/><svg id="ic_search" width="50" height="51" viewBox="0 0 50 51" y="2218"/><svg id="ic_self-assessment" width="51" height="50" viewBox="0 0 51 50" y="2269"/><svg id="ic_surgery-anesthesia" width="46" height="47" viewBox="0 0 46 47" y="2319"/><svg width="58" height="53" viewBox="0 0 58 53" id="ic_tools-resources" y="2366"/><svg id="ic_video" width="54" height="38" viewBox="0 0 54 38" y="2419"/><svg id="ic_webinars" width="56" height="46" viewBox="0 0 56 46" y="2457"/><svg id="ic_well-being-center" width="53.5" height="46" viewBox="0 0 53.5 46" y="2503"/><title>communication-2</title><g fill="#231F1F" fill-rule="evenodd"><path d="M1.514 56.647l3.328-12.2C1.672 40.256 0 35.272 0 30 0 16.766 10.767 6 24 6s24 10.766 24 24-10.767 24-24 24a23.78 23.78 0 0 1-10.005-2.179L1.514 56.647zM24 8C11.869 8 2 17.869 2 30c0 4.987 1.633 9.694 4.723 13.61l.312.396-2.549 9.347 9.591-3.708.39.188A21.796 21.796 0 0 0 24 52c12.131 0 22-9.869 22-22S36.131 8 24 8z"/><path d="M27.566 25.122c-1.484 0-2.939-.379-4.175-1.329-3.007-2.311-7.027-2.344-9.349-.077a1 1 0 0 1-1.398-1.432c3.03-2.957 8.173-2.991 11.965-.077 2.842 2.184 7.871.015 9.662-1.892a1 1 0 1 1 1.458 1.37c-1.516 1.613-4.908 3.437-8.163 3.437M27.566 33.122c-1.484 0-2.939-.379-4.175-1.329-3.007-2.311-7.027-2.344-9.349-.078a1 1 0 1 1-1.398-1.431c3.03-2.957 8.173-2.991 11.965-.077 2.842 2.184 7.871.016 9.662-1.892a1 1 0 1 1 1.458 1.37c-1.516 1.613-4.908 3.437-8.163 3.437M27.566 41.122c-1.484 0-2.939-.379-4.175-1.329-3.007-2.311-7.027-2.344-9.349-.077a1 1 0 0 1-1.398-1.432c3.03-2.957 8.173-2.991 11.965-.077 2.842 2.184 7.871.015 9.662-1.892a1.001 1.001 0 0 1 1.458 1.37c-1.516 1.613-4.908 3.437-8.163 3.437"/><path d="M56.486 50.647l-12.481-4.826c-1.068.49-2.175.903-3.297 1.228l-3.659 1.062 2.666-2.722A21.872 21.872 0 0 0 46 30c0-12.131-9.869-22-22-22-2.08 0-4.152.296-6.159.88l-3.66 1.065 2.666-2.725C21.402 2.564 27.494 0 34 0c13.233 0 24 10.766 24 24 0 5.272-1.672 10.256-4.842 14.447l3.328 12.2zm-12.563-7.002l9.591 3.708-2.549-9.347.312-.396A21.767 21.767 0 0 0 56 24c0-12.131-9.869-22-22-22-4.705 0-9.173 1.463-12.9 4.176C22.061 6.059 23.03 6 24 6c13.233 0 24 10.766 24 24 0 4.991-1.523 9.764-4.345 13.774l.268-.129z"/></g><path d="M7 14l5-5 5 5z"/><path d="M0 0h24v24H0z" fill="none"/><path d="M0 0h24v24H0z" fill="none"/><path d="M12 4l-1.41 1.41L16.17 11H4v2h12.17l-5.58 5.59L12 20l8-8z"/><style>.st0{fill-rule:evenodd;clip-rule:evenodd}</style><path d="M16.5 47C23.4 47 29 41.4 29 34.5v-22C29 5.6 23.4 0 16.5 0S4 5.6 4 12.5v22C4 41.4 9.6 47 16.5 47zM6 12.5C6 6.7 10.7 2 16.5 2S27 6.7 27 12.5v22C27 40.3 22.3 45 16.5 45S6 40.3 6 34.5v-22zM32 24c-.6 0-1 .4-1 1v9.5c0 8-6.5 14.5-14.5 14.5S2 42.5 2 34.5V25c0-.6-.4-1-1-1s-1 .4-1 1v9.5c0 8.6 6.6 15.7 15 16.4V55h-3c-.6 0-1 .4-1 1s.4 1 1 1h8c.6 0 1-.4 1-1s-.4-1-1-1h-3v-4c8.9-.3 16-7.5 16-16.5V25c0-.6-.4-1-1-1zM9 13h15c.6 0 1-.4 1-1s-.4-1-1-1H9c-.6 0-1 .4-1 1s.4 1 1 1zm0 4h15c.6 0 1-.4 1-1s-.4-1-1-1H9c-.6 0-1 .4-1 1s.4 1 1 1zm0 4h15c.6 0 1-.4 1-1s-.4-1-1-1H9c-.6 0-1 .4-1 1s.4 1 1 1zm0 4h15c.6 0 1-.4 1-1s-.4-1-1-1H9c-.6 0-1 .4-1 1s.4 1 1 1zm0 4h15c.6 0 1-.4 1-1s-.4-1-1-1H9c-.6 0-1 .4-1 1s.4 1 1 1zm0 4h15c.6 0 1-.4 1-1s-.4-1-1-1H9c-.6 0-1 .4-1 1s.4 1 1 1zm16 3c0-.6-.4-1-1-1H9c-.6 0-1 .4-1 1s.4 1 1 1h15c.6 0 1-.4 1-1z"/><path d="M48.5 0H9.7L0 10.3V17h3v33h52V17h2v-6.6L48.5 0zM53 48H5V17h48v31zm2-33H2v-3.9L10.6 2h37l7.4 9.1V15zM15 31h28c1.7 0 3-1.3 3-3v-2c0-1.7-1.3-3-3-3H15c-1.7 0-3 1.3-3 3v2c0 1.7 1.3 3 3 3zm-1-5c0-.6.4-1 1-1h28c.6 0 1 .4 1 1v2c0 .6-.4 1-1 1H15c-.6 0-1-.4-1-1v-2z"/><style>.st0{fill-rule:evenodd;clip-rule:evenodd}</style><path d="M51.6 3.8l-.3-.3-.3-.1c-12.2-7-23.2-1-24.9 0H26C12.7-4.3.9 3.5.8 3.5c-.1 0-.1.1-.1.1-.4.2-.7.6-.7 1v37c0 .6.4 1 1 1h.1c.2.1.5 0 .7-.1.1-.1 11-5.6 23.4-.1l.3.1c.1.1.3.1.4.1h.2c.2.1.5 0 .7-.1.1-.1 11-5.6 23.4-.1l.3.1c.1.1.3.1.4.1h.2c.5-.1.8-.5.8-1v-37c.1-.3-.1-.6-.3-.8zM2 40.2v-35c.9-.6 11.3-6.8 23-.1v35c-10.6-4.3-19.9-1.2-23 .1zm25 0v-35c.9-.6 11.3-6.8 23-.1v35c-10.6-4.3-19.9-1.2-23 .1z"/><style>.st0{fill-rule:evenodd;clip-rule:evenodd}</style><path d="M51.6 3.8l-.3-.3-.3-.1c-12.2-7-23.2-1-24.9 0H26C12.7-4.3.9 3.5.8 3.5c-.1 0-.1.1-.1.1-.4.2-.7.6-.7 1v37c0 .6.4 1 1 1h.1c.2.1.5 0 .7-.1.1-.1 11-5.6 23.4-.1l.3.1c.1.1.3.1.4.1h.2c.2.1.5 0 .7-.1.1-.1 11-5.6 23.4-.1l.3.1c.1.1.3.1.4.1h.2c.5-.1.8-.5.8-1v-37c.1-.3-.1-.6-.3-.8zM25 40.1c-10.6-4.3-19.9-1.2-23 .1v-35c.9-.6 11.3-6.8 23-.1v35zm25 0c-10.6-4.3-19.9-1.2-23 .1v-35c.8-.5 8.5-5.1 18-2.2v6.7c0 .6.4 1 1 1s1-.4 1-1v-6c1 .4 2 .9 3 1.5v34.9zM21.9 29.2l-.2-.1c-8.7-3.9-16.1-.1-16.4.1-.5.3-.7.9-.4 1.3.3.5.9.7 1.3.4.1 0 7-3.5 14.7 0l.1.1c.1.1.3.1.4.1.4 0 .7-.2.9-.6.3-.5.1-1.1-.4-1.3zm0-8l-.2-.1c-8.7-3.9-16.1-.1-16.4.1-.5.3-.7.9-.4 1.3.3.5.9.7 1.3.4.1 0 7-3.5 14.7 0l.1.1c.1.1.3.1.4.1.4 0 .7-.2.9-.6.3-.5.1-1-.4-1.3zm0-8l-.2-.1C13 9.2 5.6 13 5.3 13.2c-.5.3-.7.9-.4 1.3.3.5.9.7 1.3.4.1 0 7-3.5 14.7 0l.1.1c.1.1.3.1.4.1.4 0 .7-.2.9-.6.3-.5.1-1-.4-1.3zm24.9 15.9l-.2-.1c-8.6-3.9-16-.1-16.3.1-.5.3-.7.9-.4 1.3.3.5.9.7 1.3.4.1 0 6.9-3.5 14.6 0h.1c.1.1.3.1.4.1.4 0 .7-.2.9-.6.3-.3.1-.9-.4-1.2zm-16.1-6c.2 0 .3 0 .5-.1.1 0 6.9-3.5 14.6-.1l.2.1c.5.2 1.1 0 1.3-.5.2-.5 0-1.1-.5-1.3l-.1-.1c-8.6-3.9-16-.1-16.3.1-.5.3-.7.9-.4 1.3 0 .4.4.6.7.6zm0-7.9c.2 0 .3 0 .5-.1.1 0 6.9-3.5 14.7 0h.1c.5.2 1 0 1.3-.5.2-.5 0-1.1-.5-1.3h-.1c-8.6-3.9-16-.1-16.3.1-.5.3-.7.9-.4 1.3 0 .3.4.5.7.5zm20.6 29.5l-.3-.1c-12.4-5.6-23.2-.8-24.9 0H26c-13.2-5.9-24.6-.1-25.1.1-.5.3-.7.9-.4 1.3.3.5.9.7 1.3.4.1-.1 11-5.6 23.4-.1l.3.1c.1.1.3.1.4.1h.3c.2.1.5 0 .7-.1.1-.1 11-5.6 23.4-.1l.3.1c.1.1.3.1.4.1.4 0 .7-.2.9-.6.1-.4-.1-1-.6-1.2z"/><path d="M22.9 33.1l-8.4-7.2-1.3 1.5 10.3 8.8 12.6-22.4-1.7-1-11.5 20.3zM48 46h-5v2h7v-7h-2v5zm-29 2h12v-2H19v2zM2 41H0v7h7v-2H2v-5zm0-23H0v12h2V18zM0 7h2V2h5V0H0v7zm31-7H19v2h12V0zm12 0v2h5v5h2V0h-7zm5 30h2V18h-2v12z"/><path d="M0 0h24v24H0z" fill="none"/><path d="M9 16.17L4.83 12l-1.42 1.41L9 19 21 7l-1.41-1.41z"/><title>medical-new-44</title><g fill="#000" fill-rule="evenodd"><path d="M16 49C7.178 49 0 41.822 0 33c0-8.823 7.178-16 16-16s16 7.177 16 16c0 8.822-7.178 16-16 16zm0-30C8.28 19 2 25.28 2 33s6.28 14 14 14 14-6.28 14-14-6.28-14-14-14z"/><path d="M1 32h30v2H1v-2zM37.075 55.419a5.96 5.96 0 0 1-4.215-1.725 5.959 5.959 0 0 1-1.778-4.232 5.958 5.958 0 0 1 1.725-4.253l14.876-14.876c1.15-1.166 2.669-1.81 4.274-1.81 1.534 0 2.986.6 4.09 1.69 1.121 1.107 1.782 2.665 1.813 4.276.034 1.653-.567 3.189-1.688 4.325L41.341 53.645a5.954 5.954 0 0 1-4.266 1.774zm14.882-24.896c-1.065 0-2.079.433-2.855 1.22L34.226 46.619a3.965 3.965 0 0 0-1.144 2.831 3.975 3.975 0 0 0 3.993 3.969 3.97 3.97 0 0 0 2.847-1.184l14.831-14.831c.734-.744 1.13-1.767 1.108-2.875-.021-1.095-.465-2.149-1.218-2.893a3.807 3.807 0 0 0-2.686-1.113z"/><path d="M47.683 45.889l-7.072-7.071 1.414-1.414 7.072 7.071-1.414 1.414M42.016 21.169a5.766 5.766 0 0 1-2.287-.468l-19.223-8.39c-3.034-1.301-4.446-4.836-3.143-7.877a6.004 6.004 0 0 1 7.88-3.148l19.28 8.415c3.071 1.317 4.464 4.719 3.167 7.743-.955 2.228-3.235 3.725-5.674 3.725zM22.892 2.802c-1.612 0-3.06.95-3.691 2.421a4.005 4.005 0 0 0 2.1 5.253l19.222 8.39c.466.2.97.303 1.493.303 1.65 0 3.192-1.01 3.836-2.513.855-1.993-.078-4.242-2.124-5.12l-19.28-8.415a3.931 3.931 0 0 0-1.556-.319z"/><path d="M31.875 16.182l-1.834-.8 4-9.165 1.834.8-4 9.165"/></g><style>.st0{fill-rule:evenodd;clip-rule:evenodd}</style><path d="M13.1 9H39c.6 0 1-.4 1-1s-.4-1-1-1H13.1c-.6 0-1 .4-1 1s.4 1 1 1zm-2 7H41c.6 0 1-.4 1-1s-.4-1-1-1H11.1c-.6 0-1 .4-1 1s.4 1 1 1zm-2 7H43c.6 0 1-.4 1-1s-.4-1-1-1H9.1c-.6 0-1 .4-1 1s.4 1 1 1zM45 28H7.1c-.6 0-1 .4-1 1s.4 1 1 1H45c.6 0 1-.4 1-1s-.5-1-1-1zm6.8 9.4L44.3.8c-.1-.5-.5-.8-1-.8H8.6c-.5 0-.9.3-1 .8L0 37.8c0 .2 0 .4.1.6V50c0 .6.4 1 1 1H51c.6 0 1-.4 1-1V38c0-.2-.1-.4-.2-.6zM9.4 2h33.1l7.2 35H2.2L9.4 2zM50 49H2.1v-2H50v2zm0-4H2.1v-2H50v2zm0-4H2.1v-2H50v2z"/><title>medical-new-19</title><g fill="#000" fill-rule="evenodd"><path d="M0 0h2v56H0V0zM8 6h44v44H8V6zm2 42h40V8H10v40z"/><path d="M0 17h10v22H0V17zm2 20h6V19H2v18zM37 43H23v-8h-8V21h8v-8h14v8h8v14h-8v8zm-12-2h10v-8h8V23h-8v-8H25v8h-8v10h8v8z"/></g><path d="M47.6 40.6l10.4.8-11.9-12c1.4-2.8 2.2-5.9 2.2-9.2C48.4 9.1 39.3 0 28.2 0 17.1 0 8.1 9.1 8.1 20.2c0 3.7 1 7.2 2.8 10.2L0 41.4l10.4-.7L9.7 51l11.8-11.8c2.1.8 4.4 1.2 6.8 1.2 2.8 0 5.5-.6 7.9-1.6L48.3 51l-.7-10.4zm-28.1-2.2l-7.4 7.4.5-7.3-7.4.5 6.8-6.8c.2.2.3.4.5.7.1.1.2.2.2.3.4.4.7.8 1.1 1.2l.3.3c.4.4.8.8 1.3 1.2 0 0 .1 0 .1.1.4.3.8.7 1.3 1 .1.1.3.2.4.3.4.3.9.6 1.3.8l.6.3c.1-.2.2-.1.4 0zm2-1.3c-.3-.1-.7-.3-1-.4-.2-.1-.3-.1-.5-.2-.3-.1-.6-.3-.8-.4-.2-.1-.4-.3-.7-.4-.2-.1-.4-.3-.6-.4l-1.2-.9c-.1-.1-.2-.2-.3-.2-.3-.3-.6-.6-.9-.8-.2-.1-.3-.3-.4-.5-.2-.2-.4-.4-.6-.7-.2-.2-.3-.4-.5-.6-.2-.2-.3-.4-.5-.6-.2-.2-.3-.5-.5-.7-1.9-2.9-3-6.3-3-9.9 0-10 8.1-18.2 18.2-18.2 10 0 18.2 8.2 18.2 18.2 0 3.1-.8 6.1-2.2 8.6h-.1c-.2.4-.5.8-.7 1.2-.1.2-.2.4-.4.5-.2.3-.5.6-.7.9-.1.2-.2.3-.4.4-.2.3-.5.5-.7.8l-.4.4c-.2.2-.5.4-.7.7-.2.1-.3.3-.5.4-.2.2-.4.3-.7.5-.5.4-1.1.8-1.7 1.1 0 0-.1 0-.1.1-.4.2-.7.4-1.1.6-.2.1-.4.2-.5.3l-.3.1c-2.2.9-4.5 1.4-7 1.4-2.3 0-4.6-.5-6.7-1.3zm16.5.8c.1-.1.2-.1.3-.2.3-.2.6-.3.8-.5.2-.1.4-.3.6-.4.4-.3.7-.5 1.1-.8.1-.1.2-.1.2-.2.4-.3.8-.7 1.2-1.1l.3-.3c.4-.4.8-.8 1.1-1.3 0-.1.1-.1.1-.2l.9-1.2c.1-.1.2-.2.2-.4l.1-.1 7.8 7.8-7.4-.5.5 7.3-7.8-7.9z"/><path d="M39.9 16.2c.5-1.4.8-2.9.8-4.6C40.7 5.2 36.3 0 30.8 0c-4.2 0-7.9 3.1-9.3 7.8-1.1-.4-2.3-.6-3.5-.6-6.4 0-11.7 6.2-11.7 13.8S11.5 34.8 18 34.8c4.1 0 7.7-2.5 9.8-6.3 2.6 2 4.5 4.7 5.5 7.7.5 1.6.8 3.3.8 5 0 2.6-.9 5.4-2.1 7.7H4c-1.2-2.3-2-5.1-2-7.7 0-3.2 1-6.4 2.8-9L3.1 31C1.1 34 0 37.5 0 41.2c0 3.2.8 6.3 2.4 9l.6.6h30l.7-.7c1.6-2.7 2.4-5.9 2.4-9 0-1.5-.2-3-.6-4.5h7.6l.3-.5c1-1.6 2.6-4.7 2.6-7.9 0-4.7-2.3-9.2-6.1-12zM30.8 2c4.3 0 7.8 4.3 7.8 9.6s-3.5 9.6-7.8 9.6c-.4 0-.8 0-1.1-.1v-.2c0-5.3-2.6-10-6.3-12.3 1-3.9 4-6.6 7.4-6.6zM18.1 32.7c-5.3 0-9.7-5.3-9.7-11.8 0-6.5 4.3-11.8 9.7-11.8s9.7 5.3 9.7 11.8c-.1 6.5-4.4 11.8-9.7 11.8zm23.9 2h-7.1c-1.2-3.2-3.4-6.1-6.2-8.1.4-1.1.7-2.2.9-3.5.4.1.9.1 1.3.1 3.4 0 6.4-2.1 8.2-5.2 3.1 2.5 5 6.3 5 10.3-.1 2.4-1.3 4.9-2.1 6.4z"/><path d="M49 43.2V15.1c.2-.3.3-.6.3-1 0-.7-.4-1.4-1.2-1.8L26.9.5c-1.2-.7-3.2-.7-4.4 0L1.2 12.2c-.8.5-1.2 1.1-1.2 1.9s.4 1.4 1.2 1.8l7 3.9V30c0 6.1 4.9 11 10.9 11H31c6 0 10.9-4.9 10.9-11V19.2l5-2.8v26.7c-1.7.4-3 2-3 3.9 0 2.2 1.8 4 4 4s4-1.8 4-4c.1-1.8-1.2-3.4-2.9-3.8zM40.1 30c0 5-4 9-8.9 9h-12c-4.9 0-8.9-4-8.9-9v-9.1l12.2 6.7a5.09 5.09 0 0 0 4.4 0l13.2-7.3V30zm-14.2-4.1c-.6.3-1.9.3-2.5 0L2.2 14.2c-.1 0-.1-.1-.1-.1l.1-.1L23.4 2.3c.6-.3 1.9-.3 2.5 0L47.1 14c.1 0 .1.1.1.1H47v.1L25.9 25.9zM48 49c-1.1 0-2-.9-2-2s.9-2 2-2 2 .9 2 2-.9 2-2 2z"/><style>.st0{fill:#202020}</style><path class="st0" d="M38.4 5.3C35 1.9 30.4 0 25.6 0c-4.8 0-9.3 1.9-12.7 5.3C9.5 8.7 7.6 13.2 7.6 18c0 4.4 1.6 8.6 4.5 11.9l-5.8 5.8-5-5L0 32.1l5 5-4.2 4.2 1.4 1.4 4.2-4.2 5 5 1.4-1.4-4.9-5 5.8-5.8c3.3 3 7.6 4.7 12.1 4.7 4.8 0 9.3-1.9 12.7-5.3 3.4-3.4 5.3-7.9 5.3-12.7s-2-9.3-5.4-12.7zm-1.5 24c-3 3-7 4.7-11.3 4.7-4.3 0-8.3-1.7-11.3-4.7s-4.7-7-4.7-11.3 1.7-8.3 4.7-11.3S21.3 2 25.6 2c4.3 0 8.3 1.7 11.3 4.7s4.7 7 4.7 11.3-1.6 8.3-4.7 11.3z"/><style>.st0{fill-rule:evenodd;clip-rule:evenodd}</style><path d="M38 0H5C2.2 0 0 2.2 0 5V50.8C0 53.1 1.9 55 4.3 55h34.4c2.4 0 4.3-1.9 4.3-4.3v-.4-.2V5c0-2.8-2.2-5-5-5zM2 5c0-1.7 1.3-3 3-3h33c1.7 0 3 1.3 3 3v6c0 1.7-1.3 3-3 3H23.4l1.1-2.9c.9-.7 1.5-1.8 1.5-3v-.2C26 5.8 24.2 4 22.1 4H22c-2.2 0-4 1.8-4 3.9V8c0 1.4.7 2.6 1.8 3.3l1 2.6H5c-1.7 0-3-1.3-3-3V5zm36.7 41H23V30.8c1-1.1 1.7-2.5 2-4.1.6-.7 1-1.6 1-2.6V24c0-1.2-.6-2.3-1.5-3.1L22.6 16H38c1.1 0 2.2-.4 3-1v31.7c-.7-.4-1.5-.7-2.3-.7zM24 8.1c0 1.1-.9 1.9-1.9 1.9H22c-1.1 0-2-.9-2-1.9v-.2c0-1 .9-1.9 1.9-1.9h.1c1.1 0 2 .9 2 1.9v.2zM21.9 12h.1c.4 0 .8-.1 1.1-.2l-.8 2.2h-.5l-.8-2.1c.3.1.6.1.9.1zm-.3 4l-1.8 4.6c-1.1.7-1.8 1.9-1.8 3.3v.1c0 1.8 1.3 3.4 3 3.8v3.3c-1.2.8-2.6 1.3-4.1 1.3-.3 0-.5.2-.5.5s.2.5.5.5c1.5 0 2.9-.4 4.1-1.1V46H4.3c-.9 0-1.6.3-2.3.7V15c.8.6 1.9 1 3 1h16.6zM20 23.9c0-1.1.9-1.9 1.9-1.9h.1c1.1 0 1.9.9 1.9 1.9v.1c0 1.1-.9 1.9-1.9 1.9h-.1c-1.1 0-1.9-.9-1.9-1.9v-.1zm3 4c.2-.1.5-.1.7-.3-.2.5-.4 1-.7 1.5v-1.2zm-.9-7.9H22c-.3 0-.6 0-.9.1l1-2.7 1.1 2.8c-.4-.1-.7-.2-1.1-.2zM5 53c-1.6 0-2.9-1.3-3-2.8C2.1 49 3.1 48 4.3 48h34.4c1.2 0 2.2 1 2.3 2.2-.1 1.6-1.4 2.8-3 2.8H5z"/><title>medical-new-20</title><g fill="#000" fill-rule="evenodd"><path d="M0 0h2v56H0V0zM8 6h44v44H8V6zm2 42h40V8H10v40z"/><path d="M0 17h10v22H0V17zm2 20h6V19H2v18zM45 42H34v-9h-8v9H15V13h11v9h8v-9h11v29zm-9-2h7V15h-7v9H24v-9h-7v25h7v-9h12v9z"/></g><path d="M0 24.3h2v-12H0v12zm48-15h-2V0L4 10.5v15.6l42 10.5v-9.3h2c2.2 0 4-2.2 4-5v-8c0-2.8-1.8-5-4-5zM44 34L6 24.5V12.1l38-9.5V34zm6-11.7c0 1.6-.9 3-2 3h-2v-14h2c1.1 0 2 1.4 2 3v8zm-33 21c0 1.7-1.3 3-3 3h-2c-1.7 0-3-1.3-3-3v-14H7v14c0 2.8 2.2 5 5 5h2c2.8 0 5-2.2 5-5v-11h-2v11z"/><path d="M40.6 13h-1.2c-1.8 0-3.4.9-4.4 2.3-1-1.4-2.6-2.3-4.4-2.3h-1.2c-1.8 0-3.4.9-4.4 2.3-1-1.4-2.6-2.3-4.4-2.3h-1.2c-1.3 0-2.5.5-3.4 1.2V5.8C16 2.6 13.4 0 10.2 0h-.4C6.6 0 4 2.6 4 5.8v18c-1.9 1.6-4 4.1-4 6.7V42c0 8.4 7.4 15 15.6 15H31c8.3 0 15-6.7 15-15V18.4c0-3-2.4-5.4-5.4-5.4zM44 42c0 7.3-5.7 13-13 13H15.6C8.4 55 2 49.4 2 42V30.6c0-2.2 2-4.2 3.6-5.4l.4-.4v-19C6 3.7 7.7 2 9.8 2h.4C12.3 2 14 3.7 14 5.8V31c0 .6.4 1 1 1s1-.4 1-1V18.4c0-1.9 1.5-3.4 3.4-3.4h1.2c1.9 0 3.4 1.5 3.4 3.4V31c0 .6.4 1 1 1s1-.4 1-1V18.4c0-1.9 1.5-3.4 3.4-3.4h1.2c1.9 0 3.4 1.5 3.4 3.4V31c0 .6.4 1 1 1s1-.4 1-1V18.4c0-1.9 1.5-3.4 3.4-3.4h1.2c1.9 0 3.4 1.5 3.4 3.4V42z"/><path d="M7.41 7.84L12 12.42l4.59-4.58L18 9.25l-6 6-6-6z"/><path d="M0-.75h24v24H0z" fill="none"/><path d="M15.41 16.09l-4.58-4.59 4.58-4.59L14 5.5l-6 6 6 6z"/><path d="M0-.5h24v24H0z" fill="none"/><path d="M8.59 16.34l4.58-4.59-4.58-4.59L10 5.75l6 6-6 6z"/><path d="M0-.25h24v24H0z" fill="none"/><path d="M7.41 15.41L12 10.83l4.59 4.58L18 14l-6-6-6 6z"/><path d="M0 0h24v24H0z" fill="none"/><path d="M0 0v36h51V0H0zm49 34H2V2h47v32zM0 40h51v-2H0v2zm46.4-29.8l-5.7-5.7-17.1 17.2-1.9 7.5 7.5-1.9 17.2-17.1zM24.5 26.5l.9-3.8L40.8 7.4l2.8 2.8-15.4 15.4-3.7.9z"/><style>.st0{fill:#202020}</style><path class="st0" d="M31 16.2L34 0H0l3 16.2-.2.3C1.1 19.8.2 23.6.2 27.5.2 39.5 8 50 17 50s16.8-10.5 16.8-22.5c0-3.9-.9-7.7-2.6-11l-.2-.3zM2.4 2h29.2L29 16H5L2.4 2zM17 48C9.2 48 2.2 38.2 2.2 27.5V27l.5.8c4.8-3.2 11.7-2.3 13.6-1.9 3.6 7.5 11.8 8.1 14.6 8.1-2.1 7.9-7.8 14-13.9 14zm14.4-16c-1.8.1-10.2.1-13.5-7.4l-.2-.5-.5-.1c-.4-.1-8.8-1.9-15 1.8.2-2.7.9-5.4 2-7.8h25.4c1.4 2.9 2.1 6.2 2.1 9.5.1 1.5-.1 3.1-.3 4.5zM16 14h2v-4h3.9V8H18V4h-2v4h-4v2h4v4z"/><style>.st0{fill:#202020}</style><path class="st0" d="M31 16.2L34 0H0l3 16.2-.2.3C1.1 19.8.2 23.6.2 27.5.2 39.5 8 50 17 50s16.8-10.5 16.8-22.5c0-3.9-.9-7.7-2.6-11l-.2-.3zM2.4 2h29.2L29 16H5L2.4 2zM17 48C9.2 48 2.2 38.2 2.2 27.5V27l.5.8c4.8-3.2 11.7-2.3 13.6-1.9 3.6 7.5 11.8 8.1 14.6 8.1-2.1 7.9-7.8 14-13.9 14zm14.4-16c-1.8.1-10.2.1-13.5-7.4l-.2-.5-.5-.1c-.4-.1-8.8-1.9-15 1.8.2-2.7.9-5.4 2-7.8h25.4c1.4 2.9 2.1 6.2 2.1 9.5.1 1.5-.1 3.1-.3 4.5zM16 14h2v-4h3.9V8H18V4h-2v4h-4v2h4v4z"/><style>.st0{fill:#202020}</style><path class="st0" d="M42.3 9.9l2-.2-.8-9-9-.8-.2 2 6.3.5-10.5 10.7c-3.3-3-7.6-4.7-12.1-4.7-4.8 0-9.3 1.9-12.7 5.3C1.9 17.1 0 21.6 0 26.4c0 4.8 1.9 9.3 5.3 12.7 3.4 3.4 7.9 5.3 12.7 5.3 4.8 0 9.3-1.9 12.7-5.3 3.4-3.4 5.3-7.9 5.3-12.7 0-4.4-1.6-8.6-4.5-11.9L41.8 4.2l.5 5.7zm-13 27.9c-3 3-7 4.7-11.3 4.7s-8.3-1.7-11.3-4.7S2 30.8 2 26.5c0-4.3 1.7-8.3 4.7-11.3s7-4.7 11.3-4.7c4.3 0 8.3 1.7 11.3 4.7s4.7 7 4.7 11.3c0 4.2-1.7 8.2-4.7 11.3z"/><title>security-31</title><g transform="translate(0 -1)" fill="#000" fill-rule="evenodd"><path d="M40 42a1 1 0 0 1-.707-.293l-4-4a.999.999 0 1 1 1.414-1.414l3.21 3.21 7.302-9.128a1 1 0 0 1 1.562 1.25l-8 10a.996.996 0 0 1-.725.373C40.037 42 40.019 42 40 42"/><path d="M24 52.234L5.065 38.559.894 7.265 24 .964l23.121 6.305-3.132 20.879-1.978-.296 2.868-19.121L24 3.036 3.106 8.735l3.829 28.706L24 49.766l7.722-5.577 1.172 1.622L24 52.234"/><path d="M24 46.12L9.557 35.689 6.384 11.882 24 7.077l17.631 4.809-2.383 15.888-1.979-.297 2.12-14.13L24 9.15 8.597 13.351l2.829 21.22L24 43.653l5.648-4.08 1.172 1.621L24 46.12"/></g><title>medical-new-33</title><g fill="#000" fill-rule="evenodd"><path d="M42.252 60H3.748A3.752 3.752 0 0 1 0 56.252V3.748A3.752 3.752 0 0 1 3.748 0h38.504A3.752 3.752 0 0 1 46 3.748v52.504A3.752 3.752 0 0 1 42.252 60zM3.748 2A1.75 1.75 0 0 0 2 3.748v52.504A1.75 1.75 0 0 0 3.748 58h38.504A1.75 1.75 0 0 0 44 56.252V3.748A1.75 1.75 0 0 0 42.252 2H3.748z"/><path d="M37 27H9a1 1 0 1 1 0-2h28a1 1 0 1 1 0 2M37 21H9a1 1 0 1 1 0-2h28a1 1 0 1 1 0 2M37 15H9a1 1 0 1 1 0-2h28a1 1 0 1 1 0 2M28 9H18a1 1 0 1 1 0-2h10a1 1 0 1 1 0 2M28 55H18v-7h-7V38h7v-7h10v7h7v10h-7v7zm-8-2h6v-7h7v-6h-7v-7h-6v7h-7v6h7v7z"/></g><style>.st0{fill-rule:evenodd;clip-rule:evenodd}</style><path class="st0" d="M24 .1L22 0v9h2V2.1c10.1 1 18 9.5 18 19.9 0 11-9 20-20 20S2 33 2 22c0-5.5 2.2-10.5 5.9-14.1L6.4 6.4C2.5 10.4 0 15.9 0 22c0 12.2 9.8 22 22 22s22-9.8 22-22C44 10.5 35.2 1.1 24 .1zm-.3 25.6c1.2-.7 1.6-2.1.9-3.3-.1-.2-.3-.4-.5-.6L15 11l5.1 13.1c.1.2.1.5.3.7.6 1.1 2.2 1.5 3.3.9z"/><style>.st0{fill-rule:evenodd;clip-rule:evenodd}</style><path d="M51 0H3C1.3 0 0 1.3 0 3v32c0 1.7 1.3 3 3 3h48c1.7 0 3-1.3 3-3V3c0-1.7-1.3-3-3-3zM5 36H3c-.6 0-1-.4-1-1v-1h3v2zm0-4H2v-2h3v2zm0-4H2v-2h3v2zm0-4H2v-2h3v2zm0-4H2v-2h3v2zm0-4H2v-2h3v2zm0-4H2v-2h3v2zm0-4H2V6h3v2zm0-4H2V3c0-.6.4-1 1-1h2v2zm42 32H7V2h40v34zm5-1c0 .6-.4 1-1 1h-2v-2h3v1zm0-3h-3v-2h3v2zm0-4h-3v-2h3v2zm0-4h-3v-2h3v2zm0-4h-3v-2h3v2zm0-4h-3v-2h3v2zm0-4h-3v-2h3v2zm0-4h-3V6h3v2zm0-4h-3V2h2c.6 0 1 .4 1 1v1zM38 18.5L20 8v21l18-10.5zm-4 0l-12 7v-14l12 7z"/><path d="M33 16V0H0v27h13l3.5 6.2L20 27h1v16h13l3.5 6.2L41 43h13V16H33zm-12 9h-2l-2.5 4.2L14 25H2V2h29v14H21v9zm31 16H40l-2.5 4.2L35 41H23V18h29v23z"/><style>.st0{fill:#202020}</style><path class="st0" d="M38.4 5.3C35 1.9 30.4 0 25.6 0c-4.8 0-9.3 1.9-12.7 5.3C9.5 8.7 7.6 13.2 7.6 18c0 4.4 1.6 8.6 4.5 11.9l-5.8 5.8-5-5L0 32.1l5 5-4.2 4.2 1.4 1.4 4.2-4.2 5 5 1.4-1.4-4.9-5 5.8-5.8c3.3 3 7.6 4.7 12.1 4.7 4.8 0 9.3-1.9 12.7-5.3 3.4-3.4 5.3-7.9 5.3-12.7s-2-9.3-5.4-12.7zm-1.5 24c-3 3-7 4.7-11.3 4.7-4.3 0-8.3-1.7-11.3-4.7s-4.7-7-4.7-11.3 1.7-8.3 4.7-11.3S21.3 2 25.6 2c4.3 0 8.3 1.7 11.3 4.7s4.7 7 4.7 11.3-1.6 8.3-4.7 11.3z"/><style>.st0{fill-rule:evenodd;clip-rule:evenodd}</style><path d="M51 0H3C1.3 0 0 1.3 0 3v32c0 1.7 1.3 3 3 3h48c1.7 0 3-1.3 3-3V3c0-1.7-1.3-3-3-3zM5 36H3c-.6 0-1-.4-1-1v-1h3v2zm0-4H2v-2h3v2zm0-4H2v-2h3v2zm0-4H2v-2h3v2zm0-4H2v-2h3v2zm0-4H2v-2h3v2zm0-4H2v-2h3v2zm0-4H2V6h3v2zm0-4H2V3c0-.6.4-1 1-1h2v2zm42 32H7V2h40v34zm5-1c0 .6-.4 1-1 1h-2v-2h3v1zm0-3h-3v-2h3v2zm0-4h-3v-2h3v2zm0-4h-3v-2h3v2zm0-4h-3v-2h3v2zm0-4h-3v-2h3v2zm0-4h-3v-2h3v2zm0-4h-3V6h3v2zm0-4h-3V2h2c.6 0 1 .4 1 1v1zM38 18.5L20 8v21l18-10.5zm-4 0l-12 7v-14l12 7z"/><style>.st0{fill-rule:evenodd;clip-rule:evenodd}</style><path d="M51 0H3C1.3 0 0 1.3 0 3v32c0 1.7 1.3 3 3 3h48c1.7 0 3-1.3 3-3V3c0-1.7-1.3-3-3-3zM5 36H3c-.6 0-1-.4-1-1v-1h3v2zm0-4H2v-2h3v2zm0-4H2v-2h3v2zm0-4H2v-2h3v2zm0-4H2v-2h3v2zm0-4H2v-2h3v2zm0-4H2v-2h3v2zm0-4H2V6h3v2zm0-4H2V3c0-.6.4-1 1-1h2v2zm42 32H7V2h40v34zm5-1c0 .6-.4 1-1 1h-2v-2h3v1zm0-3h-3v-2h3v2zm0-4h-3v-2h3v2zm0-4h-3v-2h3v2zm0-4h-3v-2h3v2zm0-4h-3v-2h3v2zm0-4h-3v-2h3v2zm0-4h-3V6h3v2zm0-4h-3V2h2c.6 0 1 .4 1 1v1zM38 18.5L20 8v21l18-10.5zm-4 0l-12 7v-14l12 7z"/><path d="M0 0h24v24H0z" fill="none"/><path d="M19 19H5V5h7V3H5a2 2 0 0 0-2 2v14a2 2 0 0 0 2 2h14c1.1 0 2-.9 2-2v-7h-2v7zM14 3v2h3.59l-9.83 9.83 1.41 1.41L19 6.41V10h2V3h-7z"/><path d="M42.8 47.4v-1.2C42.8 39.9 38 33 31.2 33h-2.4c4.2-2.5 7.1-7.2 7.1-12.5v-6c0-8-6.5-14.4-14.4-14.4C13.6 0 7.1 6.5 7.1 14.5v6c0 5.3 2.9 10 7.1 12.5h-2.4C5 33 .2 39.9.2 46.2v1.2c-.1 2-.2 4-.2 4.7v1h43v-1c0-.8-.1-2.8-.2-4.7zM21.5 2C28 2 33.3 7 33.8 13.4c-6.2-.4-8.7-3.9-8.8-4.1l-.6-.8-.8.6c-6.7 4.9-12.5 5.3-14.5 5.3C9.2 7.6 14.7 2 21.5 2zM9.1 20.5v-4.1h.2c2.4 0 8.1-.6 14.7-5.1 1.2 1.3 4.3 3.9 9.8 4.2v5.1c0 6.9-5.6 12.5-12.4 12.5S9.1 27.4 9.1 20.5zM20 51H2c0-1 .1-2.5.1-3.6 0-.7.1-1.2.1-1.3 0-5.3 4-11.1 9.6-11.1h1.7l.2.2 6.3 3.6V51zm1-14s-.1 0 0 0l-3.6-2h7.4l-3.6 2H21zm1 14V38.9l6.5-3.7c.1-.1.2-.1.2-.2h2.5c5.7 0 9.6 5.9 9.6 11.2 0 .1 0 .6.1 1.3 0 1 .1 2.5.1 3.6H22zm-5.5-32.4c-1 0-1.9.9-1.9 1.9 0 1.1.9 1.9 1.9 1.9s1.9-.9 1.9-1.9c0-1.1-.8-1.9-1.9-1.9zm9.9 3.8c1 0 1.9-.9 1.9-1.9 0-1.1-.9-1.9-1.9-1.9s-1.9.9-1.9 1.9c.1 1.1.9 1.9 1.9 1.9zm-2.5 4.7c-.4-.4-1-.4-1.4 0-.4.4-.8.6-1.2.6-.6 0-1-.5-1-.5-.4-.4-1-.5-1.4-.1-.4.4-.5 1-.1 1.4.1.1 1 1.2 2.4 1.2h.1c.7 0 1.6-.2 2.5-1.2.5-.3.5-1 .1-1.4zM36.8 44h-9.9c-.5 0-1 .4-1 1s.4 1 1 1h9.9c.5 0 1-.4 1-1s-.4-1-1-1z"/><style>.st0{fill-rule:evenodd;clip-rule:evenodd}</style><path d="M39 15c0-.3-.1-.5-.3-.7l-14-14c-.2-.2-.5-.3-.7-.3H3C1.3 0 0 1.3 0 3v46c0 1.7 1.3 3 3 3h33c1.7 0 3-1.3 3-3V15zM25 3.4L35.6 14H25V3.4zM37 49c0 .6-.4 1-1 1H3c-.6 0-1-.4-1-1V3c0-.6.4-1 1-1h20v13c0 .6.4 1 1 1h13v33zM19.2 14.7c-.4-.5-.9-.7-1.4-.7-.2 0-.5 0-.7.1-.6.2-1.1.7-1.4 1.3-.8 1.9.3 5.1 1.4 7.6-1 3.9-2.6 8.5-4.3 12.3-4.3 2-6.5 3.9-6.7 5.8-.1.7.1 1.7 1.3 2.6.2.2.6.3 1 .3 1 0 2-.8 3.1-2.4.8-1.2 1.7-2.8 2.7-4.8 3-1.3 6.8-2.5 9.9-3.2 1.8 1.7 3.4 2.6 4.7 2.6 1 0 1.9-.5 2.5-1.4.7-.9.8-1.8.4-2.5-.4-.9-1.5-1.3-3.3-1.3-1 0-2.3.1-3.8.4-2.1-2.2-4.2-5.4-5.7-8.6 1.6-6.4.6-7.7.3-8.1zM8.4 42.1c-.5-.4-.5-.7-.5-.8.1-.6 1.1-1.8 3.5-3.1-1.9 3.4-2.9 3.8-3 3.9zM28.5 33c1 0 1.4.2 1.5.2 0 .1-.1.2-.3.5-.3.5-.7.6-1 .6-.6 0-1.4-.4-2.3-1.1.9-.2 1.6-.2 2.1-.2zM17.3 16.2c.1-.2.2-.2.3-.3h.1c.2.3.4 1.3 0 3.7-.4-1.4-.6-2.7-.4-3.4zm5.3 15.7c-2.4.6-5 1.4-7.3 2.3 1.1-2.8 2.2-5.8 3-8.6 1.3 2.3 2.8 4.5 4.3 6.3z"/><path d="M27 0C12.112 0 0 12.112 0 27s12.112 27 27 27 27-12.112 27-27S41.888 0 27 0zm0 52C13.215 52 2 40.785 2 27S13.215 2 27 2s25 11.215 25 25-11.215 25-25 25zm-5-26h2c0-2.757-2.243-5-5-5s-5 2.243-5 5h2c0-1.654 1.346-3 3-3s3 1.346 3 3zm13-5c-2.757 0-5 2.243-5 5h2c0-1.654 1.346-3 3-3s3 1.346 3 3h2c0-2.757-2.243-5-5-5zm-8 10c-4.963 0-9 4.037-9 9s4.037 9 9 9 9-4.037 9-9-4.037-9-9-9zm0 16c-3.859 0-7-3.141-7-7s3.141-7 7-7 7 3.141 7 7-3.141 7-7 7zm0-11a4 4 0 1 0 0 8 4 4 0 0 0 0-8z"/><title>medical-new-10</title><path d="M29.125 37.485a1 1 0 0 1-.974-1.233l.404-1.683a1.002 1.002 0 0 1-1.112-.828l-.658-3.945a1 1 0 0 1 1.973-.329l.437 2.62a1 1 0 0 1 1.834.741l-.932 3.89c-.111.459-.52.767-.972.767zm1.866-7.779a1 1 0 0 1-.973-1.234l.933-3.889a1 1 0 0 1 1.945.467l-.933 3.889c-.11.459-.521.767-.972.767zM39 29a1 1 0 0 1-.97-.758l-.405-1.622a.999.999 0 0 1 1.42-1.136l.008-.017a.999.999 0 1 1 1.82.828l-.963 2.119A.999.999 0 0 1 39 29zm-11.887-2.314a1 1 0 0 1-.985-.836l-.657-3.946a1 1 0 1 1 1.972-.328l.658 3.945a1.001 1.001 0 0 1-.988 1.165zm10.51-3.189a1 1 0 0 1-.969-.758l-.969-3.88a.999.999 0 1 1 1.939-.485l.97 3.88a1 1 0 0 1-.971 1.243zm3.994-.257a1 1 0 0 1-.909-1.414l1.655-3.642a1 1 0 1 1 1.821.828l-1.656 3.642a1 1 0 0 1-.911.586zm-8.759-1.313a1 1 0 0 1-.973-1.234l.933-3.889a1 1 0 0 1 1.946.466l-.934 3.89a1 1 0 0 1-.972.767zM17 20a1 1 0 0 1-.948-1.316l1.264-3.795a.999.999 0 1 1 1.897.632l-1.265 3.795A.999.999 0 0 1 17 20zm-4 0H9a1 1 0 1 1 0-2h4a1 1 0 1 1 0 2zm-8 0H1a1 1 0 1 1 0-2h4a1 1 0 1 1 0 2zm20.798-1.205c-.481 0-.904-.347-.986-.836l-.657-3.946a1 1 0 0 1 1.973-.328l.657 3.945a1 1 0 0 1-.987 1.165zM58.244 18h-4a1 1 0 1 1 0-2h4a1 1 0 1 1 0 2zm-8 0h-4a1 1 0 1 1 0-2h4a1 1 0 1 1 0 2zm-14.561-2.264a1 1 0 0 1-.969-.758l-.215-.856-.008-.002a1 1 0 0 1-.739-1.206l.275-1.147c.108-.448.508-.765.968-.767.443.001.863.31.975.758l.683 2.735a.999.999 0 0 1-.97 1.243zM19.53 12.411a1 1 0 0 1-.948-1.317L19.847 7.3a1 1 0 0 1 1.896.632l-1.264 3.795c-.14.419-.53.684-.949.684zm4.953-1.507a1 1 0 0 1-.985-.836l-.658-3.946a.999.999 0 1 1 1.972-.329l.659 3.946a1 1 0 0 1-.988 1.165zM22.06 4.821a1.001 1.001 0 0 1-.949-1.316l.941-2.821a1 1 0 1 1 1.934.151l.169 1.013a.999.999 0 0 1-.763 1.139l-.384 1.15a1 1 0 0 1-.948.684z" fill="#000" fill-rule="evenodd"/><style>.st0{fill-rule:evenodd;clip-rule:evenodd}</style><path d="M26 0C11.7 0 0 11.7 0 26s11.7 26 26 26 26-11.7 26-26S40.3 0 26 0zM2 26C2 12.8 12.8 2 26 2c6.3 0 12 2.4 16.2 6.3L8.3 42.2C4.4 38 2 32.3 2 26zm24 24c-6.3 0-12-2.4-16.2-6.3L43.7 9.8C47.6 14 50 19.7 50 26c0 13.2-10.8 24-24 24z"/><title>medical-new-34</title><g fill="#000" fill-rule="evenodd"><path d="M25 45H15v-7H8V28h7v-7h10v7h7v10h-7v7zm-8-2h6v-7h7v-6h-7v-7h-6v7h-7v6h7v7zM15 8H4C1.794 8 0 6.205 0 4c0-2.206 1.794-4 4-4h36v2H4c-1.103 0-2 .897-2 2s.897 2 2 2h11v2"/><path d="M37.212 57H2.788A2.792 2.792 0 0 1 0 54.212V4h1.89l.237.663A2.002 2.002 0 0 0 4 6h36v48.212A2.792 2.792 0 0 1 37.212 57zM2 7.455v46.757a.79.79 0 0 0 .788.788h34.424a.79.79 0 0 0 .788-.788V8H4a3.953 3.953 0 0 1-2-.545z"/><path d="M4 3h36v2H4V3z"/></g><title>medical-new-39</title><g transform="translate(0 -1)" fill="#000" fill-rule="evenodd"><path d="M27.75 42h-5.5A2.252 2.252 0 0 1 20 39.75v-8.5a.25.25 0 0 0-.25-.25h-8.5A2.252 2.252 0 0 1 9 28.75v-5.5A2.252 2.252 0 0 1 11.25 21h8.5a.25.25 0 0 0 .25-.25v-8.5A2.252 2.252 0 0 1 22.25 10h5.5A2.252 2.252 0 0 1 30 12.25v8.5c0 .138.112.25.25.25h8.5A2.252 2.252 0 0 1 41 23.25v5.5A2.252 2.252 0 0 1 38.75 31h-8.5a.25.25 0 0 0-.25.25v8.5A2.252 2.252 0 0 1 27.75 42zm-16.5-19a.25.25 0 0 0-.25.25v5.5c0 .138.112.25.25.25h8.5A2.252 2.252 0 0 1 22 31.25v8.5c0 .138.112.25.25.25h5.5a.25.25 0 0 0 .25-.25v-8.5A2.252 2.252 0 0 1 30.25 29h8.5a.25.25 0 0 0 .25-.25v-5.5a.25.25 0 0 0-.25-.25h-8.5A2.252 2.252 0 0 1 28 20.75v-8.5a.25.25 0 0 0-.25-.25h-5.5a.25.25 0 0 0-.25.25v8.5A2.252 2.252 0 0 1 19.75 23h-8.5z"/><path d="M25 56.242l-6.74-4.966C9.758 45.011 4.178 35.815 2.547 25.38L.456 11.996a4.282 4.282 0 0 1 3.025-4.761L25 .958l21.519 6.277a4.283 4.283 0 0 1 3.025 4.761L47.453 25.38c-1.631 10.435-7.211 19.631-15.713 25.896L25 56.242zm0-53.2L4.041 9.154a2.28 2.28 0 0 0-1.609 2.534l2.091 13.383c1.549 9.911 6.849 18.645 14.923 24.594L25 53.758l5.554-4.093c8.074-5.949 13.374-14.683 14.923-24.594l2.091-13.383a2.28 2.28 0 0 0-1.61-2.534L25 3.042z"/></g><style>.st0{fill-rule:evenodd;clip-rule:evenodd}</style><path d="M46 10V0H29v6H4v4H0v34h49V10h-3zM6 8h25V2h13v8H6V8zm41 34H5.9L47 24.5V42zm-26-8.6V18h18v7.7l-18 7.7zm26-11.1l-6 2.6V16H19v18.2L2 41.5V12h45v10.3zM24 22h9v-2h-9v2zm0 4h9v-2h-9v2z"/><style>.st0{fill-rule:evenodd;clip-rule:evenodd}</style><path class="st0" d="M35 6C27-2 14-2 6 6s-8 21 0 29 21 8 29 0 8-21 0-29zm-1.4 27.6c-7.2 7.2-18.9 7.2-26.2 0C.2 26.4.2 14.7 7.4 7.4 14.6.2 26.3.2 33.6 7.4c7.2 7.2 7.2 19 0 26.2zM38 37l-2 2 12 12 2-2-12-12z"/><style>.st0{fill-rule:evenodd;clip-rule:evenodd}</style><path d="M0 0v50h51V0H0zm49 48H2V2h47v46zM7.7 42l2.6-1.4 2.6 1.4-.5-2.9 2.1-2-2.9-.4-1.3-2.7L9 36.6l-2.9.4 2.1 2-.5 3zM18 40h25c.6 0 1-.4 1-1s-.4-1-1-1H18c-.6 0-1 .4-1 1s.4 1 1 1zM7.7 29l2.6-1.4 2.6 1.4-.5-2.9 2.1-2-2.9-.4-1.3-2.7L9 23.6l-2.9.4 2.1 2-.5 3zM18 27h25c.6 0 1-.4 1-1s-.4-1-1-1H18c-.6 0-1 .4-1 1s.4 1 1 1zM7.7 16l2.6-1.4 2.6 1.4-.5-2.9 2.1-2-2.9-.4L10.3 8 9 10.6l-2.9.4 2.1 2-.5 3zM18 14h25c.6 0 1-.4 1-1s-.4-1-1-1H18c-.6 0-1 .4-1 1s.4 1 1 1z"/><style>.st0{fill:#202020}</style><path class="st0" d="M46 7.4c0-2-.8-3.8-2.2-5.2C42.4.8 40.5 0 38.5 0c-1.9 0-3.7.7-5 2.1L28 7.6l-3.8-3.9c-.4-.4-1-.4-1.4 0-.4.4-.4 1 0 1.4L26.5 9 5.3 30.3c-2.2 2.2-2.5 5.6-1 8.6L0 43.3 3.7 47l4.4-4.4c.8.3 1.6.4 2.5.4 2 0 3.9-.8 5.3-2.1L37 19.6l3.8 3.9c.2.2.5.3.7.3.3 0 .5-.1.7-.3.4-.4.4-1 0-1.4l-3.8-3.9 5.5-5.5c1.4-1.4 2.1-3.3 2.1-5.3zm-31.6 32c-1 1-2.4 1.5-3.9 1.5-.8 0-1.6-.2-2.3-.5l-.6-.3-4 4-.9-.9 4-4.1-.4-.7c-1.5-2.4-1.4-5.1.3-6.8l4.5-4.5v.1l3 3c.2.2.5.3.7.3s.5-.1.7-.3c.4-.4.4-1 0-1.4l-3-3h-.1l2.4-2.4v.1l3 3c.2.2.5.3.7.3.3 0 .5-.1.7-.3.4-.4.4-1 0-1.4l-3-3h-.1l3.2-3.2v.1l3 3c.2.2.5.3.7.3s.5-.1.7-.3c.4-.4.4-1 0-1.4l-3-3h-.1l2.4-2.4v.1l3 3c.2.2.5.3.7.3s.5-.1.7-.3c.4-.4.4-1 0-1.4l-3-3h-.1l3.1-3.2 7.7 7.7-20.7 21zM37 16.7L29.3 9l5.5-5.5c.9-1 2.2-1.5 3.6-1.5 1.5 0 2.9.6 3.9 1.6s1.6 2.4 1.6 3.8c0 1.5-.5 2.8-1.5 3.8L37 16.7z"/><path d="M26.9 30.3l2.4-2.4-4.2-4.2-2.4 2.4c-1.2-.7-2.5-1.3-3.8-1.6v-3.3h-6v3.3c-1.4.3-2.6.8-3.8 1.6l-2.4-2.4-4.2 4.2 2.4 2.4c-.7 1.2-1.3 2.4-1.6 3.8H0v6h3.3c.3 1.3.8 2.6 1.6 3.8l-2.4 2.4 4.2 4.2 2.4-2.4c1.2.7 2.4 1.3 3.8 1.6V53h6v-3.3c1.4-.3 2.6-.8 3.8-1.6l2.4 2.4 4.2-4.2-2.4-2.4c.7-1.2 1.3-2.4 1.6-3.8h3.3v-6h-3.3c-.3-1.3-.8-2.6-1.6-3.8zm3 7.8h-3l-.1.8c-.3 1.6-.9 3.2-1.9 4.5l-.5.7 2.1 2.1-1.4 1.4-2.1-2.1-.7.5c-1.4 1-2.9 1.6-4.5 1.9l-.9.1v3h-2v-3l-.8-.1c-1.6-.3-3.2-.9-4.5-1.9l-.7-.5-2.1 2.1-1.4-1.4 2.1-2.1-.5-.7c-1-1.4-1.6-2.9-1.9-4.5l-.1-.8H2v-2h3l.1-.8c.3-1.7.9-3.2 1.9-4.5l.5-.7L5.4 28l1.4-1.4 2.1 2.1.7-.5c1.4-1 2.9-1.6 4.5-1.9l.8-.1v-3h2v3l.8.1c1.6.3 3.2.9 4.5 1.9l.7.5 2.1-2.1 1.4 1.4-2.1 2.1.5.7c1 1.4 1.6 2.9 1.9 4.5l.1.8h3v2zm-14-5c-2.2 0-4 1.8-4 4s1.8 4 4 4 4-1.8 4-4-1.8-4-4-4zm0 6c-1.1 0-2-.9-2-2s.9-2 2-2 2 .9 2 2-.9 2-2 2zm38.9-22.8l3.3-.8-1.4-5.8-3.3.8C52.8 9.2 52 8.1 51 7.1l1.8-2.8-5.1-3.2-1.8 2.8c-1.3-.4-2.7-.7-4.1-.7L41.1 0l-5.8 1.4.8 3.3c-1.3.5-2.4 1.3-3.4 2.3l-2.8-1.8-3.2 5.1 2.8 1.8c-.4 1.3-.7 2.7-.7 4.1l-3.3.8 1.4 5.8 3.3-.8c.6 1.2 1.4 2.4 2.4 3.3l-1.8 2.8 5.1 3.2 1.8-2.8c1.3.4 2.7.7 4.1.7l.8 3.3 5.8-1.4-.8-3.3c1.2-.6 2.4-1.4 3.3-2.4l2.8 1.8 3.2-5.1-2.8-1.8c.4-1.3.6-2.7.7-4zm-.6 6.4l-1.1 1.7-2.6-1.6-.5.6c-1.1 1.2-2.4 2.2-4 2.8l-.8.3.7 2.9-1.9.6-.7-2.9-.8.1c-1.7.1-3.3-.2-4.8-.8l-.8-.4-1.6 2.6-1.7-1.1 1.6-2.6-.6-.6c-1.2-1.1-2.2-2.4-2.8-4l-.3-.8-2.9.7-.6-1.8 2.9-.7-.1-.8c-.1-1.7.2-3.3.8-4.8l.3-.8-2.6-1.6L30.5 8l2.6 1.6.6-.6c1.1-1.2 2.4-2.2 4-2.8l.8-.3-.7-2.9 1.9-.5.7 2.9.8-.1c1.7-.1 3.3.2 4.8.8l.8.3 1.6-2.6L50 4.9l-1.6 2.6.7.5c1.2 1.1 2.2 2.4 2.8 4l.3.8 2.9-.7.5 1.9-2.9.7.1.8c.1 1.7-.2 3.3-.8 4.8l-.3.8 2.5 1.6zM41.8 12.2c-.3 0-.6 0-.9.1-2.1.5-3.5 2.6-3 4.8.4 1.8 2 3.1 3.9 3.1.3 0 .6 0 .9-.1 1-.2 1.9-.9 2.5-1.8.6-.9.7-2 .5-3-.4-1.8-2-3.1-3.9-3.1zm1.7 5c-.3.5-.7.8-1.2.9-1.1.2-2.1-.4-2.4-1.5-.2-1.1.4-2.1 1.5-2.4.1 0 .3-.1.5-.1.9 0 1.7.6 1.9 1.5.1.7 0 1.2-.3 1.6z"/><style>.st0{fill-rule:evenodd;clip-rule:evenodd}</style><path d="M51 0H3C1.3 0 0 1.3 0 3v32c0 1.7 1.3 3 3 3h48c1.7 0 3-1.3 3-3V3c0-1.7-1.3-3-3-3zM5 36H3c-.6 0-1-.4-1-1v-1h3v2zm0-4H2v-2h3v2zm0-4H2v-2h3v2zm0-4H2v-2h3v2zm0-4H2v-2h3v2zm0-4H2v-2h3v2zm0-4H2v-2h3v2zm0-4H2V6h3v2zm0-4H2V3c0-.6.4-1 1-1h2v2zm42 32H7V2h40v34zm5-1c0 .6-.4 1-1 1h-2v-2h3v1zm0-3h-3v-2h3v2zm0-4h-3v-2h3v2zm0-4h-3v-2h3v2zm0-4h-3v-2h3v2zm0-4h-3v-2h3v2zm0-4h-3v-2h3v2zm0-4h-3V6h3v2zm0-4h-3V2h2c.6 0 1 .4 1 1v1zM26.6 31.3c7 0 12.7-5.7 12.7-12.7 0-7-5.7-12.7-12.7-12.7-7 0-12.7 5.7-12.7 12.7 0 7 5.7 12.7 12.7 12.7zm0-23.4c5.9 0 10.7 4.8 10.7 10.7 0 5.9-4.8 10.7-10.7 10.7-5.9 0-10.7-4.8-10.7-10.7 0-5.9 4.8-10.7 10.7-10.7zM34 19l-12-7v14l12-7zm-4.1 0L24 22.4v-6.9l5.9 3.5z"/><style>.st0{fill-rule:evenodd;clip-rule:evenodd}</style><path d="M56 34.9V5.2L0 0v40.1l28-2.6v5.7l-4.2.8c-.5.1-.9.6-.8 1.2.1.5.5.8 1 .8h.2l11-2c.5-.1.9-.6.8-1.2-.1-.5-.6-.9-1.2-.8l-4.8.9v-5.6l26-2.4zm-54 3V2.2L54 7v26.1L2 37.9zm3-25.8c.2 0 .3 0 .5-.1l7-4c.5-.3.6-.9.4-1.4-.3-.5-.9-.6-1.4-.4l-7 4c-.5.3-.6.9-.4 1.4.2.3.6.5.9.5zm15.2-5.4l-15.5 9c-.4.3-.6.9-.3 1.3.2.3.5.5.9.5.2 0 .3 0 .5-.1l15.5-9c.5-.3.6-.9.4-1.4-.4-.4-1-.5-1.5-.3z"/><style>.st0{fill-rule:evenodd;clip-rule:evenodd}</style><path d="M26.8 46l-1.9-1.5c-11.3-8.7-18.1-13.9-22-20.7C0 18.8-.7 13.8.7 9.5 1.9 5.9 4.5 3 8.2 1.3 10 .4 12.1 0 14.2 0c5.1 0 9.9 2.5 12.5 6.5 2.7-4 7.5-6.5 12.6-6.5 2.1 0 4.2.4 6.1 1.3C49 3 51.7 5.9 52.9 9.5c1.4 4.3.6 9.3-2.2 14.3-3.9 6.8-10.7 12.1-22 20.7L26.8 46zM14.2 2c-1.8 0-3.6.4-5.2 1.1-3.1 1.4-5.4 3.9-6.4 7-1.2 3.8-.5 8.2 2.1 12.7C8.3 29.3 15 34.5 26.1 43l.7.5.6-.5c11.1-8.5 17.8-13.7 21.5-20.2 2.6-4.5 3.3-8.9 2.1-12.7-1-3.1-3.3-5.6-6.4-7-1.7-.7-3.4-1.1-5.3-1.1-5 0-9.7 2.8-11.6 6.9l-.9 2-.9-2C23.9 4.8 19.2 2 14.2 2z"/></symbol></svg>