<?xml version="1.0" encoding="UTF-8" standalone="no"?>
<svg id="ic_apology-communication" width="58px" height="57px" viewBox="0 0 58 57" version="1.1" xmlns="http://www.w3.org/2000/svg" xmlns:xlink="http://www.w3.org/1999/xlink" xmlns:sketch="http://www.bohemiancoding.com/sketch/ns">
    <!-- Generator: Sketch 3.3.2 (12043) - http://www.bohemiancoding.com/sketch -->
    <title>communication-2</title>
    <desc>Created with Sketch.</desc>
    <defs></defs>
    <g id="Page-1" stroke="none" stroke-width="1">
        <g id="communication-2">
            <path d="M1.514,56.647 L4.842,44.447 C1.672,40.256 0,35.272 0,30 C0,16.766 10.767,6 24,6 C37.233,6 48,16.766 48,30 C48,43.234 37.233,54 24,54 C20.505,54 17.141,53.267 13.995,51.821 L1.514,56.647 L1.514,56.647 Z M24,8 C11.869,8 2,17.869 2,30 C2,34.987 3.633,39.694 6.723,43.61 L7.035,44.006 L4.486,53.353 L14.077,49.645 L14.467,49.833 C17.453,51.271 20.661,52 24,52 C36.131,52 46,42.131 46,30 C46,17.869 36.131,8 24,8 L24,8 Z" id="Fill-5" sketch:type="MSShapeGroup"></path>
            <path d="M27.566,25.122 C26.082,25.122 24.627,24.743 23.391,23.793 C20.384,21.482 16.364,21.449 14.042,23.716 C13.646,24.101 13.014,24.094 12.628,23.699 C12.242,23.303 12.249,22.67 12.644,22.284 C15.674,19.327 20.817,19.293 24.609,22.207 C27.451,24.391 32.48,22.222 34.271,20.315 C34.65,19.912 35.283,19.893 35.685,20.271 C36.087,20.649 36.107,21.282 35.729,21.685 C34.213,23.298 30.821,25.122 27.566,25.122" id="Fill-6" sketch:type="MSShapeGroup"></path>
            <path d="M27.566,33.122 C26.082,33.122 24.627,32.743 23.391,31.793 C20.384,29.482 16.364,29.449 14.042,31.715 C13.646,32.101 13.014,32.094 12.628,31.698 C12.242,31.303 12.249,30.67 12.644,30.284 C15.674,27.327 20.817,27.293 24.609,30.207 C27.451,32.391 32.48,30.223 34.271,28.315 C34.65,27.912 35.283,27.893 35.685,28.271 C36.087,28.649 36.107,29.282 35.729,29.685 C34.213,31.298 30.821,33.122 27.566,33.122" id="Fill-7" sketch:type="MSShapeGroup"></path>
            <path d="M27.566,41.122 C26.082,41.122 24.627,40.743 23.391,39.793 C20.384,37.482 16.364,37.449 14.042,39.716 C13.646,40.101 13.014,40.094 12.628,39.699 C12.242,39.303 12.249,38.67 12.644,38.284 C15.674,35.327 20.817,35.293 24.609,38.207 C27.451,40.391 32.48,38.222 34.271,36.315 C34.65,35.913 35.283,35.893 35.685,36.271 C36.087,36.649 36.107,37.282 35.729,37.685 C34.213,39.298 30.821,41.122 27.566,41.122" id="Fill-8" sketch:type="MSShapeGroup"></path>
            <path d="M56.486,50.647 L44.005,45.821 C42.937,46.311 41.83,46.724 40.708,47.049 L37.049,48.111 L39.715,45.389 C43.768,41.251 46,35.786 46,30 C46,17.869 36.131,8 24,8 C21.92,8 19.848,8.296 17.841,8.88 L14.181,9.945 L16.847,7.22 C21.402,2.564 27.494,0 34,0 C47.233,0 58,10.766 58,24 C58,29.272 56.328,34.256 53.158,38.447 L56.486,50.647 L56.486,50.647 Z M43.923,43.645 L53.514,47.353 L50.965,38.006 L51.277,37.61 C54.367,33.694 56,28.987 56,24 C56,11.869 46.131,2 34,2 C29.295,2 24.827,3.463 21.1,6.176 C22.061,6.059 23.03,6 24,6 C37.233,6 48,16.766 48,30 C48,34.991 46.477,39.764 43.655,43.774 L43.923,43.645 L43.923,43.645 Z" id="Fill-9" sketch:type="MSShapeGroup"></path>
        </g>
    </g>
</svg>