<?xml version="1.0" encoding="utf-8"?>
<!-- Generator: Adobe Illustrator 16.0.0, SVG Export Plug-In . SVG Version: 6.00 Build 0)  -->
<!DOCTYPE svg PUBLIC "-//W3C//DTD SVG 1.1//EN" "http://www.w3.org/Graphics/SVG/1.1/DTD/svg11.dtd">
<svg version="1.1" id="Layer_1" xmlns="http://www.w3.org/2000/svg" xmlns:xlink="http://www.w3.org/1999/xlink" x="0px" y="0px"
	 width="33px" height="57px" viewBox="0 0 33 57" style="enable-background:new 0 0 33 57;" xml:space="preserve">
<style type="text/css">
<![CDATA[
	.st0{fill-rule:evenodd;clip-rule:evenodd;}
]]>
</style>
<g>
	<g>
		<path d="M16.5,47C23.4,47,29,41.4,29,34.5v-22C29,5.6,23.4,0,16.5,0S4,5.6,4,12.5v22C4,41.4,9.6,47,16.5,47z M6,12.5
			C6,6.7,10.7,2,16.5,2C22.3,2,27,6.7,27,12.5v22C27,40.3,22.3,45,16.5,45C10.7,45,6,40.3,6,34.5V12.5z M32,24c-0.6,0-1,0.4-1,1v9.5
			c0,8-6.5,14.5-14.5,14.5S2,42.5,2,34.5V25c0-0.6-0.4-1-1-1s-1,0.4-1,1v9.5c0,8.6,6.6,15.7,15,16.4c0,0,0,0,0,0.1v4h-3
			c-0.6,0-1,0.4-1,1s0.4,1,1,1h8c0.6,0,1-0.4,1-1s-0.4-1-1-1h-3v-4c0,0,0,0,0,0c8.9-0.3,16-7.5,16-16.5V25C33,24.4,32.6,24,32,24z
			 M9,13h15c0.6,0,1-0.4,1-1c0-0.6-0.4-1-1-1H9c-0.6,0-1,0.4-1,1C8,12.6,8.4,13,9,13z M9,17h15c0.6,0,1-0.4,1-1c0-0.6-0.4-1-1-1H9
			c-0.6,0-1,0.4-1,1C8,16.6,8.4,17,9,17z M9,21h15c0.6,0,1-0.4,1-1c0-0.6-0.4-1-1-1H9c-0.6,0-1,0.4-1,1C8,20.6,8.4,21,9,21z M9,25
			h15c0.6,0,1-0.4,1-1c0-0.6-0.4-1-1-1H9c-0.6,0-1,0.4-1,1C8,24.6,8.4,25,9,25z M9,29h15c0.6,0,1-0.4,1-1c0-0.6-0.4-1-1-1H9
			c-0.6,0-1,0.4-1,1C8,28.6,8.4,29,9,29z M9,33h15c0.6,0,1-0.4,1-1c0-0.6-0.4-1-1-1H9c-0.6,0-1,0.4-1,1C8,32.6,8.4,33,9,33z M25,36
			c0-0.6-0.4-1-1-1H9c-0.6,0-1,0.4-1,1c0,0.6,0.4,1,1,1h15C24.6,37,25,36.6,25,36z"/>
	</g>
</g>
</svg>
