<?xml version="1.0" encoding="utf-8"?>
<!-- Generator: Adobe Illustrator 16.0.0, SVG Export Plug-In . SVG Version: 6.00 Build 0)  -->
<!DOCTYPE svg PUBLIC "-//W3C//DTD SVG 1.1//EN" "http://www.w3.org/Graphics/SVG/1.1/DTD/svg11.dtd">
<svg version="1.1" id="Layer_1" xmlns="http://www.w3.org/2000/svg" xmlns:xlink="http://www.w3.org/1999/xlink" x="0px" y="0px"
	 width="57px" height="50px" viewBox="0 0 57 50" style="enable-background:new 0 0 57 50;" xml:space="preserve">
<g>
	<g>
		<path d="M48.5,0H9.7L0,10.3V17h3v33h52V17h2v-6.6L48.5,0z M53,48H5V17h48V48z M55,15H3H2v-3.9L10.6,2h37l7.4,9.1V15z M15,31h28
			c1.7,0,3-1.3,3-3v-2c0-1.7-1.3-3-3-3H15c-1.7,0-3,1.3-3,3v2C12,29.7,13.3,31,15,31z M14,26c0-0.6,0.4-1,1-1h28c0.6,0,1,0.4,1,1v2
			c0,0.6-0.4,1-1,1H15c-0.6,0-1-0.4-1-1V26z"/>
	</g>
</g>
</svg>
