<?xml version="1.0" encoding="utf-8"?>
<!-- Generator: Adobe Illustrator 16.0.0, SVG Export Plug-In . SVG Version: 6.00 Build 0)  -->
<!DOCTYPE svg PUBLIC "-//W3C//DTD SVG 1.1//EN" "http://www.w3.org/Graphics/SVG/1.1/DTD/svg11.dtd">
<svg fill="#DE8B27" version="1.1" id="Layer_1" xmlns="http://www.w3.org/2000/svg" xmlns:xlink="http://www.w3.org/1999/xlink" x="0px" y="0px"
	 width="52px" height="42.6px" viewBox="0 0 52 42.6" style="enable-background:new 0 0 52 42.6;" xml:space="preserve">
<style type="text/css">
<![CDATA[
	.st0{fill-rule:evenodd;clip-rule:evenodd;}
]]>
</style>
<g>
	<g>
		<path d="M51.6,3.8c-0.1-0.1-0.2-0.2-0.3-0.3L51,3.4c-12.2-7-23.2-1-24.9,0l-0.1,0C12.7-4.3,0.9,3.5,0.8,3.5
			c-0.1,0-0.1,0.1-0.1,0.1C0.3,3.8,0,4.2,0,4.6v37c0,0.6,0.4,1,1,1c0,0,0.1,0,0.1,0c0.2,0.1,0.5,0,0.7-0.1c0.1-0.1,11-5.6,23.4-0.1
			l0.3,0.1c0.1,0.1,0.3,0.1,0.4,0.1c0,0,0.1,0,0.1,0c0,0,0,0,0,0c0,0,0.1,0,0.1,0c0,0,0,0,0,0c0.2,0.1,0.5,0,0.7-0.1
			c0.1-0.1,11-5.6,23.4-0.1l0.3,0.1c0.1,0.1,0.3,0.1,0.4,0.1c0,0,0.1,0,0.1,0c0,0,0,0,0,0c0,0,0.1,0,0.1,0c0,0,0,0,0,0
			c0.5-0.1,0.8-0.5,0.8-1v-37C52,4.3,51.8,4,51.6,3.8z M2,40.2v-35c0.9-0.6,11.3-6.8,23-0.1l0,0v35C14.4,35.8,5.1,38.9,2,40.2z
			 M27,40.2v-35c0.9-0.6,11.3-6.8,23-0.1l0,0v35C39.4,35.8,30.1,38.9,27,40.2z"/>
	</g>
</g>
</svg>
