<?xml version="1.0" encoding="utf-8"?>
<!-- Generator: Adobe Illustrator 16.0.0, SVG Export Plug-In . SVG Version: 6.00 Build 0)  -->
<!DOCTYPE svg PUBLIC "-//W3C//DTD SVG 1.1//EN" "http://www.w3.org/Graphics/SVG/1.1/DTD/svg11.dtd">
<svg version="1.1" id="Layer_1" xmlns="http://www.w3.org/2000/svg" xmlns:xlink="http://www.w3.org/1999/xlink" x="0px" y="0px"
	 width="52px" height="51px" viewBox="0 0 52 51" style="enable-background:new 0 0 52 51;" xml:space="preserve">
<style type="text/css">
<![CDATA[
	.st0{fill-rule:evenodd;clip-rule:evenodd;}
]]>
</style>
<g>
	<g>
		<path d="M13.1,9H39c0.6,0,1-0.4,1-1s-0.4-1-1-1H13.1c-0.6,0-1,0.4-1,1S12.5,9,13.1,9z M11.1,16H41c0.6,0,1-0.4,1-1
			c0-0.6-0.4-1-1-1H11.1c-0.6,0-1,0.4-1,1C10.1,15.6,10.5,16,11.1,16z M9.1,23H43c0.6,0,1-0.4,1-1c0-0.6-0.4-1-1-1H9.1
			c-0.6,0-1,0.4-1,1C8.1,22.6,8.5,23,9.1,23z M45,28H7.1c-0.6,0-1,0.4-1,1c0,0.6,0.4,1,1,1H45c0.6,0,1-0.4,1-1
			C46,28.4,45.5,28,45,28z M51.8,37.4L44.3,0.8c-0.1-0.5-0.5-0.8-1-0.8H8.6c-0.5,0-0.9,0.3-1,0.8L0,37.8c0,0.2,0,0.4,0.1,0.6V50
			c0,0.6,0.4,1,1,1H51c0.6,0,1-0.4,1-1V38C52,37.8,51.9,37.6,51.8,37.4z M9.4,2h33.1l7.2,35H2.2L9.4,2z M50,49H2.1v-2H50V49z M50,45
			H2.1v-2H50V45z M50,41H2.1v-2H50V41z"/>
	</g>
</g>
</svg>
