<?xml version="1.0" encoding="UTF-8" standalone="no"?>
<svg width="52px" height="56px" viewBox="0 0 52 56" version="1.1" xmlns="http://www.w3.org/2000/svg" xmlns:xlink="http://www.w3.org/1999/xlink" xmlns:sketch="http://www.bohemiancoding.com/sketch/ns">
    <!-- Generator: Sketch 3.3.2 (12043) - http://www.bohemiancoding.com/sketch -->
    <title>medical-new-19</title>
    <desc>Created with Sketch.</desc>
    <defs></defs>
    <g id="Page-1" stroke="none" stroke-width="1">
        <g id="medical-new-19">
            <path d="M0,0 L2,0 L2,56 L0,56 L0,0 Z" id="Fill-113" sketch:type="MSShapeGroup"></path>
            <path d="M8,6 L52,6 L52,50 L8,50 L8,6 Z M10,48 L50,48 L50,8 L10,8 L10,48 Z" id="Fill-114" sketch:type="MSShapeGroup"></path>
            <path d="M0,17 L10,17 L10,39 L0,39 L0,17 Z M2,37 L8,37 L8,19 L2,19 L2,37 Z" id="Fill-115" sketch:type="MSShapeGroup"></path>
            <path d="M37,43 L23,43 L23,35 L15,35 L15,21 L23,21 L23,13 L37,13 L37,21 L45,21 L45,35 L37,35 L37,43 L37,43 Z M25,41 L35,41 L35,33 L43,33 L43,23 L35,23 L35,15 L25,15 L25,23 L17,23 L17,33 L25,33 L25,41 L25,41 Z" id="Fill-116" sketch:type="MSShapeGroup"></path>
        </g>
    </g>
</svg>