<?xml version="1.0" encoding="UTF-8" standalone="no"?>
<svg width="58px" height="56px" viewBox="0 0 58 56" version="1.1" xmlns="http://www.w3.org/2000/svg" xmlns:xlink="http://www.w3.org/1999/xlink" xmlns:sketch="http://www.bohemiancoding.com/sketch/ns">
    <!-- Generator: Sketch 3.3.2 (12043) - http://www.bohemiancoding.com/sketch -->
    <title>medical-new-44</title>
    <desc>Created with Sketch.</desc>
    <defs></defs>
    <g id="Page-1" stroke="none" stroke-width="1">
        <g id="medical-new-44">
            <path d="M16,49 C7.178,49 0,41.822 0,33 C0,24.177 7.178,17 16,17 C24.822,17 32,24.177 32,33 C32,41.822 24.822,49 16,49 L16,49 Z M16,19 C8.28,19 2,25.28 2,33 C2,40.72 8.28,47 16,47 C23.72,47 30,40.72 30,33 C30,25.28 23.72,19 16,19 L16,19 Z"></path>
            <path d="M1,32 L31,32 L31,34 L1,34 L1,32 Z"></path>
            <path d="M37.075,55.419 C35.483,55.419 33.986,54.806 32.86,53.694 C31.724,52.572 31.092,51.069 31.082,49.462 C31.072,47.856 31.685,46.345 32.807,45.209 L47.683,30.333 C48.833,29.167 50.352,28.523 51.957,28.523 C53.491,28.523 54.943,29.123 56.047,30.213 C57.168,31.32 57.829,32.878 57.86,34.489 C57.894,36.142 57.293,37.678 56.172,38.814 L41.341,53.645 C40.213,54.787 38.696,55.419 37.075,55.419 L37.075,55.419 Z M51.957,30.523 C50.892,30.523 49.878,30.956 49.102,31.743 L34.226,46.619 C33.483,47.371 33.075,48.378 33.082,49.45 C33.089,50.522 33.509,51.524 34.265,52.271 C35.015,53.011 36.013,53.419 37.075,53.419 C38.157,53.419 39.169,52.998 39.922,52.235 L54.753,37.404 C55.487,36.66 55.883,35.637 55.861,34.529 C55.84,33.434 55.396,32.38 54.643,31.636 C53.915,30.918 52.962,30.523 51.957,30.523 L51.957,30.523 Z"></path>
            <path d="M47.683,45.889 L40.611,38.818 L42.025,37.404 L49.097,44.475 L47.683,45.889"></path>
            <path d="M42.016,21.169 C41.221,21.169 40.451,21.011 39.729,20.701 L20.506,12.311 C17.472,11.01 16.06,7.475 17.363,4.434 C18.31,2.228 20.479,0.802 22.892,0.802 C23.703,0.802 24.494,0.965 25.243,1.286 L44.523,9.701 C47.594,11.018 48.987,14.42 47.69,17.444 C46.735,19.672 44.455,21.169 42.016,21.169 L42.016,21.169 Z M22.892,2.802 C21.28,2.802 19.832,3.752 19.201,5.223 C18.332,7.25 19.273,9.606 21.301,10.476 L40.523,18.866 C40.989,19.066 41.493,19.169 42.016,19.169 C43.666,19.169 45.208,18.159 45.852,16.656 C46.707,14.663 45.774,12.414 43.728,11.536 L24.448,3.121 C23.956,2.91 23.431,2.802 22.892,2.802 L22.892,2.802 Z"></path>
            <path d="M31.875,16.182 L30.041,15.382 L34.041,6.217 L35.875,7.017 L31.875,16.182"></path>
        </g>
    </g>
</svg>