<?xml version="1.0" encoding="utf-8"?>
<!-- Generator: Adobe Illustrator 16.0.0, SVG Export Plug-In . SVG Version: 6.00 Build 0)  -->
<!DOCTYPE svg PUBLIC "-//W3C//DTD SVG 1.1//EN" "http://www.w3.org/Graphics/SVG/1.1/DTD/svg11.dtd">
<svg version="1.1" id="Layer_1" xmlns="http://www.w3.org/2000/svg" xmlns:xlink="http://www.w3.org/1999/xlink" x="0px" y="0px"
	 width="58px" height="51px" viewBox="0 0 58 51" style="enable-background:new 0 0 58 51;" xml:space="preserve">
<g>
	<g fill="#266294">
		<path d="M47.6,40.6L58,41.4L46.1,29.4c1.4-2.8,2.2-5.9,2.2-9.2C48.4,9.1,39.3,0,28.2,0C17.1,0,8.1,9.1,8.1,20.2
			c0,3.7,1,7.2,2.8,10.2L0,41.4l10.4-0.7L9.7,51l11.8-11.8c2.1,0.8,4.4,1.2,6.8,1.2c2.8,0,5.5-0.6,7.9-1.6L48.3,51L47.6,40.6z
			 M19.5,38.4l-7.4,7.4l0.5-7.3L5.2,39l6.8-6.8c0.2,0.2,0.3,0.4,0.5,0.7c0.1,0.1,0.2,0.2,0.2,0.3c0.4,0.4,0.7,0.8,1.1,1.2
			c0.1,0.1,0.2,0.2,0.3,0.3c0.4,0.4,0.8,0.8,1.3,1.2c0,0,0.1,0,0.1,0.1c0.4,0.3,0.8,0.7,1.3,1c0.1,0.1,0.3,0.2,0.4,0.3
			c0.4,0.3,0.9,0.6,1.3,0.8c0.2,0.1,0.4,0.2,0.6,0.3C19.2,38.2,19.3,38.3,19.5,38.4z M21.5,37.1c-0.3-0.1-0.7-0.3-1-0.4
			c-0.2-0.1-0.3-0.1-0.5-0.2c-0.3-0.1-0.6-0.3-0.8-0.4c-0.2-0.1-0.4-0.3-0.7-0.4c-0.2-0.1-0.4-0.3-0.6-0.4c-0.4-0.3-0.8-0.6-1.2-0.9
			c-0.1-0.1-0.2-0.2-0.3-0.2c-0.3-0.3-0.6-0.6-0.9-0.8c-0.2-0.1-0.3-0.3-0.4-0.5c-0.2-0.2-0.4-0.4-0.6-0.7c-0.2-0.2-0.3-0.4-0.5-0.6
			c-0.2-0.2-0.3-0.4-0.5-0.6c-0.2-0.2-0.3-0.5-0.5-0.7c-1.9-2.9-3-6.3-3-9.9c0-10,8.1-18.2,18.2-18.2c10,0,18.2,8.2,18.2,18.2
			c0,3.1-0.8,6.1-2.2,8.6L44.1,29c-0.2,0.4-0.5,0.8-0.7,1.2c-0.1,0.2-0.2,0.4-0.4,0.5c-0.2,0.3-0.5,0.6-0.7,0.9
			c-0.1,0.2-0.2,0.3-0.4,0.4c-0.2,0.3-0.5,0.5-0.7,0.8c-0.1,0.1-0.3,0.3-0.4,0.4c-0.2,0.2-0.5,0.4-0.7,0.7c-0.2,0.1-0.3,0.3-0.5,0.4
			c-0.2,0.2-0.4,0.3-0.7,0.5c-0.5,0.4-1.1,0.8-1.7,1.1c0,0-0.1,0-0.1,0.1c-0.4,0.2-0.7,0.4-1.1,0.6c-0.2,0.1-0.4,0.2-0.5,0.3
			L35.2,37c-2.2,0.9-4.5,1.4-7,1.4C25.9,38.4,23.6,37.9,21.5,37.1z M38,37.9c0.1-0.1,0.2-0.1,0.3-0.2c0.3-0.2,0.6-0.3,0.8-0.5
			c0.2-0.1,0.4-0.3,0.6-0.4c0.4-0.3,0.7-0.5,1.1-0.8c0.1-0.1,0.2-0.1,0.2-0.2c0.4-0.3,0.8-0.7,1.2-1.1c0.1-0.1,0.2-0.2,0.3-0.3
			c0.4-0.4,0.8-0.8,1.1-1.3c0-0.1,0.1-0.1,0.1-0.2c0.3-0.4,0.6-0.8,0.9-1.2c0.1-0.1,0.2-0.2,0.2-0.4c0,0,0.1-0.1,0.1-0.1l7.8,7.8
			l-7.4-0.5l0.5,7.3L38,37.9z"/>
	</g>
</g>
</svg>
