<?xml version="1.0" encoding="utf-8"?>
<!-- Generator: Adobe Illustrator 16.0.0, SVG Export Plug-In . SVG Version: 6.00 Build 0)  -->
<!DOCTYPE svg PUBLIC "-//W3C//DTD SVG 1.1//EN" "http://www.w3.org/Graphics/SVG/1.1/DTD/svg11.dtd">
<svg version="1.1" id="Layer_1" xmlns="http://www.w3.org/2000/svg" xmlns:xlink="http://www.w3.org/1999/xlink" x="0px" y="0px"
	 width="52px" height="51px" viewBox="0 0 52 51" style="enable-background:new 0 0 52 51;" xml:space="preserve">
<g>
	<g>
		<path d="M49,43.2V15.1c0.2-0.3,0.3-0.6,0.3-1c0-0.7-0.4-1.4-1.2-1.8L26.9,0.5c-1.2-0.7-3.2-0.7-4.4,0L1.2,12.2
			C0.4,12.7,0,13.3,0,14.1s0.4,1.4,1.2,1.8l7,3.9V30c0,6.1,4.9,11,10.9,11h11.9c6,0,10.9-4.9,10.9-11V19.2l5-2.8v26.7
			c-1.7,0.4-3,2-3,3.9c0,2.2,1.8,4,4,4s4-1.8,4-4C52,45.2,50.7,43.6,49,43.2z M40.1,30c0,5-4,9-8.9,9H19.2c-4.9,0-8.9-4-8.9-9v-9.1
			l12.2,6.7c0.6,0.3,1.4,0.5,2.2,0.5c0.8,0,1.6-0.2,2.2-0.5l13.2-7.3V30z M25.9,25.9c-0.6,0.3-1.9,0.3-2.5,0L2.2,14.2
			c-0.1,0-0.1-0.1-0.1-0.1c0,0,0.1-0.1,0.1-0.1L23.4,2.3c0.6-0.3,1.9-0.3,2.5,0L47.1,14c0.1,0,0.1,0.1,0.1,0.1H47v0.1L25.9,25.9z
			 M48,49c-1.1,0-2-0.9-2-2c0-1.1,0.9-2,2-2s2,0.9,2,2C50,48.1,49.1,49,48,49z"/>
	</g>
</g>
</svg>
