<?xml version="1.0" encoding="utf-8"?>
<!-- Generator: Adobe Illustrator 16.0.0, SVG Export Plug-In . SVG Version: 6.00 Build 0)  -->
<!DOCTYPE svg PUBLIC "-//W3C//DTD SVG 1.1//EN" "http://www.w3.org/Graphics/SVG/1.1/DTD/svg11.dtd">
<svg version="1.1" id="Layer_1" xmlns="http://www.w3.org/2000/svg" xmlns:xlink="http://www.w3.org/1999/xlink" x="0px" y="0px"
	 width="43.6px" height="43.4px" viewBox="0 0 43.6 43.4" style="enable-background:new 0 0 43.6 43.4;" xml:space="preserve">
<style type="text/css">
<![CDATA[
	.st0{fill:#202020;}
]]>
</style>
<g>
	<g>
		<path class="st0" d="M38.4,5.3C35,1.9,30.4,0,25.6,0c-4.8,0-9.3,1.9-12.7,5.3C9.5,8.7,7.6,13.2,7.6,18c0,4.4,1.6,8.6,4.5,11.9
			l-5.8,5.8l-5-5L0,32.1l5,5l-4.2,4.2l1.4,1.4l4.2-4.2l5,5l1.4-1.4l-4.9-5l5.8-5.8c3.3,3,7.6,4.7,12.1,4.7c4.8,0,9.3-1.9,12.7-5.3
			c3.4-3.4,5.3-7.9,5.3-12.7S41.8,8.7,38.4,5.3z M36.9,29.3c-3,3-7,4.7-11.3,4.7c-4.3,0-8.3-1.7-11.3-4.7c-3-3-4.7-7-4.7-11.3
			s1.7-8.3,4.7-11.3c3-3,7-4.7,11.3-4.7c4.3,0,8.3,1.7,11.3,4.7c3,3,4.7,7,4.7,11.3S40,26.3,36.9,29.3z"/>
	</g>
</g>
</svg>
