<?xml version="1.0" encoding="UTF-8" standalone="no"?>
<svg width="52px" height="56px" viewBox="0 0 52 56" version="1.1" xmlns="http://www.w3.org/2000/svg" xmlns:xlink="http://www.w3.org/1999/xlink" xmlns:sketch="http://www.bohemiancoding.com/sketch/ns">
    <!-- Generator: Sketch 3.3.2 (12043) - http://www.bohemiancoding.com/sketch -->
    <title>medical-new-20</title>
    <desc>Created with Sketch.</desc>
    <defs></defs>
    <g id="Page-1" stroke="none" stroke-width="1" >
        <g id="medical-new-20" >
            <path d="M0,0 L2,0 L2,56 L0,56 L0,0 Z" id="Fill-117" sketch:type="MSShapeGroup"></path>
            <path d="M8,6 L52,6 L52,50 L8,50 L8,6 Z M10,48 L50,48 L50,8 L10,8 L10,48 Z" id="Fill-118" sketch:type="MSShapeGroup"></path>
            <path d="M0,17 L10,17 L10,39 L0,39 L0,17 Z M2,37 L8,37 L8,19 L2,19 L2,37 Z" id="Fill-119" sketch:type="MSShapeGroup"></path>
            <path d="M45,42 L34,42 L34,33 L26,33 L26,42 L15,42 L15,13 L26,13 L26,22 L34,22 L34,13 L45,13 L45,42 L45,42 Z M36,40 L43,40 L43,15 L36,15 L36,24 L24,24 L24,15 L17,15 L17,40 L24,40 L24,31 L36,31 L36,40 L36,40 Z" id="Fill-120" sketch:type="MSShapeGroup"></path>
        </g>
    </g>
</svg>