<?xml version="1.0" encoding="utf-8"?>
<!-- Generator: Adobe Illustrator 16.0.0, SVG Export Plug-In . SVG Version: 6.00 Build 0)  -->
<!DOCTYPE svg PUBLIC "-//W3C//DTD SVG 1.1//EN" "http://www.w3.org/Graphics/SVG/1.1/DTD/svg11.dtd">
<svg version="1.1" id="Layer_1" xmlns="http://www.w3.org/2000/svg" xmlns:xlink="http://www.w3.org/1999/xlink" x="0px" y="0px"
	 width="43px" height="55px" viewBox="0 0 43 55" style="enable-background:new 0 0 43 55;" xml:space="preserve">
<style type="text/css">
<![CDATA[
	.st0{fill-rule:evenodd;clip-rule:evenodd;}
]]>
</style>
<g>
	<g>
		<path d="M38,0H5C2.2,0,0,2.2,0,5v45c0,0.1,0,0.1,0,0.2c0,0.1,0,0.1,0,0.2v0.4C0,53.1,1.9,55,4.3,55h34.4c2.4,0,4.3-1.9,4.3-4.3
			v-0.4c0-0.1,0-0.1,0-0.2c0-0.1,0-0.1,0-0.2V5C43,2.2,40.8,0,38,0z M2,5c0-1.7,1.3-3,3-3h33c1.7,0,3,1.3,3,3v6c0,1.7-1.3,3-3,3
			H23.4l1.1-2.9c0.9-0.7,1.5-1.8,1.5-3V7.9C26,5.8,24.2,4,22.1,4h-0.1C19.8,4,18,5.8,18,7.9v0.1c0,1.4,0.7,2.6,1.8,3.3l1,2.6H5
			c-1.7,0-3-1.3-3-3V5z M38.7,46H23V30.8c1-1.1,1.7-2.5,2-4.1c0.6-0.7,1-1.6,1-2.6v-0.1c0-1.2-0.6-2.3-1.5-3.1L22.6,16l0,0H38
			c1.1,0,2.2-0.4,3-1v31.7C40.3,46.3,39.5,46,38.7,46z M24,8.1c0,1.1-0.9,1.9-1.9,1.9h-0.1C20.9,10,20,9.1,20,8.1V7.9
			C20,6.9,20.9,6,21.9,6h0.1C23.1,6,24,6.9,24,7.9V8.1z M21.9,12h0.1c0.4,0,0.8-0.1,1.1-0.2L22.3,14h-0.5l-0.8-2.1
			C21.3,12,21.6,12,21.9,12z M21.6,16l-1.8,4.6c-1.1,0.7-1.8,1.9-1.8,3.3v0.1c0,1.8,1.3,3.4,3,3.8v3.3c-1.2,0.8-2.6,1.3-4.1,1.3
			c-0.3,0-0.5,0.2-0.5,0.5s0.2,0.5,0.5,0.5c1.5,0,2.9-0.4,4.1-1.1V46H4.3c-0.9,0-1.6,0.3-2.3,0.7V15c0.8,0.6,1.9,1,3,1L21.6,16
			L21.6,16z M20,23.9c0-1.1,0.9-1.9,1.9-1.9h0.1c1.1,0,1.9,0.9,1.9,1.9v0.1c0,1.1-0.9,1.9-1.9,1.9h-0.1c-1.1,0-1.9-0.9-1.9-1.9V23.9
			z M23,27.9c0.2-0.1,0.5-0.1,0.7-0.3c-0.2,0.5-0.4,1-0.7,1.5V27.9z M22.1,20h-0.1c-0.3,0-0.6,0-0.9,0.1l1-2.7l1.1,2.8
			C22.8,20.1,22.5,20,22.1,20z M5,53c-1.6,0-2.9-1.3-3-2.8C2.1,49,3.1,48,4.3,48h34.4c1.2,0,2.2,1,2.3,2.2c-0.1,1.6-1.4,2.8-3,2.8H5
			z"/>
	</g>
</g>
</svg>
