<?xml version="1.0" encoding="utf-8"?>
<!-- Generator: Adobe Illustrator 16.0.0, SVG Export Plug-In . SVG Version: 6.00 Build 0)  -->
<!DOCTYPE svg PUBLIC "-//W3C//DTD SVG 1.1//EN" "http://www.w3.org/Graphics/SVG/1.1/DTD/svg11.dtd">
<svg version="1.1" id="Layer_1" xmlns="http://www.w3.org/2000/svg" xmlns:xlink="http://www.w3.org/1999/xlink" x="0px" y="0px"
	 width="46px" height="57px" viewBox="0 0 46 57" style="enable-background:new 0 0 46 57;" xml:space="preserve">
<g>
	<g>
		<path d="M40.6,13h-1.2c-1.8,0-3.4,0.9-4.4,2.3c-1-1.4-2.6-2.3-4.4-2.3h-1.2c-1.8,0-3.4,0.9-4.4,2.3c-1-1.4-2.6-2.3-4.4-2.3h-1.2
			c-1.3,0-2.5,0.5-3.4,1.2V5.8C16,2.6,13.4,0,10.2,0H9.8C6.6,0,4,2.6,4,5.8v18c-1.9,1.6-4,4.1-4,6.7V42c0,8.4,7.4,15,15.6,15H31
			c8.3,0,15-6.7,15-15V30v-3.4v-8.2C46,15.4,43.6,13,40.6,13z M44,42c0,7.3-5.7,13-13,13H15.6C8.4,55,2,49.4,2,42V30.6
			c0-2.2,2-4.2,3.6-5.4L6,24.8v-19C6,3.7,7.7,2,9.8,2h0.4C12.3,2,14,3.7,14,5.8v12.6V21v8v2c0,0.6,0.4,1,1,1s1-0.4,1-1v-2v-8.7v-1.9
			c0-1.9,1.5-3.4,3.4-3.4h1.2c1.9,0,3.4,1.5,3.4,3.4V29v2c0,0.6,0.4,1,1,1s1-0.4,1-1v-2V18.4c0-1.9,1.5-3.4,3.4-3.4h1.2
			c1.9,0,3.4,1.5,3.4,3.4V29v2c0,0.6,0.4,1,1,1s1-0.4,1-1v-2V18.4c0-1.9,1.5-3.4,3.4-3.4h1.2c1.9,0,3.4,1.5,3.4,3.4v9.5V30V42z"/>
	</g>
</g>
</svg>
