<?xml version="1.0" encoding="utf-8"?>
<!-- Generator: Adobe Illustrator 16.0.0, SVG Export Plug-In . SVG Version: 6.00 Build 0)  -->
<!DOCTYPE svg PUBLIC "-//W3C//DTD SVG 1.1//EN" "http://www.w3.org/Graphics/SVG/1.1/DTD/svg11.dtd">
<svg version="1.1" id="Layer_1" xmlns="http://www.w3.org/2000/svg" xmlns:xlink="http://www.w3.org/1999/xlink" x="0px" y="0px"
	 width="52px" height="48.3px" viewBox="0 0 52 48.3" style="enable-background:new 0 0 52 48.3;" xml:space="preserve">
<g>
	<g>
		<path d="M0,24.3h2v-12H0V24.3z M48,9.3h-2V0L4,10.5v15.6l42,10.5v-9.3h2c2.2,0,4-2.2,4-5v-8C52,11.5,50.2,9.3,48,9.3z M44,34
			L6,24.5V12.1l38-9.5V34z M50,22.3c0,1.6-0.9,3-2,3h-2v-14h2c1.1,0,2,1.4,2,3V22.3z M17,43.3c0,1.7-1.3,3-3,3h-2c-1.7,0-3-1.3-3-3
			v-14H7v14c0,2.8,2.2,5,5,5h2c2.8,0,5-2.2,5-5v-11h-2V43.3z"/>
	</g>
</g>
</svg>
