<?xml version="1.0" encoding="utf-8"?>
<!-- Generator: Adobe Illustrator 16.0.0, SVG Export Plug-In . SVG Version: 6.00 Build 0)  -->
<!DOCTYPE svg PUBLIC "-//W3C//DTD SVG 1.1//EN" "http://www.w3.org/Graphics/SVG/1.1/DTD/svg11.dtd">
<svg version="1.1" id="Layer_1" xmlns="http://www.w3.org/2000/svg" xmlns:xlink="http://www.w3.org/1999/xlink" x="0px" y="0px"
	 width="34px" height="50px" viewBox="0 0 34 50" style="enable-background:new 0 0 34 50;" xml:space="preserve">
<style type="text/css">
<![CDATA[
	.st0{fill:#202020;}
]]>
</style>
<g>
	<g>
		<path class="st0" d="M31,16.2L34,0H0l3,16.2l-0.2,0.3c-1.7,3.3-2.6,7.1-2.6,11C0.2,39.5,8,50,17,50s16.8-10.5,16.8-22.5
			c0-3.9-0.9-7.7-2.6-11L31,16.2z M2.4,2h29.2L29,16H5L2.4,2z M17,48C9.2,48,2.2,38.2,2.2,27.5c0-0.2,0-0.3,0-0.5l0.5,0.8
			c4.8-3.2,11.7-2.3,13.6-1.9c3.6,7.5,11.8,8.1,14.6,8.1C28.8,41.9,23.1,48,17,48z M31.4,32c-1.8,0.1-10.2,0.1-13.5-7.4l-0.2-0.5
			L17.2,24c-0.4-0.1-8.8-1.9-15,1.8c0.2-2.7,0.9-5.4,2-7.8h25.4c1.4,2.9,2.1,6.2,2.1,9.5C31.8,29,31.6,30.6,31.4,32z M16,14h2v-4
			h3.9V8H18V4h-2v4H12v2H16V14z"/>
	</g>
</g>
</svg>
