<?xml version="1.0" encoding="utf-8"?>
<!-- Generator: Adobe Illustrator 16.0.0, SVG Export Plug-In . SVG Version: 6.00 Build 0)  -->
<!DOCTYPE svg PUBLIC "-//W3C//DTD SVG 1.1//EN" "http://www.w3.org/Graphics/SVG/1.1/DTD/svg11.dtd">
<svg version="1.1" id="Layer_1" xmlns="http://www.w3.org/2000/svg" xmlns:xlink="http://www.w3.org/1999/xlink" x="0px" y="0px"
	 width="54px" height="38px" viewBox="0 0 54 38" style="enable-background:new 0 0 54 38;" xml:space="preserve">
<style type="text/css">
<![CDATA[
	.st0{fill-rule:evenodd;clip-rule:evenodd;}
]]>
</style>
<g>
	<g>
		<path d="M51,0H3C1.3,0,0,1.3,0,3v32c0,1.7,1.3,3,3,3h48c1.7,0,3-1.3,3-3V3C54,1.3,52.7,0,51,0z M5,36H3c-0.6,0-1-0.4-1-1v-1h3V36z
			 M5,32H2v-2h3V32z M5,28H2v-2h3V28z M5,24H2v-2h3V24z M5,20H2v-2h3V20z M5,16H2v-2h3V16z M5,12H2v-2h3V12z M5,8H2V6h3V8z M5,4H2V3
			c0-0.6,0.4-1,1-1h2V4z M47,36H7V2h40V36z M52,35c0,0.6-0.4,1-1,1h-2v-2h3V35z M52,32h-3v-2h3V32z M52,28h-3v-2h3V28z M52,24h-3v-2
			h3V24z M52,20h-3v-2h3V20z M52,16h-3v-2h3V16z M52,12h-3v-2h3V12z M52,8h-3V6h3V8z M52,4h-3V2h2c0.6,0,1,0.4,1,1V4z M38,18.5L20,8
			l0,21L38,18.5z M34,18.5l-12,7l0-14L34,18.5z"/>
	</g>
</g>
</svg>
