<svg viewBox="0 0 60 60">
            <path d="M42.252,60 L3.748,60 C1.682,60 0,58.319 0,56.252 L0,3.748 C0,1.681 1.682,0 3.748,0 L42.252,0 C44.318,0 46,1.681 46,3.748 L46,56.252 C46,58.319 44.318,60 42.252,60 L42.252,60 Z M3.748,2 C2.784,2 2,2.784 2,3.748 L2,56.252 C2,57.216 2.784,58 3.748,58 L42.252,58 C43.216,58 44,57.216 44,56.252 L44,3.748 C44,2.784 43.216,2 42.252,2 L3.748,2 L3.748,2 Z"></path>
            <path d="M37,27 L9,27 C8.447,27 8,26.552 8,26 C8,25.448 8.447,25 9,25 L37,25 C37.553,25 38,25.448 38,26 C38,26.552 37.553,27 37,27"></path>
            <path d="M37,21 L9,21 C8.447,21 8,20.552 8,20 C8,19.448 8.447,19 9,19 L37,19 C37.553,19 38,19.448 38,20 C38,20.552 37.553,21 37,21"></path>
            <path d="M37,15 L9,15 C8.447,15 8,14.552 8,14 C8,13.448 8.447,13 9,13 L37,13 C37.553,13 38,13.448 38,14 C38,14.552 37.553,15 37,15"></path>
            <path d="M28,9 L18,9 C17.447,9 17,8.552 17,8 C17,7.448 17.447,7 18,7 L28,7 C28.553,7 29,7.448 29,8 C29,8.552 28.553,9 28,9"></path>
            <path d="M28,55 L18,55 L18,48 L11,48 L11,38 L18,38 L18,31 L28,31 L28,38 L35,38 L35,48 L28,48 L28,55 L28,55 Z M20,53 L26,53 L26,46 L33,46 L33,40 L26,40 L26,33 L20,33 L20,40 L13,40 L13,46 L20,46 L20,53 L20,53 Z"></path>
</svg>