<?xml version="1.0" encoding="utf-8"?>
<!-- Generator: Adobe Illustrator 16.0.0, SVG Export Plug-In . SVG Version: 6.00 Build 0)  -->
<!DOCTYPE svg PUBLIC "-//W3C//DTD SVG 1.1//EN" "http://www.w3.org/Graphics/SVG/1.1/DTD/svg11.dtd">
<svg version="1.1" id="Layer_1" xmlns="http://www.w3.org/2000/svg" xmlns:xlink="http://www.w3.org/1999/xlink" x="0px" y="0px"
	 width="44px" height="44px" viewBox="0 0 44 44" style="enable-background:new 0 0 44 44;" xml:space="preserve">
<style type="text/css">
<![CDATA[
	.st0{fill-rule:evenodd;clip-rule:evenodd;}
]]>
</style>
<g>
	<g>
		<path class="st0" d="M24,0.1L24,0.1L22,0v9h2V2.1c10.1,1,18,9.5,18,19.9c0,11-9,20-20,20S2,33,2,22c0-5.5,2.2-10.5,5.9-14.1
			L6.4,6.4C2.5,10.4,0,15.9,0,22c0,12.2,9.8,22,22,22s22-9.8,22-22C44,10.5,35.2,1.1,24,0.1z M23.7,25.7c1.2-0.7,1.6-2.1,0.9-3.3
			c-0.1-0.2-0.3-0.4-0.5-0.6L15,11l5.1,13.1c0.1,0.2,0.1,0.5,0.3,0.7C21,25.9,22.6,26.3,23.7,25.7z"/>
	</g>
</g>
</svg>
