<?xml version="1.0" encoding="utf-8"?>
<!-- Generator: Adobe Illustrator 16.0.0, SVG Export Plug-In . SVG Version: 6.00 Build 0)  -->
<!DOCTYPE svg PUBLIC "-//W3C//DTD SVG 1.1//EN" "http://www.w3.org/Graphics/SVG/1.1/DTD/svg11.dtd">
<svg version="1.1" id="Layer_1" xmlns="http://www.w3.org/2000/svg" xmlns:xlink="http://www.w3.org/1999/xlink" x="0px" y="0px"
	 width="44.3px" height="44.4px" viewBox="0 0 44.3 44.4" style="enable-background:new 0 0 44.3 44.4;" xml:space="preserve">
<style type="text/css">
<![CDATA[
	.st0{fill:#202020;}
]]>
</style>
<g>
	<g>
		<path class="st0" d="M42.3,9.9l2-0.2l-0.8-9l-9-0.8l-0.2,2l6.3,0.5L30.1,13.1c-3.3-3-7.6-4.7-12.1-4.7c-4.8,0-9.3,1.9-12.7,5.3
			C1.9,17.1,0,21.6,0,26.4c0,4.8,1.9,9.3,5.3,12.7c3.4,3.4,7.9,5.3,12.7,5.3c4.8,0,9.3-1.9,12.7-5.3c3.4-3.4,5.3-7.9,5.3-12.7
			c0-4.4-1.6-8.6-4.5-11.9L41.8,4.2L42.3,9.9z M29.3,37.8c-3,3-7,4.7-11.3,4.7s-8.3-1.7-11.3-4.7c-3-3-4.7-7-4.7-11.3
			c0-4.3,1.7-8.3,4.7-11.3c3-3,7-4.7,11.3-4.7c4.3,0,8.3,1.7,11.3,4.7c3,3,4.7,7,4.7,11.3C34,30.7,32.3,34.7,29.3,37.8z"/>
	</g>
</g>
</svg>
