<?xml version="1.0" encoding="UTF-8" standalone="no"?>
<svg width="49px" height="52px" viewBox="0 0 49 52" version="1.1" xmlns="http://www.w3.org/2000/svg" xmlns:xlink="http://www.w3.org/1999/xlink" xmlns:sketch="http://www.bohemiancoding.com/sketch/ns">
    <!-- Generator: Sketch 3.3.2 (12043) - http://www.bohemiancoding.com/sketch -->
    <title>security-31</title>
    <desc>Created with Sketch.</desc>
    <defs></defs>
    <g id="Page-1" stroke="none" stroke-width="1">
        <g id="security-31" transform="translate(0.000000, -1.000000)">
            <path d="M40,42 C39.735,42 39.481,41.895 39.293,41.707 L35.293,37.707 C34.902,37.317 34.902,36.683 35.293,36.293 C35.684,35.903 36.316,35.903 36.707,36.293 L39.917,39.503 L47.219,30.375 C47.565,29.945 48.193,29.874 48.625,30.219 C49.056,30.564 49.126,31.193 48.781,31.625 L40.781,41.625 C40.604,41.847 40.339,41.983 40.056,41.998 C40.037,42 40.019,42 40,42" id="Fill-20" sketch:type="MSShapeGroup"></path>
            <path d="M24,52.234 L5.065,38.559 L0.894,7.265 L24,0.964 L47.121,7.269 L43.989,28.148 L42.011,27.852 L44.879,8.731 L24,3.036 L3.106,8.735 L6.935,37.441 L24,49.766 L31.722,44.189 L32.894,45.811 L24,52.234" id="Fill-21" sketch:type="MSShapeGroup"></path>
            <path d="M24,46.12 L9.557,35.689 L6.384,11.882 L24,7.077 L41.631,11.886 L39.248,27.774 L37.269,27.477 L39.389,13.347 L24,9.15 L8.597,13.351 L11.426,34.571 L24,43.653 L29.648,39.573 L30.82,41.194 L24,46.12" id="Fill-22" sketch:type="MSShapeGroup"></path>
        </g>
    </g>
</svg>