<?xml version="1.0" encoding="utf-8"?>
<!-- Generator: Adobe Illustrator 16.0.0, SVG Export Plug-In . SVG Version: 6.00 Build 0)  -->
<!DOCTYPE svg PUBLIC "-//W3C//DTD SVG 1.1//EN" "http://www.w3.org/Graphics/SVG/1.1/DTD/svg11.dtd">
<svg version="1.1" id="Layer_1" xmlns="http://www.w3.org/2000/svg" xmlns:xlink="http://www.w3.org/1999/xlink" x="0px" y="0px"
	 width="52px" height="52px" viewBox="0 0 52 52" style="enable-background:new 0 0 52 52;" xml:space="preserve">
<style type="text/css">
<![CDATA[
	.st0{fill-rule:evenodd;clip-rule:evenodd;}
]]>
</style>
<g>
	<g>
		<path d="M26,0C11.7,0,0,11.7,0,26c0,14.3,11.7,26,26,26c14.3,0,26-11.7,26-26C52,11.7,40.3,0,26,0z M2,26C2,12.8,12.8,2,26,2
			c6.3,0,12,2.4,16.2,6.3L8.3,42.2C4.4,38,2,32.3,2,26z M26,50c-6.3,0-12-2.4-16.2-6.3L43.7,9.8C47.6,14,50,19.7,50,26
			C50,39.2,39.2,50,26,50z"/>
	</g>
</g>
</svg>
