<svg fill="#ffffff" id="Layer_1" xmlns="http://www.w3.org/2000/svg" xmlns:xlink="http://www.w3.org/1999/xlink" x="0px" y="0px"
	 width="39px" height="52px" viewBox="0 0 39 52" style="enable-background:new 0 0 39 52;" xml:space="preserve">
<style type="text/css">
<![CDATA[
	.st0{fill-rule:evenodd;clip-rule:evenodd;}
]]>
</style>
<g>
	<g>
		<path d="M39,15c0-0.3-0.1-0.5-0.3-0.7l-14-14C24.5,0.1,24.2,0,24,0H3C1.3,0,0,1.3,0,3v46c0,1.7,1.3,3,3,3h33c1.7,0,3-1.3,3-3
			L39,15L39,15z M25,3.4L35.6,14H25V3.4z M37,49c0,0.6-0.4,1-1,1H3c-0.6,0-1-0.4-1-1V3c0-0.6,0.4-1,1-1h20v13c0,0.6,0.4,1,1,1h13V49
			z M19.2,14.7c-0.4-0.5-0.9-0.7-1.4-0.7c-0.2,0-0.5,0-0.7,0.1c-0.6,0.2-1.1,0.7-1.4,1.3c-0.8,1.9,0.3,5.1,1.4,7.6
			c-1,3.9-2.6,8.5-4.3,12.3c-4.3,2-6.5,3.9-6.7,5.8c-0.1,0.7,0.1,1.7,1.3,2.6C7.6,43.9,8,44,8.4,44c1,0,2-0.8,3.1-2.4
			c0.8-1.2,1.7-2.8,2.7-4.8c3-1.3,6.8-2.5,9.9-3.2c1.8,1.7,3.4,2.6,4.7,2.6c1,0,1.9-0.5,2.5-1.4c0.7-0.9,0.8-1.8,0.4-2.5
			c-0.4-0.9-1.5-1.3-3.3-1.3c-1,0-2.3,0.1-3.8,0.4c-2.1-2.2-4.2-5.4-5.7-8.6C20.5,16.4,19.5,15.1,19.2,14.7z M8.4,42.1
			c-0.5-0.4-0.5-0.7-0.5-0.8c0.1-0.6,1.1-1.8,3.5-3.1C9.5,41.6,8.5,42,8.4,42.1z M28.5,33c1,0,1.4,0.2,1.5,0.2
			c0,0.1-0.1,0.2-0.3,0.5c-0.3,0.5-0.7,0.6-1,0.6c-0.6,0-1.4-0.4-2.3-1.1C27.3,33,28,33,28.5,33z M17.3,16.2
			c0.1-0.2,0.2-0.2,0.3-0.3c0,0,0.1,0,0.1,0c0.2,0.3,0.4,1.3,0,3.7C17.3,18.2,17.1,16.9,17.3,16.2z M22.6,31.9
			c-2.4,0.6-5,1.4-7.3,2.3c1.1-2.8,2.2-5.8,3-8.6C19.6,27.9,21.1,30.1,22.6,31.9z"/>
	</g>
</g>
</svg>
