<?xml version="1.0" encoding="UTF-8" standalone="no"?>
<svg width="60px" height="38px" viewBox="0 0 60 38" version="1.1" xmlns="http://www.w3.org/2000/svg" xmlns:xlink="http://www.w3.org/1999/xlink" xmlns:sketch="http://www.bohemiancoding.com/sketch/ns">
    <!-- Generator: Sketch 3.3.2 (12043) - http://www.bohemiancoding.com/sketch -->
    <title>medical-new-10</title>
    <desc>Created with Sketch.</desc>
    <defs></defs>
    <g id="Page-1" stroke="none" stroke-width="1">
        <g id="medical-new-10">
            <path d="M29.125,37.485 C29.048,37.485 28.969,37.476 28.891,37.457 C28.354,37.328 28.022,36.789 28.151,36.252 L28.555,34.569 C28.03,34.638 27.531,34.273 27.443,33.741 L26.785,29.796 C26.694,29.251 27.063,28.736 27.607,28.645 C28.152,28.554 28.667,28.922 28.758,29.467 L29.195,32.087 C29.411,31.718 29.854,31.517 30.29,31.623 C30.827,31.752 31.158,32.291 31.029,32.828 L30.097,36.718 C29.986,37.177 29.577,37.485 29.125,37.485 L29.125,37.485 Z M30.991,29.706 C30.914,29.706 30.835,29.697 30.757,29.678 C30.22,29.549 29.889,29.009 30.018,28.472 L30.951,24.583 C31.08,24.046 31.62,23.715 32.157,23.844 C32.694,23.973 33.025,24.513 32.896,25.05 L31.963,28.939 C31.853,29.398 31.442,29.706 30.991,29.706 L30.991,29.706 Z M39,29 C38.97,29 38.939,28.999 38.909,28.996 C38.485,28.957 38.133,28.655 38.03,28.242 L37.625,26.62 C37.49,26.084 37.816,25.541 38.353,25.407 C38.593,25.347 38.838,25.38 39.045,25.484 L39.053,25.467 C39.28,24.966 39.87,24.741 40.377,24.971 C40.88,25.199 41.102,25.792 40.873,26.295 L39.91,28.414 C39.747,28.773 39.39,29 39,29 L39,29 Z M27.113,26.686 C26.633,26.686 26.209,26.339 26.128,25.85 L25.471,21.904 C25.38,21.36 25.748,20.845 26.293,20.754 C26.839,20.663 27.353,21.031 27.443,21.576 L28.101,25.521 C28.191,26.066 27.823,26.581 27.278,26.672 C27.223,26.682 27.168,26.686 27.113,26.686 L27.113,26.686 Z M37.623,23.497 C37.175,23.497 36.768,23.194 36.654,22.739 L35.685,18.859 C35.55,18.323 35.876,17.78 36.412,17.646 C36.946,17.512 37.49,17.838 37.624,18.374 L38.594,22.254 C38.729,22.79 38.402,23.333 37.866,23.467 C37.785,23.487 37.703,23.497 37.623,23.497 L37.623,23.497 Z M41.617,23.24 C41.479,23.24 41.339,23.211 41.204,23.15 C40.701,22.921 40.479,22.329 40.708,21.826 L42.363,18.184 C42.591,17.683 43.18,17.458 43.688,17.688 C44.19,17.916 44.412,18.509 44.184,19.012 L42.528,22.654 C42.361,23.022 41.998,23.24 41.617,23.24 L41.617,23.24 Z M32.858,21.927 C32.781,21.927 32.702,21.918 32.624,21.899 C32.087,21.77 31.756,21.23 31.885,20.693 L32.818,16.804 C32.947,16.267 33.489,15.935 34.024,16.065 C34.562,16.194 34.893,16.733 34.764,17.27 L33.83,21.16 C33.72,21.619 33.31,21.927 32.858,21.927 L32.858,21.927 Z M17,20 C16.896,20 16.789,19.984 16.684,19.949 C16.16,19.774 15.877,19.208 16.052,18.684 L17.316,14.889 C17.491,14.365 18.052,14.082 18.581,14.257 C19.104,14.431 19.388,14.997 19.213,15.521 L17.948,19.316 C17.809,19.735 17.419,20 17,20 L17,20 Z M13,20 L9,20 C8.447,20 8,19.552 8,19 C8,18.448 8.447,18 9,18 L13,18 C13.553,18 14,18.448 14,19 C14,19.552 13.553,20 13,20 L13,20 Z M5,20 L1,20 C0.447,20 0,19.552 0,19 C0,18.448 0.447,18 1,18 L5,18 C5.553,18 6,18.448 6,19 C6,19.552 5.553,20 5,20 L5,20 Z M25.798,18.795 C25.317,18.795 24.894,18.448 24.812,17.959 L24.155,14.013 C24.064,13.469 24.433,12.953 24.977,12.863 C25.524,12.772 26.038,13.14 26.128,13.685 L26.785,17.63 C26.876,18.175 26.508,18.69 25.963,18.781 C25.907,18.79 25.853,18.795 25.798,18.795 L25.798,18.795 Z M58.244,18 L54.244,18 C53.691,18 53.244,17.552 53.244,17 C53.244,16.448 53.691,16 54.244,16 L58.244,16 C58.797,16 59.244,16.448 59.244,17 C59.244,17.552 58.797,18 58.244,18 L58.244,18 Z M50.244,18 L46.244,18 C45.691,18 45.244,17.552 45.244,17 C45.244,16.448 45.691,16 46.244,16 L50.244,16 C50.797,16 51.244,16.448 51.244,17 C51.244,17.552 50.797,18 50.244,18 L50.244,18 Z M35.683,15.736 C35.234,15.736 34.827,15.432 34.714,14.978 L34.499,14.122 C34.497,14.121 34.494,14.121 34.491,14.12 C33.954,13.991 33.623,13.451 33.752,12.914 L34.027,11.767 C34.135,11.319 34.535,11.002 34.995,11 C35.438,11.001 35.858,11.31 35.97,11.758 L36.653,14.493 C36.788,15.029 36.462,15.572 35.926,15.706 C35.845,15.726 35.763,15.736 35.683,15.736 L35.683,15.736 Z M19.53,12.411 C19.426,12.411 19.319,12.394 19.214,12.359 C18.69,12.184 18.407,11.618 18.582,11.094 L19.847,7.3 C20.021,6.776 20.583,6.492 21.111,6.667 C21.635,6.842 21.918,7.408 21.743,7.932 L20.479,11.727 C20.339,12.146 19.949,12.411 19.53,12.411 L19.53,12.411 Z M24.483,10.904 C24.003,10.904 23.579,10.557 23.498,10.068 L22.84,6.122 C22.749,5.578 23.117,5.062 23.662,4.972 C24.206,4.88 24.723,5.249 24.812,5.793 L25.471,9.739 C25.562,10.284 25.193,10.799 24.648,10.89 C24.593,10.899 24.538,10.904 24.483,10.904 L24.483,10.904 Z M22.06,4.821 C21.955,4.821 21.849,4.805 21.743,4.77 C21.22,4.595 20.937,4.029 21.111,3.505 L22.052,0.684 C22.197,0.248 22.626,-0.031 23.078,0.003 C23.536,0.039 23.911,0.382 23.986,0.835 L24.155,1.848 C24.243,2.373 23.904,2.871 23.392,2.987 L23.008,4.137 C22.868,4.556 22.478,4.821 22.06,4.821 L22.06,4.821 Z" id="Fill-57" sketch:type="MSShapeGroup"></path>
        </g>
    </g>
</svg>