<svg viewBox="0 0 53 57" xmlns="http://www.w3.org/2000/svg" xmlns:xlink="http://www.w3.org/1999/xlink" xmlns:sketch="http://www.bohemiancoding.com/sketch/ns">
    <g stroke="none" stroke-width="1" fill="none" fill-rule="evenodd" sketch:type="MSPage">
        <g id="medical-new-34" fill="#266294">
            <path d="M25,45 L15,45 L15,38 L8,38 L8,28 L15,28 L15,21 L25,21 L25,28 L32,28 L32,38 L25,38 L25,45 L25,45 Z M17,43 L23,43 L23,36 L30,36 L30,30 L23,30 L23,23 L17,23 L17,30 L10,30 L10,36 L17,36 L17,43 L17,43 Z" id="Fill-193" sketch:type="MSShapeGroup"></path>
            <path d="M15,8 L4,8 C1.794,8 0,6.205 0,4 C0,1.794 1.794,0 4,0 L40,0 L40,2 L4,2 C2.897,2 2,2.897 2,4 C2,5.103 2.897,6 4,6 L15,6 L15,8" id="Fill-194" sketch:type="MSShapeGroup"></path>
            <path d="M37.212,57 L2.788,57 C1.251,57 0,55.749 0,54.212 L0,4 L1.89,4 L2.127,4.663 C2.413,5.463 3.166,6 4,6 L40,6 L40,54.212 C40,55.749 38.749,57 37.212,57 L37.212,57 Z M2,7.455 L2,54.212 C2,54.646 2.354,55 2.788,55 L37.212,55 C37.646,55 38,54.646 38,54.212 L38,8 L4,8 C3.282,8 2.596,7.804 2,7.455 L2,7.455 Z" id="Fill-195" sketch:type="MSShapeGroup"></path>
            <path d="M4,3 L40,3 L40,5 L4,5 L4,3 Z" id="Fill-196" sketch:type="MSShapeGroup"></path>
        </g>
    </g>
</svg>