<?xml version="1.0" encoding="UTF-8" standalone="no"?>
<svg width="50px" height="56px" viewBox="0 0 50 56" version="1.1" xmlns="http://www.w3.org/2000/svg" xmlns:xlink="http://www.w3.org/1999/xlink" xmlns:sketch="http://www.bohemiancoding.com/sketch/ns">
    <!-- Generator: Sketch 3.3.2 (12043) - http://www.bohemiancoding.com/sketch -->
    <title>medical-new-39</title>
    <desc>Created with Sketch.</desc>
    <defs></defs>
    <g id="Page-1" stroke="none" stroke-width="1" fill="none" fill-rule="evenodd" sketch:type="MSPage">
        <g id="medical-new-39" sketch:type="MSLayerGroup" transform="translate(0.000000, -1.000000)" fill="#266294">
            <path d="M27.75,42 L22.25,42 C21.009,42 20,40.991 20,39.75 L20,31.25 C20,31.112 19.888,31 19.75,31 L11.25,31 C10.009,31 9,29.991 9,28.75 L9,23.25 C9,22.009 10.009,21 11.25,21 L19.75,21 C19.888,21 20,20.888 20,20.75 L20,12.25 C20,11.009 21.009,10 22.25,10 L27.75,10 C28.991,10 30,11.009 30,12.25 L30,20.75 C30,20.888 30.112,21 30.25,21 L38.75,21 C39.991,21 41,22.009 41,23.25 L41,28.75 C41,29.991 39.991,31 38.75,31 L30.25,31 C30.112,31 30,31.112 30,31.25 L30,39.75 C30,40.991 28.991,42 27.75,42 L27.75,42 Z M11.25,23 C11.112,23 11,23.112 11,23.25 L11,28.75 C11,28.888 11.112,29 11.25,29 L19.75,29 C20.991,29 22,30.009 22,31.25 L22,39.75 C22,39.888 22.112,40 22.25,40 L27.75,40 C27.888,40 28,39.888 28,39.75 L28,31.25 C28,30.009 29.009,29 30.25,29 L38.75,29 C38.888,29 39,28.888 39,28.75 L39,23.25 C39,23.112 38.888,23 38.75,23 L30.25,23 C29.009,23 28,21.991 28,20.75 L28,12.25 C28,12.112 27.888,12 27.75,12 L22.25,12 C22.112,12 22,12.112 22,12.25 L22,20.75 C22,21.991 20.991,23 19.75,23 L11.25,23 L11.25,23 Z" id="Fill-222" sketch:type="MSShapeGroup"></path>
            <path d="M25,56.242 L18.26,51.276 C9.758,45.011 4.178,35.815 2.547,25.38 L0.456,11.996 C0.125,9.881 1.426,7.834 3.481,7.235 L25,0.958 L46.519,7.235 C48.574,7.834 49.874,9.881 49.544,11.996 L47.453,25.38 C45.822,35.815 40.242,45.011 31.74,51.276 L25,56.242 L25,56.242 Z M25,3.042 L4.041,9.154 C2.948,9.474 2.256,10.562 2.432,11.688 L4.523,25.071 C6.072,34.982 11.372,43.716 19.446,49.665 L25,53.758 L30.554,49.665 C38.628,43.716 43.928,34.982 45.477,25.071 L47.568,11.688 C47.744,10.562 47.052,9.474 45.958,9.154 L25,3.042 L25,3.042 Z" id="Fill-223" sketch:type="MSShapeGroup"></path>
        </g>
    </g>
</svg>