<?xml version="1.0" encoding="utf-8"?>
<!-- Generator: Adobe Illustrator 16.0.0, SVG Export Plug-In . SVG Version: 6.00 Build 0)  -->
<!DOCTYPE svg PUBLIC "-//W3C//DTD SVG 1.1//EN" "http://www.w3.org/Graphics/SVG/1.1/DTD/svg11.dtd">
<svg version="1.1" id="Layer_1" xmlns="http://www.w3.org/2000/svg" xmlns:xlink="http://www.w3.org/1999/xlink" x="0px" y="0px"
	 width="46px" height="47px" viewBox="0 0 46 47" style="enable-background:new 0 0 46 47;" xml:space="preserve">
<style type="text/css">
<![CDATA[
	.st0{fill:#202020;}
]]>
</style>
<g>
	<g>
		<path class="st0" d="M46,7.4c0-2-0.8-3.8-2.2-5.2C42.4,0.8,40.5,0,38.5,0c-1.9,0-3.7,0.7-5,2.1l-5.5,5.5l-3.8-3.9
			c-0.4-0.4-1-0.4-1.4,0c-0.4,0.4-0.4,1,0,1.4L26.5,9L5.3,30.3c-2.2,2.2-2.5,5.6-1,8.6L0,43.3L3.7,47l4.4-4.4
			c0.8,0.3,1.6,0.4,2.5,0.4h0c2,0,3.9-0.8,5.3-2.1L37,19.6l3.8,3.9c0.2,0.2,0.5,0.3,0.7,0.3c0.3,0,0.5-0.1,0.7-0.3
			c0.4-0.4,0.4-1,0-1.4l-3.8-3.9l5.5-5.5C45.3,11.3,46,9.4,46,7.4z M14.4,39.4c-1,1-2.4,1.5-3.9,1.5c0,0,0,0,0,0
			c-0.8,0-1.6-0.2-2.3-0.5l-0.6-0.3l-4,4l-0.9-0.9l4-4.1l-0.4-0.7c-1.5-2.4-1.4-5.1,0.3-6.8l4.5-4.5c0,0,0,0,0,0.1l3,3
			c0.2,0.2,0.5,0.3,0.7,0.3s0.5-0.1,0.7-0.3c0.4-0.4,0.4-1,0-1.4l-3-3c0,0,0,0-0.1,0l2.4-2.4c0,0,0,0,0,0.1l3,3
			c0.2,0.2,0.5,0.3,0.7,0.3c0.3,0,0.5-0.1,0.7-0.3c0.4-0.4,0.4-1,0-1.4l-3-3c0,0,0,0-0.1,0l3.2-3.2c0,0,0,0,0,0.1l3,3
			c0.2,0.2,0.5,0.3,0.7,0.3s0.5-0.1,0.7-0.3c0.4-0.4,0.4-1,0-1.4l-3-3c0,0,0,0-0.1,0l2.4-2.4c0,0,0,0,0,0.1l3,3
			c0.2,0.2,0.5,0.3,0.7,0.3s0.5-0.1,0.7-0.3c0.4-0.4,0.4-1,0-1.4l-3-3c0,0,0,0-0.1,0l3.1-3.2l7.7,7.7L14.4,39.4z M37,16.7L29.3,9
			l5.5-5.5c0.9-1,2.2-1.5,3.6-1.5c1.5,0,2.9,0.6,3.9,1.6c1,1,1.6,2.4,1.6,3.8c0,1.5-0.5,2.8-1.5,3.8L37,16.7z"/>
	</g>
</g>
</svg>
