<?xml version="1.0" encoding="utf-8"?>
<!-- Generator: Adobe Illustrator 16.0.0, SVG Export Plug-In . SVG Version: 6.00 Build 0)  -->
<!DOCTYPE svg PUBLIC "-//W3C//DTD SVG 1.1//EN" "http://www.w3.org/Graphics/SVG/1.1/DTD/svg11.dtd">
<svg version="1.1" id="Layer_1" xmlns="http://www.w3.org/2000/svg" xmlns:xlink="http://www.w3.org/1999/xlink" x="0px" y="0px"
	 width="49px" height="44px" viewBox="0 0 49 44" style="enable-background:new 0 0 49 44;" xml:space="preserve">
<style type="text/css">
<![CDATA[
	.st0{fill-rule:evenodd;clip-rule:evenodd;}
]]>
</style>
<g>
	<g>
		<path d="M46,10V0H29v6H4v4H0v34h49V10H46z M6,8h25V2h13v8H6V8z M47,42H5.9L47,24.5V42z M21,33.4V18h18v7.7L21,33.4z M47,22.3
			l-6,2.6V16H19v18.2L2,41.5V12h45V22.3z M24,22h9v-2h-9V22z M24,26h9v-2h-9V26z"/>
	</g>
</g>
</svg>
