<?xml version="1.0" encoding="utf-8"?>
<!-- Generator: Adobe Illustrator 16.0.0, SVG Export Plug-In . SVG Version: 6.00 Build 0)  -->
<!DOCTYPE svg PUBLIC "-//W3C//DTD SVG 1.1//EN" "http://www.w3.org/Graphics/SVG/1.1/DTD/svg11.dtd">
<svg version="1.1" id="Layer_1" xmlns="http://www.w3.org/2000/svg" xmlns:xlink="http://www.w3.org/1999/xlink" x="0px" y="0px"
	 width="51px" height="50px" viewBox="0 0 51 50" style="enable-background:new 0 0 51 50;" xml:space="preserve">
<style type="text/css">
<![CDATA[
	.st0{fill-rule:evenodd;clip-rule:evenodd;}
]]>
</style>
<g>
	<g>
		<path d="M0,0v50h51V0H0z M49,48H2V2h47V48z M7.7,42l2.6-1.4l2.6,1.4l-0.5-2.9l2.1-2l-2.9-0.4L10.3,34L9,36.6l-2.9,0.4l2.1,2
			L7.7,42z M18,40h25c0.6,0,1-0.4,1-1c0-0.6-0.4-1-1-1H18c-0.6,0-1,0.4-1,1C17,39.6,17.4,40,18,40z M7.7,29l2.6-1.4l2.6,1.4
			l-0.5-2.9l2.1-2l-2.9-0.4L10.3,21L9,23.6l-2.9,0.4l2.1,2L7.7,29z M18,27h25c0.6,0,1-0.4,1-1c0-0.6-0.4-1-1-1H18c-0.6,0-1,0.4-1,1
			C17,26.6,17.4,27,18,27z M7.7,16l2.6-1.4l2.6,1.4l-0.5-2.9l2.1-2l-2.9-0.4L10.3,8L9,10.6l-2.9,0.4l2.1,2L7.7,16z M18,14h25
			c0.6,0,1-0.4,1-1c0-0.6-0.4-1-1-1H18c-0.6,0-1,0.4-1,1C17,13.6,17.4,14,18,14z"/>
	</g>
</g>
</svg>
