<?xml version="1.0" encoding="utf-8"?>
<!-- Generator: Adobe Illustrator 16.0.0, SVG Export Plug-In . SVG Version: 6.00 Build 0)  -->
<!DOCTYPE svg PUBLIC "-//W3C//DTD SVG 1.1//EN" "http://www.w3.org/Graphics/SVG/1.1/DTD/svg11.dtd">
<svg version="1.1" id="Layer_1" xmlns="http://www.w3.org/2000/svg" xmlns:xlink="http://www.w3.org/1999/xlink" x="0px" y="0px"
	 width="58px" height="53px" viewBox="0 0 58 53" style="enable-background:new 0 0 58 53;" xml:space="preserve">
<g>
	<g>
		<path d="M26.9,30.3l2.4-2.4l-4.2-4.2l-2.4,2.4c-1.2-0.7-2.5-1.3-3.8-1.6v-3.3h-6v3.3c-1.4,0.3-2.6,0.8-3.8,1.6l-2.4-2.4l-4.2,4.2
			l2.4,2.4c-0.7,1.2-1.3,2.4-1.6,3.8H0v6h3.3c0.3,1.3,0.8,2.6,1.6,3.8l-2.4,2.4l4.2,4.2l2.4-2.4c1.2,0.7,2.4,1.3,3.8,1.6V53h6v-3.3
			c1.4-0.3,2.6-0.8,3.8-1.6l2.4,2.4l4.2-4.2l-2.4-2.4c0.7-1.2,1.3-2.4,1.6-3.8h3.3v-6h-3.3C28.2,32.8,27.7,31.5,26.9,30.3z
			 M29.9,38.1h-3l-0.1,0.8c-0.3,1.6-0.9,3.2-1.9,4.5l-0.5,0.7l2.1,2.1l-1.4,1.4L23,45.5L22.3,46c-1.4,1-2.9,1.6-4.5,1.9L16.9,48v3
			h-2v-3l-0.8-0.1c-1.6-0.3-3.2-0.9-4.5-1.9l-0.7-0.5l-2.1,2.1l-1.4-1.4l2.1-2.1L7,43.4c-1-1.4-1.6-2.9-1.9-4.5L5,38.1H2v-2h3
			l0.1-0.8C5.4,33.6,6,32.1,7,30.8l0.5-0.7l-2.1-2.1l1.4-1.4l2.1,2.1l0.7-0.5c1.4-1,2.9-1.6,4.5-1.9l0.8-0.1v-3h2v3l0.8,0.1
			c1.6,0.3,3.2,0.9,4.5,1.9l0.7,0.5l2.1-2.1l1.4,1.4l-2.1,2.1l0.5,0.7c1,1.4,1.6,2.9,1.9,4.5l0.1,0.8h3V38.1z M15.9,33.1
			c-2.2,0-4,1.8-4,4s1.8,4,4,4c2.2,0,4-1.8,4-4S18.1,33.1,15.9,33.1z M15.9,39.1c-1.1,0-2-0.9-2-2s0.9-2,2-2c1.1,0,2,0.9,2,2
			S17,39.1,15.9,39.1z M54.8,16.3l3.3-0.8l-1.4-5.8l-3.3,0.8C52.8,9.2,52,8.1,51,7.1l1.8-2.8l-5.1-3.2l-1.8,2.8
			c-1.3-0.4-2.7-0.7-4.1-0.7L41.1,0l-5.8,1.4l0.8,3.3C34.8,5.2,33.7,6,32.7,7l-2.8-1.8l-3.2,5.1l2.8,1.8c-0.4,1.3-0.7,2.7-0.7,4.1
			l-3.3,0.8l1.4,5.8l3.3-0.8c0.6,1.2,1.4,2.4,2.4,3.3l-1.8,2.8l5.1,3.2l1.8-2.8c1.3,0.4,2.7,0.7,4.1,0.7l0.8,3.3l5.8-1.4l-0.8-3.3
			c1.2-0.6,2.4-1.4,3.3-2.4l2.8,1.8l3.2-5.1l-2.8-1.8C54.5,19,54.7,17.6,54.8,16.3z M54.2,22.7l-1.1,1.7l-2.6-1.6L50,23.4
			c-1.1,1.2-2.4,2.2-4,2.8l-0.8,0.3l0.7,2.9L44,30l-0.7-2.9l-0.8,0.1c-1.7,0.1-3.3-0.2-4.8-0.8L36.9,26l-1.6,2.6l-1.7-1.1l1.6-2.6
			l-0.6-0.6c-1.2-1.1-2.2-2.4-2.8-4l-0.3-0.8l-2.9,0.7L28,18.4l2.9-0.7l-0.1-0.8c-0.1-1.7,0.2-3.3,0.8-4.8l0.3-0.8l-2.6-1.6L30.5,8
			l2.6,1.6l0.6-0.6c1.1-1.2,2.4-2.2,4-2.8l0.8-0.3l-0.7-2.9l1.9-0.5l0.7,2.9l0.8-0.1c1.7-0.1,3.3,0.2,4.8,0.8l0.8,0.3l1.6-2.6
			L50,4.9l-1.6,2.6L49.1,8c1.2,1.1,2.2,2.4,2.8,4l0.3,0.8l2.9-0.7l0.5,1.9l-2.9,0.7l0.1,0.8c0.1,1.7-0.2,3.3-0.8,4.8l-0.3,0.8
			L54.2,22.7z M41.8,12.2c-0.3,0-0.6,0-0.9,0.1c-2.1,0.5-3.5,2.6-3,4.8c0.4,1.8,2,3.1,3.9,3.1c0.3,0,0.6,0,0.9-0.1
			c1-0.2,1.9-0.9,2.5-1.8c0.6-0.9,0.7-2,0.5-3C45.3,13.5,43.7,12.2,41.8,12.2z M43.5,17.2c-0.3,0.5-0.7,0.8-1.2,0.9
			c-1.1,0.2-2.1-0.4-2.4-1.5c-0.2-1.1,0.4-2.1,1.5-2.4c0.1,0,0.3-0.1,0.5-0.1c0.9,0,1.7,0.6,1.9,1.5C43.9,16.3,43.8,16.8,43.5,17.2z
			"/>
	</g>
</g>
</svg>
