<?xml version="1.0" encoding="utf-8"?>
<!-- Generator: Adobe Illustrator 16.0.0, SVG Export Plug-In . SVG Version: 6.00 Build 0)  -->
<!DOCTYPE svg PUBLIC "-//W3C//DTD SVG 1.1//EN" "http://www.w3.org/Graphics/SVG/1.1/DTD/svg11.dtd">
<svg version="1.1" id="Layer_1" xmlns="http://www.w3.org/2000/svg" xmlns:xlink="http://www.w3.org/1999/xlink" x="0px" y="0px"
	 width="56px" height="46px" viewBox="0 0 56 46" style="enable-background:new 0 0 56 46;" xml:space="preserve">
<style type="text/css">
<![CDATA[
	.st0{fill-rule:evenodd;clip-rule:evenodd;}
]]>
</style>
<g>
	<g>
		<path d="M56,34.9V5.2L0,0v40.1l28-2.6v5.7L23.8,44c-0.5,0.1-0.9,0.6-0.8,1.2c0.1,0.5,0.5,0.8,1,0.8c0.1,0,0.1,0,0.2,0l11-2
			c0.5-0.1,0.9-0.6,0.8-1.2c-0.1-0.5-0.6-0.9-1.2-0.8L30,42.9v-5.6L56,34.9z M2,37.9V2.2L54,7v26.1L2,37.9z M5,12.1
			c0.2,0,0.3,0,0.5-0.1l7-4c0.5-0.3,0.6-0.9,0.4-1.4c-0.3-0.5-0.9-0.6-1.4-0.4l-7,4c-0.5,0.3-0.6,0.9-0.4,1.4
			C4.3,11.9,4.7,12.1,5,12.1z M20.2,6.7l-15.5,9C4.3,16,4.1,16.6,4.4,17c0.2,0.3,0.5,0.5,0.9,0.5c0.2,0,0.3,0,0.5-0.1l15.5-9
			c0.5-0.3,0.6-0.9,0.4-1.4C21.3,6.6,20.7,6.5,20.2,6.7z"/>
	</g>
</g>
</svg>
