<svg xmlns="http://www.w3.org/2000/svg" xmlns:xlink="http://www.w3.org/1999/xlink" width="60" height="2549" viewBox="0 0 60 2549"><svg width="58" height="57" viewBox="0 0 58 57" id="ic_apology-communication" y="0"><title>communication-2</title><g fill="#231F1F" fill-rule="evenodd"><path d="M1.514 56.647l3.328-12.2C1.672 40.256 0 35.272 0 30 0 16.766 10.767 6 24 6s24 10.766 24 24-10.767 24-24 24a23.78 23.78 0 0 1-10.005-2.179L1.514 56.647zM24 8C11.869 8 2 17.869 2 30c0 4.987 1.633 9.694 4.723 13.61l.312.396-2.549 9.347 9.591-3.708.39.188A21.796 21.796 0 0 0 24 52c12.131 0 22-9.869 22-22S36.131 8 24 8z"></path><path d="M27.566 25.122c-1.484 0-2.939-.379-4.175-1.329-3.007-2.311-7.027-2.344-9.349-.077a1 1 0 0 1-1.398-1.432c3.03-2.957 8.173-2.991 11.965-.077 2.842 2.184 7.871.015 9.662-1.892a1 1 0 1 1 1.458 1.37c-1.516 1.613-4.908 3.437-8.163 3.437M27.566 33.122c-1.484 0-2.939-.379-4.175-1.329-3.007-2.311-7.027-2.344-9.349-.078a1 1 0 1 1-1.398-1.431c3.03-2.957 8.173-2.991 11.965-.077 2.842 2.184 7.871.016 9.662-1.892a1 1 0 1 1 1.458 1.37c-1.516 1.613-4.908 3.437-8.163 3.437M27.566 41.122c-1.484 0-2.939-.379-4.175-1.329-3.007-2.311-7.027-2.344-9.349-.077a1 1 0 0 1-1.398-1.432c3.03-2.957 8.173-2.991 11.965-.077 2.842 2.184 7.871.015 9.662-1.892a1.001 1.001 0 0 1 1.458 1.37c-1.516 1.613-4.908 3.437-8.163 3.437"></path><path d="M56.486 50.647l-12.481-4.826c-1.068.49-2.175.903-3.297 1.228l-3.659 1.062 2.666-2.722A21.872 21.872 0 0 0 46 30c0-12.131-9.869-22-22-22-2.08 0-4.152.296-6.159.88l-3.66 1.065 2.666-2.725C21.402 2.564 27.494 0 34 0c13.233 0 24 10.766 24 24 0 5.272-1.672 10.256-4.842 14.447l3.328 12.2zm-12.563-7.002l9.591 3.708-2.549-9.347.312-.396A21.767 21.767 0 0 0 56 24c0-12.131-9.869-22-22-22-4.705 0-9.173 1.463-12.9 4.176C22.061 6.059 23.03 6 24 6c13.233 0 24 10.766 24 24 0 4.991-1.523 9.764-4.345 13.774l.268-.129z"></path></g></svg><svg fill="#FFF" height="48" viewBox="0 0 24 24" width="48" id="ic_arrow_drop_up_white_48px" y="57"><path d="M7 14l5-5 5 5z"></path><path d="M0 0h24v24H0z" fill="none"></path></svg><svg fill="#FFF" height="48" viewBox="0 0 24 24" width="48" id="ic_arrow_forward_white_48px" y="105"><path d="M0 0h24v24H0z" fill="none"></path><path d="M12 4l-1.41 1.41L16.17 11H4v2h12.17l-5.58 5.59L12 20l8-8z"></path></svg><svg id="ic_audio" width="33" height="57" viewBox="0 0 33 57" y="153"><style>.st0{fill-rule:evenodd;clip-rule:evenodd}</style><path d="M16.5 47C23.4 47 29 41.4 29 34.5v-22C29 5.6 23.4 0 16.5 0S4 5.6 4 12.5v22C4 41.4 9.6 47 16.5 47zM6 12.5C6 6.7 10.7 2 16.5 2S27 6.7 27 12.5v22C27 40.3 22.3 45 16.5 45S6 40.3 6 34.5v-22zM32 24c-.6 0-1 .4-1 1v9.5c0 8-6.5 14.5-14.5 14.5S2 42.5 2 34.5V25c0-.6-.4-1-1-1s-1 .4-1 1v9.5c0 8.6 6.6 15.7 15 16.4V55h-3c-.6 0-1 .4-1 1s.4 1 1 1h8c.6 0 1-.4 1-1s-.4-1-1-1h-3v-4c8.9-.3 16-7.5 16-16.5V25c0-.6-.4-1-1-1zM9 13h15c.6 0 1-.4 1-1s-.4-1-1-1H9c-.6 0-1 .4-1 1s.4 1 1 1zm0 4h15c.6 0 1-.4 1-1s-.4-1-1-1H9c-.6 0-1 .4-1 1s.4 1 1 1zm0 4h15c.6 0 1-.4 1-1s-.4-1-1-1H9c-.6 0-1 .4-1 1s.4 1 1 1zm0 4h15c.6 0 1-.4 1-1s-.4-1-1-1H9c-.6 0-1 .4-1 1s.4 1 1 1zm0 4h15c.6 0 1-.4 1-1s-.4-1-1-1H9c-.6 0-1 .4-1 1s.4 1 1 1zm0 4h15c.6 0 1-.4 1-1s-.4-1-1-1H9c-.6 0-1 .4-1 1s.4 1 1 1zm16 3c0-.6-.4-1-1-1H9c-.6 0-1 .4-1 1s.4 1 1 1h15c.6 0 1-.4 1-1z"></path></svg><svg width="57" height="50" viewBox="0 0 57 50" id="ic_basic-risk-management" y="210"><path d="M48.5 0H9.7L0 10.3V17h3v33h52V17h2v-6.6L48.5 0zM53 48H5V17h48v31zm2-33H2v-3.9L10.6 2h37l7.4 9.1V15zM15 31h28c1.7 0 3-1.3 3-3v-2c0-1.7-1.3-3-3-3H15c-1.7 0-3 1.3-3 3v2c0 1.7 1.3 3 3 3zm-1-5c0-.6.4-1 1-1h28c.6 0 1 .4 1 1v2c0 .6-.4 1-1 1H15c-.6 0-1-.4-1-1v-2z"></path></svg><svg id="ic_books" width="52" height="42.6" viewBox="0 0 52 42.6" y="260"><style>.st0{fill-rule:evenodd;clip-rule:evenodd}</style><path d="M51.6 3.8l-.3-.3-.3-.1c-12.2-7-23.2-1-24.9 0H26C12.7-4.3.9 3.5.8 3.5c-.1 0-.1.1-.1.1-.4.2-.7.6-.7 1v37c0 .6.4 1 1 1h.1c.2.1.5 0 .7-.1.1-.1 11-5.6 23.4-.1l.3.1c.1.1.3.1.4.1h.2c.2.1.5 0 .7-.1.1-.1 11-5.6 23.4-.1l.3.1c.1.1.3.1.4.1h.2c.5-.1.8-.5.8-1v-37c.1-.3-.1-.6-.3-.8zM2 40.2v-35c.9-.6 11.3-6.8 23-.1v35c-10.6-4.3-19.9-1.2-23 .1zm25 0v-35c.9-.6 11.3-6.8 23-.1v35c-10.6-4.3-19.9-1.2-23 .1z"></path></svg><svg id="ic_brink-magazine" width="52" height="46.6" viewBox="0 0 52 46.6" y="303"><style>.st0{fill-rule:evenodd;clip-rule:evenodd}</style><path d="M51.6 3.8l-.3-.3-.3-.1c-12.2-7-23.2-1-24.9 0H26C12.7-4.3.9 3.5.8 3.5c-.1 0-.1.1-.1.1-.4.2-.7.6-.7 1v37c0 .6.4 1 1 1h.1c.2.1.5 0 .7-.1.1-.1 11-5.6 23.4-.1l.3.1c.1.1.3.1.4.1h.2c.2.1.5 0 .7-.1.1-.1 11-5.6 23.4-.1l.3.1c.1.1.3.1.4.1h.2c.5-.1.8-.5.8-1v-37c.1-.3-.1-.6-.3-.8zM25 40.1c-10.6-4.3-19.9-1.2-23 .1v-35c.9-.6 11.3-6.8 23-.1v35zm25 0c-10.6-4.3-19.9-1.2-23 .1v-35c.8-.5 8.5-5.1 18-2.2v6.7c0 .6.4 1 1 1s1-.4 1-1v-6c1 .4 2 .9 3 1.5v34.9zM21.9 29.2l-.2-.1c-8.7-3.9-16.1-.1-16.4.1-.5.3-.7.9-.4 1.3.3.5.9.7 1.3.4.1 0 7-3.5 14.7 0l.1.1c.1.1.3.1.4.1.4 0 .7-.2.9-.6.3-.5.1-1.1-.4-1.3zm0-8l-.2-.1c-8.7-3.9-16.1-.1-16.4.1-.5.3-.7.9-.4 1.3.3.5.9.7 1.3.4.1 0 7-3.5 14.7 0l.1.1c.1.1.3.1.4.1.4 0 .7-.2.9-.6.3-.5.1-1-.4-1.3zm0-8l-.2-.1C13 9.2 5.6 13 5.3 13.2c-.5.3-.7.9-.4 1.3.3.5.9.7 1.3.4.1 0 7-3.5 14.7 0l.1.1c.1.1.3.1.4.1.4 0 .7-.2.9-.6.3-.5.1-1-.4-1.3zm24.9 15.9l-.2-.1c-8.6-3.9-16-.1-16.3.1-.5.3-.7.9-.4 1.3.3.5.9.7 1.3.4.1 0 6.9-3.5 14.6 0h.1c.1.1.3.1.4.1.4 0 .7-.2.9-.6.3-.3.1-.9-.4-1.2zm-16.1-6c.2 0 .3 0 .5-.1.1 0 6.9-3.5 14.6-.1l.2.1c.5.2 1.1 0 1.3-.5.2-.5 0-1.1-.5-1.3l-.1-.1c-8.6-3.9-16-.1-16.3.1-.5.3-.7.9-.4 1.3 0 .4.4.6.7.6zm0-7.9c.2 0 .3 0 .5-.1.1 0 6.9-3.5 14.7 0h.1c.5.2 1 0 1.3-.5.2-.5 0-1.1-.5-1.3h-.1c-8.6-3.9-16-.1-16.3.1-.5.3-.7.9-.4 1.3 0 .3.4.5.7.5zm20.6 29.5l-.3-.1c-12.4-5.6-23.2-.8-24.9 0H26c-13.2-5.9-24.6-.1-25.1.1-.5.3-.7.9-.4 1.3.3.5.9.7 1.3.4.1-.1 11-5.6 23.4-.1l.3.1c.1.1.3.1.4.1h.3c.2.1.5 0 .7-.1.1-.1 11-5.6 23.4-.1l.3.1c.1.1.3.1.4.1.4 0 .7-.2.9-.6.1-.4-.1-1-.6-1.2z"></path></svg><svg width="50" height="48" viewBox="0 0 50 48" id="ic_bundled-solutions" y="350"><path d="M22.9 33.1l-8.4-7.2-1.3 1.5 10.3 8.8 12.6-22.4-1.7-1-11.5 20.3zM48 46h-5v2h7v-7h-2v5zm-29 2h12v-2H19v2zM2 41H0v7h7v-2H2v-5zm0-23H0v12h2V18zM0 7h2V2h5V0H0v7zm31-7H19v2h12V0zm12 0v2h5v5h2V0h-7zm5 30h2V18h-2v12z"></path></svg><svg fill="#FFF" height="48" viewBox="0 0 24 24" width="48" id="ic_check_white_48px" y="398"><path d="M0 0h24v24H0z" fill="none"></path><path d="M9 16.17L4.83 12l-1.42 1.41L9 19 21 7l-1.41-1.41z"></path></svg><svg width="58" height="56" viewBox="0 0 58 56" id="ic_chronic-pain-management" y="446"><title>medical-new-44</title><g fill="#000" fill-rule="evenodd"><path d="M16 49C7.178 49 0 41.822 0 33c0-8.823 7.178-16 16-16s16 7.177 16 16c0 8.822-7.178 16-16 16zm0-30C8.28 19 2 25.28 2 33s6.28 14 14 14 14-6.28 14-14-6.28-14-14-14z"></path><path d="M1 32h30v2H1v-2zM37.075 55.419a5.96 5.96 0 0 1-4.215-1.725 5.959 5.959 0 0 1-1.778-4.232 5.958 5.958 0 0 1 1.725-4.253l14.876-14.876c1.15-1.166 2.669-1.81 4.274-1.81 1.534 0 2.986.6 4.09 1.69 1.121 1.107 1.782 2.665 1.813 4.276.034 1.653-.567 3.189-1.688 4.325L41.341 53.645a5.954 5.954 0 0 1-4.266 1.774zm14.882-24.896c-1.065 0-2.079.433-2.855 1.22L34.226 46.619a3.965 3.965 0 0 0-1.144 2.831 3.975 3.975 0 0 0 3.993 3.969 3.97 3.97 0 0 0 2.847-1.184l14.831-14.831c.734-.744 1.13-1.767 1.108-2.875-.021-1.095-.465-2.149-1.218-2.893a3.807 3.807 0 0 0-2.686-1.113z"></path><path d="M47.683 45.889l-7.072-7.071 1.414-1.414 7.072 7.071-1.414 1.414M42.016 21.169a5.766 5.766 0 0 1-2.287-.468l-19.223-8.39c-3.034-1.301-4.446-4.836-3.143-7.877a6.004 6.004 0 0 1 7.88-3.148l19.28 8.415c3.071 1.317 4.464 4.719 3.167 7.743-.955 2.228-3.235 3.725-5.674 3.725zM22.892 2.802c-1.612 0-3.06.95-3.691 2.421a4.005 4.005 0 0 0 2.1 5.253l19.222 8.39c.466.2.97.303 1.493.303 1.65 0 3.192-1.01 3.836-2.513.855-1.993-.078-4.242-2.124-5.12l-19.28-8.415a3.931 3.931 0 0 0-1.556-.319z"></path><path d="M31.875 16.182l-1.834-.8 4-9.165 1.834.8-4 9.165"></path></g></svg><svg id="ic_claim-reviews" width="52" height="51" viewBox="0 0 52 51" y="502"><style>.st0{fill-rule:evenodd;clip-rule:evenodd}</style><path d="M13.1 9H39c.6 0 1-.4 1-1s-.4-1-1-1H13.1c-.6 0-1 .4-1 1s.4 1 1 1zm-2 7H41c.6 0 1-.4 1-1s-.4-1-1-1H11.1c-.6 0-1 .4-1 1s.4 1 1 1zm-2 7H43c.6 0 1-.4 1-1s-.4-1-1-1H9.1c-.6 0-1 .4-1 1s.4 1 1 1zM45 28H7.1c-.6 0-1 .4-1 1s.4 1 1 1H45c.6 0 1-.4 1-1s-.5-1-1-1zm6.8 9.4L44.3.8c-.1-.5-.5-.8-1-.8H8.6c-.5 0-.9.3-1 .8L0 37.8c0 .2 0 .4.1.6V50c0 .6.4 1 1 1H51c.6 0 1-.4 1-1V38c0-.2-.1-.4-.2-.6zM9.4 2h33.1l7.2 35H2.2L9.4 2zM50 49H2.1v-2H50v2zm0-4H2.1v-2H50v2zm0-4H2.1v-2H50v2z"></path></svg><svg width="52" height="56" viewBox="0 0 52 56" id="ic_clinics" y="553"><title>medical-new-19</title><g fill="#000" fill-rule="evenodd"><path d="M0 0h2v56H0V0zM8 6h44v44H8V6zm2 42h40V8H10v40z"></path><path d="M0 17h10v22H0V17zm2 20h6V19H2v18zM37 43H23v-8h-8V21h8v-8h14v8h8v14h-8v8zm-12-2h10v-8h8V23h-8v-8H25v8h-8v10h8v8z"></path></g></svg><svg width="58" height="51" viewBox="0 0 58 51" id="ic_cme-options" y="609"><path d="M47.6 40.6l10.4.8-11.9-12c1.4-2.8 2.2-5.9 2.2-9.2C48.4 9.1 39.3 0 28.2 0 17.1 0 8.1 9.1 8.1 20.2c0 3.7 1 7.2 2.8 10.2L0 41.4l10.4-.7L9.7 51l11.8-11.8c2.1.8 4.4 1.2 6.8 1.2 2.8 0 5.5-.6 7.9-1.6L48.3 51l-.7-10.4zm-28.1-2.2l-7.4 7.4.5-7.3-7.4.5 6.8-6.8c.2.2.3.4.5.7.1.1.2.2.2.3.4.4.7.8 1.1 1.2l.3.3c.4.4.8.8 1.3 1.2 0 0 .1 0 .1.1.4.3.8.7 1.3 1 .1.1.3.2.4.3.4.3.9.6 1.3.8l.6.3c.1-.2.2-.1.4 0zm2-1.3c-.3-.1-.7-.3-1-.4-.2-.1-.3-.1-.5-.2-.3-.1-.6-.3-.8-.4-.2-.1-.4-.3-.7-.4-.2-.1-.4-.3-.6-.4l-1.2-.9c-.1-.1-.2-.2-.3-.2-.3-.3-.6-.6-.9-.8-.2-.1-.3-.3-.4-.5-.2-.2-.4-.4-.6-.7-.2-.2-.3-.4-.5-.6-.2-.2-.3-.4-.5-.6-.2-.2-.3-.5-.5-.7-1.9-2.9-3-6.3-3-9.9 0-10 8.1-18.2 18.2-18.2 10 0 18.2 8.2 18.2 18.2 0 3.1-.8 6.1-2.2 8.6h-.1c-.2.4-.5.8-.7 1.2-.1.2-.2.4-.4.5-.2.3-.5.6-.7.9-.1.2-.2.3-.4.4-.2.3-.5.5-.7.8l-.4.4c-.2.2-.5.4-.7.7-.2.1-.3.3-.5.4-.2.2-.4.3-.7.5-.5.4-1.1.8-1.7 1.1 0 0-.1 0-.1.1-.4.2-.7.4-1.1.6-.2.1-.4.2-.5.3l-.3.1c-2.2.9-4.5 1.4-7 1.4-2.3 0-4.6-.5-6.7-1.3zm16.5.8c.1-.1.2-.1.3-.2.3-.2.6-.3.8-.5.2-.1.4-.3.6-.4.4-.3.7-.5 1.1-.8.1-.1.2-.1.2-.2.4-.3.8-.7 1.2-1.1l.3-.3c.4-.4.8-.8 1.1-1.3 0-.1.1-.1.1-.2l.9-1.2c.1-.1.2-.2.2-.4l.1-.1 7.8 7.8-7.4-.5.5 7.3-7.8-7.9z"></path></svg><svg width="46" height="50.8" viewBox="0 0 46 50.8" id="ic_consultants-pss-team" y="660"><path d="M39.9 16.2c.5-1.4.8-2.9.8-4.6C40.7 5.2 36.3 0 30.8 0c-4.2 0-7.9 3.1-9.3 7.8-1.1-.4-2.3-.6-3.5-.6-6.4 0-11.7 6.2-11.7 13.8S11.5 34.8 18 34.8c4.1 0 7.7-2.5 9.8-6.3 2.6 2 4.5 4.7 5.5 7.7.5 1.6.8 3.3.8 5 0 2.6-.9 5.4-2.1 7.7H4c-1.2-2.3-2-5.1-2-7.7 0-3.2 1-6.4 2.8-9L3.1 31C1.1 34 0 37.5 0 41.2c0 3.2.8 6.3 2.4 9l.6.6h30l.7-.7c1.6-2.7 2.4-5.9 2.4-9 0-1.5-.2-3-.6-4.5h7.6l.3-.5c1-1.6 2.6-4.7 2.6-7.9 0-4.7-2.3-9.2-6.1-12zM30.8 2c4.3 0 7.8 4.3 7.8 9.6s-3.5 9.6-7.8 9.6c-.4 0-.8 0-1.1-.1v-.2c0-5.3-2.6-10-6.3-12.3 1-3.9 4-6.6 7.4-6.6zM18.1 32.7c-5.3 0-9.7-5.3-9.7-11.8 0-6.5 4.3-11.8 9.7-11.8s9.7 5.3 9.7 11.8c-.1 6.5-4.4 11.8-9.7 11.8zm23.9 2h-7.1c-1.2-3.2-3.4-6.1-6.2-8.1.4-1.1.7-2.2.9-3.5.4.1.9.1 1.3.1 3.4 0 6.4-2.1 8.2-5.2 3.1 2.5 5 6.3 5 10.3-.1 2.4-1.3 4.9-2.1 6.4z"></path></svg><svg width="52" height="51" viewBox="0 0 52 51" id="ic_education" y="711"><path d="M49 43.2V15.1c.2-.3.3-.6.3-1 0-.7-.4-1.4-1.2-1.8L26.9.5c-1.2-.7-3.2-.7-4.4 0L1.2 12.2c-.8.5-1.2 1.1-1.2 1.9s.4 1.4 1.2 1.8l7 3.9V30c0 6.1 4.9 11 10.9 11H31c6 0 10.9-4.9 10.9-11V19.2l5-2.8v26.7c-1.7.4-3 2-3 3.9 0 2.2 1.8 4 4 4s4-1.8 4-4c.1-1.8-1.2-3.4-2.9-3.8zM40.1 30c0 5-4 9-8.9 9h-12c-4.9 0-8.9-4-8.9-9v-9.1l12.2 6.7a5.09 5.09 0 0 0 4.4 0l13.2-7.3V30zm-14.2-4.1c-.6.3-1.9.3-2.5 0L2.2 14.2c-.1 0-.1-.1-.1-.1l.1-.1L23.4 2.3c.6-.3 1.9-.3 2.5 0L47.1 14c.1 0 .1.1.1.1H47v.1L25.9 25.9zM48 49c-1.1 0-2-.9-2-2s.9-2 2-2 2 .9 2 2-.9 2-2 2z"></path></svg><svg id="ic_female" width="43.6" height="43.4" viewBox="0 0 43.6 43.4" y="762"><style>.st0{fill:#202020}</style><path class="st0" d="M38.4 5.3C35 1.9 30.4 0 25.6 0c-4.8 0-9.3 1.9-12.7 5.3C9.5 8.7 7.6 13.2 7.6 18c0 4.4 1.6 8.6 4.5 11.9l-5.8 5.8-5-5L0 32.1l5 5-4.2 4.2 1.4 1.4 4.2-4.2 5 5 1.4-1.4-4.9-5 5.8-5.8c3.3 3 7.6 4.7 12.1 4.7 4.8 0 9.3-1.9 12.7-5.3 3.4-3.4 5.3-7.9 5.3-12.7s-2-9.3-5.4-12.7zm-1.5 24c-3 3-7 4.7-11.3 4.7-4.3 0-8.3-1.7-11.3-4.7s-4.7-7-4.7-11.3 1.7-8.3 4.7-11.3S21.3 2 25.6 2c4.3 0 8.3 1.7 11.3 4.7s4.7 7 4.7 11.3-1.6 8.3-4.7 11.3z"></path></svg><svg id="ic_hipaa" width="43" height="55" viewBox="0 0 43 55" y="806"><style>.st0{fill-rule:evenodd;clip-rule:evenodd}</style><path d="M38 0H5C2.2 0 0 2.2 0 5V50.8C0 53.1 1.9 55 4.3 55h34.4c2.4 0 4.3-1.9 4.3-4.3v-.4-.2V5c0-2.8-2.2-5-5-5zM2 5c0-1.7 1.3-3 3-3h33c1.7 0 3 1.3 3 3v6c0 1.7-1.3 3-3 3H23.4l1.1-2.9c.9-.7 1.5-1.8 1.5-3v-.2C26 5.8 24.2 4 22.1 4H22c-2.2 0-4 1.8-4 3.9V8c0 1.4.7 2.6 1.8 3.3l1 2.6H5c-1.7 0-3-1.3-3-3V5zm36.7 41H23V30.8c1-1.1 1.7-2.5 2-4.1.6-.7 1-1.6 1-2.6V24c0-1.2-.6-2.3-1.5-3.1L22.6 16H38c1.1 0 2.2-.4 3-1v31.7c-.7-.4-1.5-.7-2.3-.7zM24 8.1c0 1.1-.9 1.9-1.9 1.9H22c-1.1 0-2-.9-2-1.9v-.2c0-1 .9-1.9 1.9-1.9h.1c1.1 0 2 .9 2 1.9v.2zM21.9 12h.1c.4 0 .8-.1 1.1-.2l-.8 2.2h-.5l-.8-2.1c.3.1.6.1.9.1zm-.3 4l-1.8 4.6c-1.1.7-1.8 1.9-1.8 3.3v.1c0 1.8 1.3 3.4 3 3.8v3.3c-1.2.8-2.6 1.3-4.1 1.3-.3 0-.5.2-.5.5s.2.5.5.5c1.5 0 2.9-.4 4.1-1.1V46H4.3c-.9 0-1.6.3-2.3.7V15c.8.6 1.9 1 3 1h16.6zM20 23.9c0-1.1.9-1.9 1.9-1.9h.1c1.1 0 1.9.9 1.9 1.9v.1c0 1.1-.9 1.9-1.9 1.9h-.1c-1.1 0-1.9-.9-1.9-1.9v-.1zm3 4c.2-.1.5-.1.7-.3-.2.5-.4 1-.7 1.5v-1.2zm-.9-7.9H22c-.3 0-.6 0-.9.1l1-2.7 1.1 2.8c-.4-.1-.7-.2-1.1-.2zM5 53c-1.6 0-2.9-1.3-3-2.8C2.1 49 3.1 48 4.3 48h34.4c1.2 0 2.2 1 2.3 2.2-.1 1.6-1.4 2.8-3 2.8H5z"></path></svg><svg width="52" height="56" viewBox="0 0 52 56" id="ic_hospitals" y="861"><title>medical-new-20</title><g fill="#000" fill-rule="evenodd"><path d="M0 0h2v56H0V0zM8 6h44v44H8V6zm2 42h40V8H10v40z"></path><path d="M0 17h10v22H0V17zm2 20h6V19H2v18zM45 42H34v-9h-8v9H15V13h11v9h8v-9h11v29zm-9-2h7V15h-7v9H24v-9h-7v25h7v-9h12v9z"></path></g></svg><svg width="52" height="48.3" viewBox="0 0 52 48.3" id="ic_impt-news-updates" y="917"><path d="M0 24.3h2v-12H0v12zm48-15h-2V0L4 10.5v15.6l42 10.5v-9.3h2c2.2 0 4-2.2 4-5v-8c0-2.8-1.8-5-4-5zM44 34L6 24.5V12.1l38-9.5V34zm6-11.7c0 1.6-.9 3-2 3h-2v-14h2c1.1 0 2 1.4 2 3v8zm-33 21c0 1.7-1.3 3-3 3h-2c-1.7 0-3-1.3-3-3v-14H7v14c0 2.8 2.2 5 5 5h2c2.8 0 5-2.2 5-5v-11h-2v11z"></path></svg><svg width="46" height="57" viewBox="0 0 46 57" id="ic_interactive" y="966"><path d="M40.6 13h-1.2c-1.8 0-3.4.9-4.4 2.3-1-1.4-2.6-2.3-4.4-2.3h-1.2c-1.8 0-3.4.9-4.4 2.3-1-1.4-2.6-2.3-4.4-2.3h-1.2c-1.3 0-2.5.5-3.4 1.2V5.8C16 2.6 13.4 0 10.2 0h-.4C6.6 0 4 2.6 4 5.8v18c-1.9 1.6-4 4.1-4 6.7V42c0 8.4 7.4 15 15.6 15H31c8.3 0 15-6.7 15-15V18.4c0-3-2.4-5.4-5.4-5.4zM44 42c0 7.3-5.7 13-13 13H15.6C8.4 55 2 49.4 2 42V30.6c0-2.2 2-4.2 3.6-5.4l.4-.4v-19C6 3.7 7.7 2 9.8 2h.4C12.3 2 14 3.7 14 5.8V31c0 .6.4 1 1 1s1-.4 1-1V18.4c0-1.9 1.5-3.4 3.4-3.4h1.2c1.9 0 3.4 1.5 3.4 3.4V31c0 .6.4 1 1 1s1-.4 1-1V18.4c0-1.9 1.5-3.4 3.4-3.4h1.2c1.9 0 3.4 1.5 3.4 3.4V31c0 .6.4 1 1 1s1-.4 1-1V18.4c0-1.9 1.5-3.4 3.4-3.4h1.2c1.9 0 3.4 1.5 3.4 3.4V42z"></path></svg><svg fill="#FFF" height="48" viewBox="0 0 24 24" width="48" id="ic_keyboard_arrow_down_white_48px" y="1023"><path d="M7.41 7.84L12 12.42l4.59-4.58L18 9.25l-6 6-6-6z"></path><path d="M0-.75h24v24H0z" fill="none"></path></svg><svg fill="#FFF" height="48" viewBox="0 0 24 24" width="48" id="ic_keyboard_arrow_left_white_48px" y="1071"><path d="M15.41 16.09l-4.58-4.59 4.58-4.59L14 5.5l-6 6 6 6z"></path><path d="M0-.5h24v24H0z" fill="none"></path></svg><svg fill="#FFF" height="48" viewBox="0 0 24 24" width="48" id="ic_keyboard_arrow_right_white_48px" y="1119"><path d="M8.59 16.34l4.58-4.59-4.58-4.59L10 5.75l6 6-6 6z"></path><path d="M0-.25h24v24H0z" fill="none"></path></svg><svg fill="#FFF" height="48" viewBox="0 0 24 24" width="48" id="ic_keyboard_arrow_up_white_48px" y="1167"><path d="M7.41 15.41L12 10.83l4.59 4.58L18 14l-6-6-6 6z"></path><path d="M0 0h24v24H0z" fill="none"></path></svg><svg width="51" height="40" viewBox="0 0 51 40" id="ic_live-educational-programs" y="1215"><path d="M0 0v36h51V0H0zm49 34H2V2h47v32zM0 40h51v-2H0v2zm46.4-29.8l-5.7-5.7-17.1 17.2-1.9 7.5 7.5-1.9 17.2-17.1zM24.5 26.5l.9-3.8L40.8 7.4l2.8 2.8-15.4 15.4-3.7.9z"></path></svg><svg id="ic_long-term--care" width="34" height="50" viewBox="0 0 34 50" y="1255"><style>.st0{fill:#202020}</style><path class="st0" d="M31 16.2L34 0H0l3 16.2-.2.3C1.1 19.8.2 23.6.2 27.5.2 39.5 8 50 17 50s16.8-10.5 16.8-22.5c0-3.9-.9-7.7-2.6-11l-.2-.3zM2.4 2h29.2L29 16H5L2.4 2zM17 48C9.2 48 2.2 38.2 2.2 27.5V27l.5.8c4.8-3.2 11.7-2.3 13.6-1.9 3.6 7.5 11.8 8.1 14.6 8.1-2.1 7.9-7.8 14-13.9 14zm14.4-16c-1.8.1-10.2.1-13.5-7.4l-.2-.5-.5-.1c-.4-.1-8.8-1.9-15 1.8.2-2.7.9-5.4 2-7.8h25.4c1.4 2.9 2.1 6.2 2.1 9.5.1 1.5-.1 3.1-.3 4.5zM16 14h2v-4h3.9V8H18V4h-2v4h-4v2h4v4z"></path></svg><svg id="ic_long-term-care" width="34" height="50" viewBox="0 0 34 50" y="1305"><style>.st0{fill:#202020}</style><path class="st0" d="M31 16.2L34 0H0l3 16.2-.2.3C1.1 19.8.2 23.6.2 27.5.2 39.5 8 50 17 50s16.8-10.5 16.8-22.5c0-3.9-.9-7.7-2.6-11l-.2-.3zM2.4 2h29.2L29 16H5L2.4 2zM17 48C9.2 48 2.2 38.2 2.2 27.5V27l.5.8c4.8-3.2 11.7-2.3 13.6-1.9 3.6 7.5 11.8 8.1 14.6 8.1-2.1 7.9-7.8 14-13.9 14zm14.4-16c-1.8.1-10.2.1-13.5-7.4l-.2-.5-.5-.1c-.4-.1-8.8-1.9-15 1.8.2-2.7.9-5.4 2-7.8h25.4c1.4 2.9 2.1 6.2 2.1 9.5.1 1.5-.1 3.1-.3 4.5zM16 14h2v-4h3.9V8H18V4h-2v4h-4v2h4v4z"></path></svg><svg id="ic_male" width="44.3" height="44.4" viewBox="0 0 44.3 44.4" y="1355"><style>.st0{fill:#202020}</style><path class="st0" d="M42.3 9.9l2-.2-.8-9-9-.8-.2 2 6.3.5-10.5 10.7c-3.3-3-7.6-4.7-12.1-4.7-4.8 0-9.3 1.9-12.7 5.3C1.9 17.1 0 21.6 0 26.4c0 4.8 1.9 9.3 5.3 12.7 3.4 3.4 7.9 5.3 12.7 5.3 4.8 0 9.3-1.9 12.7-5.3 3.4-3.4 5.3-7.9 5.3-12.7 0-4.4-1.6-8.6-4.5-11.9L41.8 4.2l.5 5.7zm-13 27.9c-3 3-7 4.7-11.3 4.7s-8.3-1.7-11.3-4.7S2 30.8 2 26.5c0-4.3 1.7-8.3 4.7-11.3s7-4.7 11.3-4.7c4.3 0 8.3 1.7 11.3 4.7s4.7 7 4.7 11.3c0 4.2-1.7 8.2-4.7 11.3z"></path></svg><svg width="49" height="52" viewBox="0 0 49 52" id="ic_managing-electronic-risk" y="1400"><title>security-31</title><g transform="translate(0 -1)" fill="#000" fill-rule="evenodd"><path d="M40 42a1 1 0 0 1-.707-.293l-4-4a.999.999 0 1 1 1.414-1.414l3.21 3.21 7.302-9.128a1 1 0 0 1 1.562 1.25l-8 10a.996.996 0 0 1-.725.373C40.037 42 40.019 42 40 42"></path><path d="M24 52.234L5.065 38.559.894 7.265 24 .964l23.121 6.305-3.132 20.879-1.978-.296 2.868-19.121L24 3.036 3.106 8.735l3.829 28.706L24 49.766l7.722-5.577 1.172 1.622L24 52.234"></path><path d="M24 46.12L9.557 35.689 6.384 11.882 24 7.077l17.631 4.809-2.383 15.888-1.979-.297 2.12-14.13L24 9.15 8.597 13.351l2.829 21.22L24 43.653l5.648-4.08 1.172 1.621L24 46.12"></path></g></svg><svg width="46" height="60" viewBox="0 0 46 60" id="ic_medicare-billing-compliance-manual" y="1452"><title>medical-new-33</title><g fill="#000" fill-rule="evenodd"><path d="M42.252 60H3.748A3.752 3.752 0 0 1 0 56.252V3.748A3.752 3.752 0 0 1 3.748 0h38.504A3.752 3.752 0 0 1 46 3.748v52.504A3.752 3.752 0 0 1 42.252 60zM3.748 2A1.75 1.75 0 0 0 2 3.748v52.504A1.75 1.75 0 0 0 3.748 58h38.504A1.75 1.75 0 0 0 44 56.252V3.748A1.75 1.75 0 0 0 42.252 2H3.748z"></path><path d="M37 27H9a1 1 0 1 1 0-2h28a1 1 0 1 1 0 2M37 21H9a1 1 0 1 1 0-2h28a1 1 0 1 1 0 2M37 15H9a1 1 0 1 1 0-2h28a1 1 0 1 1 0 2M28 9H18a1 1 0 1 1 0-2h10a1 1 0 1 1 0 2M28 55H18v-7h-7V38h7v-7h10v7h7v10h-7v7zm-8-2h6v-7h7v-6h-7v-7h-6v7h-7v6h7v7z"></path></g></svg><svg id="ic_minute-for-medicine" width="44" height="44" viewBox="0 0 44 44" y="1512"><style>.st0{fill-rule:evenodd;clip-rule:evenodd}</style><path class="st0" d="M24 .1L22 0v9h2V2.1c10.1 1 18 9.5 18 19.9 0 11-9 20-20 20S2 33 2 22c0-5.5 2.2-10.5 5.9-14.1L6.4 6.4C2.5 10.4 0 15.9 0 22c0 12.2 9.8 22 22 22s22-9.8 22-22C44 10.5 35.2 1.1 24 .1zm-.3 25.6c1.2-.7 1.6-2.1.9-3.3-.1-.2-.3-.4-.5-.6L15 11l5.1 13.1c.1.2.1.5.3.7.6 1.1 2.2 1.5 3.3.9z"></path></svg><svg id="ic_minute-for-medicine-videos" width="54" height="38" viewBox="0 0 54 38" y="1556"><style>.st0{fill-rule:evenodd;clip-rule:evenodd}</style><path d="M51 0H3C1.3 0 0 1.3 0 3v32c0 1.7 1.3 3 3 3h48c1.7 0 3-1.3 3-3V3c0-1.7-1.3-3-3-3zM5 36H3c-.6 0-1-.4-1-1v-1h3v2zm0-4H2v-2h3v2zm0-4H2v-2h3v2zm0-4H2v-2h3v2zm0-4H2v-2h3v2zm0-4H2v-2h3v2zm0-4H2v-2h3v2zm0-4H2V6h3v2zm0-4H2V3c0-.6.4-1 1-1h2v2zm42 32H7V2h40v34zm5-1c0 .6-.4 1-1 1h-2v-2h3v1zm0-3h-3v-2h3v2zm0-4h-3v-2h3v2zm0-4h-3v-2h3v2zm0-4h-3v-2h3v2zm0-4h-3v-2h3v2zm0-4h-3v-2h3v2zm0-4h-3V6h3v2zm0-4h-3V2h2c.6 0 1 .4 1 1v1zM38 18.5L20 8v21l18-10.5zm-4 0l-12 7v-14l12 7z"></path></svg><svg width="54" height="49.2" viewBox="0 0 54 49.2" id="ic_multilingual-resources" y="1594"><path d="M33 16V0H0v27h13l3.5 6.2L20 27h1v16h13l3.5 6.2L41 43h13V16H33zm-12 9h-2l-2.5 4.2L14 25H2V2h29v14H21v9zm31 16H40l-2.5 4.2L35 41H23V18h29v23z"></path></svg><svg id="ic_ob-risk-solutions" width="43.6" height="43.4" viewBox="0 0 43.6 43.4" y="1644"><style>.st0{fill:#202020}</style><path class="st0" d="M38.4 5.3C35 1.9 30.4 0 25.6 0c-4.8 0-9.3 1.9-12.7 5.3C9.5 8.7 7.6 13.2 7.6 18c0 4.4 1.6 8.6 4.5 11.9l-5.8 5.8-5-5L0 32.1l5 5-4.2 4.2 1.4 1.4 4.2-4.2 5 5 1.4-1.4-4.9-5 5.8-5.8c3.3 3 7.6 4.7 12.1 4.7 4.8 0 9.3-1.9 12.7-5.3 3.4-3.4 5.3-7.9 5.3-12.7s-2-9.3-5.4-12.7zm-1.5 24c-3 3-7 4.7-11.3 4.7-4.3 0-8.3-1.7-11.3-4.7s-4.7-7-4.7-11.3 1.7-8.3 4.7-11.3S21.3 2 25.6 2c4.3 0 8.3 1.7 11.3 4.7s4.7 7 4.7 11.3-1.6 8.3-4.7 11.3z"></path></svg><svg id="ic_on-demand-webinar" width="54" height="38" viewBox="0 0 54 38" y="1688"><style>.st0{fill-rule:evenodd;clip-rule:evenodd}</style><path d="M51 0H3C1.3 0 0 1.3 0 3v32c0 1.7 1.3 3 3 3h48c1.7 0 3-1.3 3-3V3c0-1.7-1.3-3-3-3zM5 36H3c-.6 0-1-.4-1-1v-1h3v2zm0-4H2v-2h3v2zm0-4H2v-2h3v2zm0-4H2v-2h3v2zm0-4H2v-2h3v2zm0-4H2v-2h3v2zm0-4H2v-2h3v2zm0-4H2V6h3v2zm0-4H2V3c0-.6.4-1 1-1h2v2zm42 32H7V2h40v34zm5-1c0 .6-.4 1-1 1h-2v-2h3v1zm0-3h-3v-2h3v2zm0-4h-3v-2h3v2zm0-4h-3v-2h3v2zm0-4h-3v-2h3v2zm0-4h-3v-2h3v2zm0-4h-3v-2h3v2zm0-4h-3V6h3v2zm0-4h-3V2h2c.6 0 1 .4 1 1v1zM38 18.5L20 8v21l18-10.5zm-4 0l-12 7v-14l12 7z"></path></svg><svg id="ic_on-demand-webinars" width="54" height="38" viewBox="0 0 54 38" y="1726"><style>.st0{fill-rule:evenodd;clip-rule:evenodd}</style><path d="M51 0H3C1.3 0 0 1.3 0 3v32c0 1.7 1.3 3 3 3h48c1.7 0 3-1.3 3-3V3c0-1.7-1.3-3-3-3zM5 36H3c-.6 0-1-.4-1-1v-1h3v2zm0-4H2v-2h3v2zm0-4H2v-2h3v2zm0-4H2v-2h3v2zm0-4H2v-2h3v2zm0-4H2v-2h3v2zm0-4H2v-2h3v2zm0-4H2V6h3v2zm0-4H2V3c0-.6.4-1 1-1h2v2zm42 32H7V2h40v34zm5-1c0 .6-.4 1-1 1h-2v-2h3v1zm0-3h-3v-2h3v2zm0-4h-3v-2h3v2zm0-4h-3v-2h3v2zm0-4h-3v-2h3v2zm0-4h-3v-2h3v2zm0-4h-3v-2h3v2zm0-4h-3V6h3v2zm0-4h-3V2h2c.6 0 1 .4 1 1v1zM38 18.5L20 8v21l18-10.5zm-4 0l-12 7v-14l12 7z"></path></svg><svg fill="#FFF" height="48" viewBox="0 0 24 24" width="48" id="ic_open_in_new_white_48px" y="1764"><path d="M0 0h24v24H0z" fill="none"></path><path d="M19 19H5V5h7V3H5a2 2 0 0 0-2 2v14a2 2 0 0 0 2 2h14c1.1 0 2-.9 2-2v-7h-2v7zM14 3v2h3.59l-9.83 9.83 1.41 1.41L19 6.41V10h2V3h-7z"></path></svg><svg width="43" height="53" viewBox="0 0 43 53" id="ic_patient-centered-care" y="1812"><path d="M42.8 47.4v-1.2C42.8 39.9 38 33 31.2 33h-2.4c4.2-2.5 7.1-7.2 7.1-12.5v-6c0-8-6.5-14.4-14.4-14.4C13.6 0 7.1 6.5 7.1 14.5v6c0 5.3 2.9 10 7.1 12.5h-2.4C5 33 .2 39.9.2 46.2v1.2c-.1 2-.2 4-.2 4.7v1h43v-1c0-.8-.1-2.8-.2-4.7zM21.5 2C28 2 33.3 7 33.8 13.4c-6.2-.4-8.7-3.9-8.8-4.1l-.6-.8-.8.6c-6.7 4.9-12.5 5.3-14.5 5.3C9.2 7.6 14.7 2 21.5 2zM9.1 20.5v-4.1h.2c2.4 0 8.1-.6 14.7-5.1 1.2 1.3 4.3 3.9 9.8 4.2v5.1c0 6.9-5.6 12.5-12.4 12.5S9.1 27.4 9.1 20.5zM20 51H2c0-1 .1-2.5.1-3.6 0-.7.1-1.2.1-1.3 0-5.3 4-11.1 9.6-11.1h1.7l.2.2 6.3 3.6V51zm1-14s-.1 0 0 0l-3.6-2h7.4l-3.6 2H21zm1 14V38.9l6.5-3.7c.1-.1.2-.1.2-.2h2.5c5.7 0 9.6 5.9 9.6 11.2 0 .1 0 .6.1 1.3 0 1 .1 2.5.1 3.6H22zm-5.5-32.4c-1 0-1.9.9-1.9 1.9 0 1.1.9 1.9 1.9 1.9s1.9-.9 1.9-1.9c0-1.1-.8-1.9-1.9-1.9zm9.9 3.8c1 0 1.9-.9 1.9-1.9 0-1.1-.9-1.9-1.9-1.9s-1.9.9-1.9 1.9c.1 1.1.9 1.9 1.9 1.9zm-2.5 4.7c-.4-.4-1-.4-1.4 0-.4.4-.8.6-1.2.6-.6 0-1-.5-1-.5-.4-.4-1-.5-1.4-.1-.4.4-.5 1-.1 1.4.1.1 1 1.2 2.4 1.2h.1c.7 0 1.6-.2 2.5-1.2.5-.3.5-1 .1-1.4zM36.8 44h-9.9c-.5 0-1 .4-1 1s.4 1 1 1h9.9c.5 0 1-.4 1-1s-.4-1-1-1z"></path></svg><svg id="ic_pdf-icon" width="39" height="52" viewBox="0 0 39 52" y="1865"><style>.st0{fill-rule:evenodd;clip-rule:evenodd}</style><path d="M39 15c0-.3-.1-.5-.3-.7l-14-14c-.2-.2-.5-.3-.7-.3H3C1.3 0 0 1.3 0 3v46c0 1.7 1.3 3 3 3h33c1.7 0 3-1.3 3-3V15zM25 3.4L35.6 14H25V3.4zM37 49c0 .6-.4 1-1 1H3c-.6 0-1-.4-1-1V3c0-.6.4-1 1-1h20v13c0 .6.4 1 1 1h13v33zM19.2 14.7c-.4-.5-.9-.7-1.4-.7-.2 0-.5 0-.7.1-.6.2-1.1.7-1.4 1.3-.8 1.9.3 5.1 1.4 7.6-1 3.9-2.6 8.5-4.3 12.3-4.3 2-6.5 3.9-6.7 5.8-.1.7.1 1.7 1.3 2.6.2.2.6.3 1 .3 1 0 2-.8 3.1-2.4.8-1.2 1.7-2.8 2.7-4.8 3-1.3 6.8-2.5 9.9-3.2 1.8 1.7 3.4 2.6 4.7 2.6 1 0 1.9-.5 2.5-1.4.7-.9.8-1.8.4-2.5-.4-.9-1.5-1.3-3.3-1.3-1 0-2.3.1-3.8.4-2.1-2.2-4.2-5.4-5.7-8.6 1.6-6.4.6-7.7.3-8.1zM8.4 42.1c-.5-.4-.5-.7-.5-.8.1-.6 1.1-1.8 3.5-3.1-1.9 3.4-2.9 3.8-3 3.9zM28.5 33c1 0 1.4.2 1.5.2 0 .1-.1.2-.3.5-.3.5-.7.6-1 .6-.6 0-1.4-.4-2.3-1.1.9-.2 1.6-.2 2.1-.2zM17.3 16.2c.1-.2.2-.2.3-.3h.1c.2.3.4 1.3 0 3.7-.4-1.4-.6-2.7-.4-3.4zm5.3 15.7c-2.4.6-5 1.4-7.3 2.3 1.1-2.8 2.2-5.8 3-8.6 1.3 2.3 2.8 4.5 4.3 6.3z"></path></svg><svg width="54" height="54" viewBox="0 0 54 54" id="ic_pediatric-solutions" y="1917"><path d="M27 0C12.112 0 0 12.112 0 27s12.112 27 27 27 27-12.112 27-27S41.888 0 27 0zm0 52C13.215 52 2 40.785 2 27S13.215 2 27 2s25 11.215 25 25-11.215 25-25 25zm-5-26h2c0-2.757-2.243-5-5-5s-5 2.243-5 5h2c0-1.654 1.346-3 3-3s3 1.346 3 3zm13-5c-2.757 0-5 2.243-5 5h2c0-1.654 1.346-3 3-3s3 1.346 3 3h2c0-2.757-2.243-5-5-5zm-8 10c-4.963 0-9 4.037-9 9s4.037 9 9 9 9-4.037 9-9-4.037-9-9-9zm0 16c-3.859 0-7-3.141-7-7s3.141-7 7-7 7 3.141 7 7-3.141 7-7 7zm0-11a4 4 0 1 0 0 8 4 4 0 0 0 0-8z"></path></svg><svg width="60" height="38" viewBox="0 0 60 38" id="ic_preventing-diagnostic-error" y="1971"><title>medical-new-10</title><path d="M29.125 37.485a1 1 0 0 1-.974-1.233l.404-1.683a1.002 1.002 0 0 1-1.112-.828l-.658-3.945a1 1 0 0 1 1.973-.329l.437 2.62a1 1 0 0 1 1.834.741l-.932 3.89c-.111.459-.52.767-.972.767zm1.866-7.779a1 1 0 0 1-.973-1.234l.933-3.889a1 1 0 0 1 1.945.467l-.933 3.889c-.11.459-.521.767-.972.767zM39 29a1 1 0 0 1-.97-.758l-.405-1.622a.999.999 0 0 1 1.42-1.136l.008-.017a.999.999 0 1 1 1.82.828l-.963 2.119A.999.999 0 0 1 39 29zm-11.887-2.314a1 1 0 0 1-.985-.836l-.657-3.946a1 1 0 1 1 1.972-.328l.658 3.945a1.001 1.001 0 0 1-.988 1.165zm10.51-3.189a1 1 0 0 1-.969-.758l-.969-3.88a.999.999 0 1 1 1.939-.485l.97 3.88a1 1 0 0 1-.971 1.243zm3.994-.257a1 1 0 0 1-.909-1.414l1.655-3.642a1 1 0 1 1 1.821.828l-1.656 3.642a1 1 0 0 1-.911.586zm-8.759-1.313a1 1 0 0 1-.973-1.234l.933-3.889a1 1 0 0 1 1.946.466l-.934 3.89a1 1 0 0 1-.972.767zM17 20a1 1 0 0 1-.948-1.316l1.264-3.795a.999.999 0 1 1 1.897.632l-1.265 3.795A.999.999 0 0 1 17 20zm-4 0H9a1 1 0 1 1 0-2h4a1 1 0 1 1 0 2zm-8 0H1a1 1 0 1 1 0-2h4a1 1 0 1 1 0 2zm20.798-1.205c-.481 0-.904-.347-.986-.836l-.657-3.946a1 1 0 0 1 1.973-.328l.657 3.945a1 1 0 0 1-.987 1.165zM58.244 18h-4a1 1 0 1 1 0-2h4a1 1 0 1 1 0 2zm-8 0h-4a1 1 0 1 1 0-2h4a1 1 0 1 1 0 2zm-14.561-2.264a1 1 0 0 1-.969-.758l-.215-.856-.008-.002a1 1 0 0 1-.739-1.206l.275-1.147c.108-.448.508-.765.968-.767.443.001.863.31.975.758l.683 2.735a.999.999 0 0 1-.97 1.243zM19.53 12.411a1 1 0 0 1-.948-1.317L19.847 7.3a1 1 0 0 1 1.896.632l-1.264 3.795c-.14.419-.53.684-.949.684zm4.953-1.507a1 1 0 0 1-.985-.836l-.658-3.946a.999.999 0 1 1 1.972-.329l.659 3.946a1 1 0 0 1-.988 1.165zM22.06 4.821a1.001 1.001 0 0 1-.949-1.316l.941-2.821a1 1 0 1 1 1.934.151l.169 1.013a.999.999 0 0 1-.763 1.139l-.384 1.15a1 1 0 0 1-.948.684z" fill="#000" fill-rule="evenodd"></path></svg><svg id="ic_preventing-health-care-workplace-violence" width="52" height="52" viewBox="0 0 52 52" y="2009"><style>.st0{fill-rule:evenodd;clip-rule:evenodd}</style><path d="M26 0C11.7 0 0 11.7 0 26s11.7 26 26 26 26-11.7 26-26S40.3 0 26 0zM2 26C2 12.8 12.8 2 26 2c6.3 0 12 2.4 16.2 6.3L8.3 42.2C4.4 38 2 32.3 2 26zm24 24c-6.3 0-12-2.4-16.2-6.3L43.7 9.8C47.6 14 50 19.7 50 26c0 13.2-10.8 24-24 24z"></path></svg><svg width="40" height="57" viewBox="0 0 40 57" id="ic_risk-management-handbook" y="2061"><title>medical-new-34</title><g fill="#000" fill-rule="evenodd"><path d="M25 45H15v-7H8V28h7v-7h10v7h7v10h-7v7zm-8-2h6v-7h7v-6h-7v-7h-6v7h-7v6h7v7zM15 8H4C1.794 8 0 6.205 0 4c0-2.206 1.794-4 4-4h36v2H4c-1.103 0-2 .897-2 2s.897 2 2 2h11v2"></path><path d="M37.212 57H2.788A2.792 2.792 0 0 1 0 54.212V4h1.89l.237.663A2.002 2.002 0 0 0 4 6h36v48.212A2.792 2.792 0 0 1 37.212 57zM2 7.455v46.757a.79.79 0 0 0 .788.788h34.424a.79.79 0 0 0 .788-.788V8H4a3.953 3.953 0 0 1-2-.545z"></path><path d="M4 3h36v2H4V3z"></path></g></svg><svg width="50" height="56" viewBox="0 0 50 56" id="ic_risklutions" y="2118"><title>medical-new-39</title><g transform="translate(0 -1)" fill="#000" fill-rule="evenodd"><path d="M27.75 42h-5.5A2.252 2.252 0 0 1 20 39.75v-8.5a.25.25 0 0 0-.25-.25h-8.5A2.252 2.252 0 0 1 9 28.75v-5.5A2.252 2.252 0 0 1 11.25 21h8.5a.25.25 0 0 0 .25-.25v-8.5A2.252 2.252 0 0 1 22.25 10h5.5A2.252 2.252 0 0 1 30 12.25v8.5c0 .138.112.25.25.25h8.5A2.252 2.252 0 0 1 41 23.25v5.5A2.252 2.252 0 0 1 38.75 31h-8.5a.25.25 0 0 0-.25.25v8.5A2.252 2.252 0 0 1 27.75 42zm-16.5-19a.25.25 0 0 0-.25.25v5.5c0 .138.112.25.25.25h8.5A2.252 2.252 0 0 1 22 31.25v8.5c0 .138.112.25.25.25h5.5a.25.25 0 0 0 .25-.25v-8.5A2.252 2.252 0 0 1 30.25 29h8.5a.25.25 0 0 0 .25-.25v-5.5a.25.25 0 0 0-.25-.25h-8.5A2.252 2.252 0 0 1 28 20.75v-8.5a.25.25 0 0 0-.25-.25h-5.5a.25.25 0 0 0-.25.25v8.5A2.252 2.252 0 0 1 19.75 23h-8.5z"></path><path d="M25 56.242l-6.74-4.966C9.758 45.011 4.178 35.815 2.547 25.38L.456 11.996a4.282 4.282 0 0 1 3.025-4.761L25 .958l21.519 6.277a4.283 4.283 0 0 1 3.025 4.761L47.453 25.38c-1.631 10.435-7.211 19.631-15.713 25.896L25 56.242zm0-53.2L4.041 9.154a2.28 2.28 0 0 0-1.609 2.534l2.091 13.383c1.549 9.911 6.849 18.645 14.923 24.594L25 53.758l5.554-4.093c8.074-5.949 13.374-14.683 14.923-24.594l2.091-13.383a2.28 2.28 0 0 0-1.61-2.534L25 3.042z"></path></g></svg><svg id="ic_sample-policies" width="49" height="44" viewBox="0 0 49 44" y="2174"><style>.st0{fill-rule:evenodd;clip-rule:evenodd}</style><path d="M46 10V0H29v6H4v4H0v34h49V10h-3zM6 8h25V2h13v8H6V8zm41 34H5.9L47 24.5V42zm-26-8.6V18h18v7.7l-18 7.7zm26-11.1l-6 2.6V16H19v18.2L2 41.5V12h45v10.3zM24 22h9v-2h-9v2zm0 4h9v-2h-9v2z"></path></svg><svg id="ic_search" width="50" height="51" viewBox="0 0 50 51" y="2218"><style>.st0{fill-rule:evenodd;clip-rule:evenodd}</style><path class="st0" d="M35 6C27-2 14-2 6 6s-8 21 0 29 21 8 29 0 8-21 0-29zm-1.4 27.6c-7.2 7.2-18.9 7.2-26.2 0C.2 26.4.2 14.7 7.4 7.4 14.6.2 26.3.2 33.6 7.4c7.2 7.2 7.2 19 0 26.2zM38 37l-2 2 12 12 2-2-12-12z"></path></svg><svg id="ic_self-assessment" width="51" height="50" viewBox="0 0 51 50" y="2269"><style>.st0{fill-rule:evenodd;clip-rule:evenodd}</style><path d="M0 0v50h51V0H0zm49 48H2V2h47v46zM7.7 42l2.6-1.4 2.6 1.4-.5-2.9 2.1-2-2.9-.4-1.3-2.7L9 36.6l-2.9.4 2.1 2-.5 3zM18 40h25c.6 0 1-.4 1-1s-.4-1-1-1H18c-.6 0-1 .4-1 1s.4 1 1 1zM7.7 29l2.6-1.4 2.6 1.4-.5-2.9 2.1-2-2.9-.4-1.3-2.7L9 23.6l-2.9.4 2.1 2-.5 3zM18 27h25c.6 0 1-.4 1-1s-.4-1-1-1H18c-.6 0-1 .4-1 1s.4 1 1 1zM7.7 16l2.6-1.4 2.6 1.4-.5-2.9 2.1-2-2.9-.4L10.3 8 9 10.6l-2.9.4 2.1 2-.5 3zM18 14h25c.6 0 1-.4 1-1s-.4-1-1-1H18c-.6 0-1 .4-1 1s.4 1 1 1z"></path></svg><svg id="ic_surgery-anesthesia" width="46" height="47" viewBox="0 0 46 47" y="2319"><style>.st0{fill:#202020}</style><path class="st0" d="M46 7.4c0-2-.8-3.8-2.2-5.2C42.4.8 40.5 0 38.5 0c-1.9 0-3.7.7-5 2.1L28 7.6l-3.8-3.9c-.4-.4-1-.4-1.4 0-.4.4-.4 1 0 1.4L26.5 9 5.3 30.3c-2.2 2.2-2.5 5.6-1 8.6L0 43.3 3.7 47l4.4-4.4c.8.3 1.6.4 2.5.4 2 0 3.9-.8 5.3-2.1L37 19.6l3.8 3.9c.2.2.5.3.7.3.3 0 .5-.1.7-.3.4-.4.4-1 0-1.4l-3.8-3.9 5.5-5.5c1.4-1.4 2.1-3.3 2.1-5.3zm-31.6 32c-1 1-2.4 1.5-3.9 1.5-.8 0-1.6-.2-2.3-.5l-.6-.3-4 4-.9-.9 4-4.1-.4-.7c-1.5-2.4-1.4-5.1.3-6.8l4.5-4.5v.1l3 3c.2.2.5.3.7.3s.5-.1.7-.3c.4-.4.4-1 0-1.4l-3-3h-.1l2.4-2.4v.1l3 3c.2.2.5.3.7.3.3 0 .5-.1.7-.3.4-.4.4-1 0-1.4l-3-3h-.1l3.2-3.2v.1l3 3c.2.2.5.3.7.3s.5-.1.7-.3c.4-.4.4-1 0-1.4l-3-3h-.1l2.4-2.4v.1l3 3c.2.2.5.3.7.3s.5-.1.7-.3c.4-.4.4-1 0-1.4l-3-3h-.1l3.1-3.2 7.7 7.7-20.7 21zM37 16.7L29.3 9l5.5-5.5c.9-1 2.2-1.5 3.6-1.5 1.5 0 2.9.6 3.9 1.6s1.6 2.4 1.6 3.8c0 1.5-.5 2.8-1.5 3.8L37 16.7z"></path></svg><svg width="58" height="53" viewBox="0 0 58 53" id="ic_tools-resources" y="2366"><path d="M26.9 30.3l2.4-2.4-4.2-4.2-2.4 2.4c-1.2-.7-2.5-1.3-3.8-1.6v-3.3h-6v3.3c-1.4.3-2.6.8-3.8 1.6l-2.4-2.4-4.2 4.2 2.4 2.4c-.7 1.2-1.3 2.4-1.6 3.8H0v6h3.3c.3 1.3.8 2.6 1.6 3.8l-2.4 2.4 4.2 4.2 2.4-2.4c1.2.7 2.4 1.3 3.8 1.6V53h6v-3.3c1.4-.3 2.6-.8 3.8-1.6l2.4 2.4 4.2-4.2-2.4-2.4c.7-1.2 1.3-2.4 1.6-3.8h3.3v-6h-3.3c-.3-1.3-.8-2.6-1.6-3.8zm3 7.8h-3l-.1.8c-.3 1.6-.9 3.2-1.9 4.5l-.5.7 2.1 2.1-1.4 1.4-2.1-2.1-.7.5c-1.4 1-2.9 1.6-4.5 1.9l-.9.1v3h-2v-3l-.8-.1c-1.6-.3-3.2-.9-4.5-1.9l-.7-.5-2.1 2.1-1.4-1.4 2.1-2.1-.5-.7c-1-1.4-1.6-2.9-1.9-4.5l-.1-.8H2v-2h3l.1-.8c.3-1.7.9-3.2 1.9-4.5l.5-.7L5.4 28l1.4-1.4 2.1 2.1.7-.5c1.4-1 2.9-1.6 4.5-1.9l.8-.1v-3h2v3l.8.1c1.6.3 3.2.9 4.5 1.9l.7.5 2.1-2.1 1.4 1.4-2.1 2.1.5.7c1 1.4 1.6 2.9 1.9 4.5l.1.8h3v2zm-14-5c-2.2 0-4 1.8-4 4s1.8 4 4 4 4-1.8 4-4-1.8-4-4-4zm0 6c-1.1 0-2-.9-2-2s.9-2 2-2 2 .9 2 2-.9 2-2 2zm38.9-22.8l3.3-.8-1.4-5.8-3.3.8C52.8 9.2 52 8.1 51 7.1l1.8-2.8-5.1-3.2-1.8 2.8c-1.3-.4-2.7-.7-4.1-.7L41.1 0l-5.8 1.4.8 3.3c-1.3.5-2.4 1.3-3.4 2.3l-2.8-1.8-3.2 5.1 2.8 1.8c-.4 1.3-.7 2.7-.7 4.1l-3.3.8 1.4 5.8 3.3-.8c.6 1.2 1.4 2.4 2.4 3.3l-1.8 2.8 5.1 3.2 1.8-2.8c1.3.4 2.7.7 4.1.7l.8 3.3 5.8-1.4-.8-3.3c1.2-.6 2.4-1.4 3.3-2.4l2.8 1.8 3.2-5.1-2.8-1.8c.4-1.3.6-2.7.7-4zm-.6 6.4l-1.1 1.7-2.6-1.6-.5.6c-1.1 1.2-2.4 2.2-4 2.8l-.8.3.7 2.9-1.9.6-.7-2.9-.8.1c-1.7.1-3.3-.2-4.8-.8l-.8-.4-1.6 2.6-1.7-1.1 1.6-2.6-.6-.6c-1.2-1.1-2.2-2.4-2.8-4l-.3-.8-2.9.7-.6-1.8 2.9-.7-.1-.8c-.1-1.7.2-3.3.8-4.8l.3-.8-2.6-1.6L30.5 8l2.6 1.6.6-.6c1.1-1.2 2.4-2.2 4-2.8l.8-.3-.7-2.9 1.9-.5.7 2.9.8-.1c1.7-.1 3.3.2 4.8.8l.8.3 1.6-2.6L50 4.9l-1.6 2.6.7.5c1.2 1.1 2.2 2.4 2.8 4l.3.8 2.9-.7.5 1.9-2.9.7.1.8c.1 1.7-.2 3.3-.8 4.8l-.3.8 2.5 1.6zM41.8 12.2c-.3 0-.6 0-.9.1-2.1.5-3.5 2.6-3 4.8.4 1.8 2 3.1 3.9 3.1.3 0 .6 0 .9-.1 1-.2 1.9-.9 2.5-1.8.6-.9.7-2 .5-3-.4-1.8-2-3.1-3.9-3.1zm1.7 5c-.3.5-.7.8-1.2.9-1.1.2-2.1-.4-2.4-1.5-.2-1.1.4-2.1 1.5-2.4.1 0 .3-.1.5-.1.9 0 1.7.6 1.9 1.5.1.7 0 1.2-.3 1.6z"></path></svg><svg id="ic_video" width="54" height="38" viewBox="0 0 54 38" y="2419"><style>.st0{fill-rule:evenodd;clip-rule:evenodd}</style><path d="M51 0H3C1.3 0 0 1.3 0 3v32c0 1.7 1.3 3 3 3h48c1.7 0 3-1.3 3-3V3c0-1.7-1.3-3-3-3zM5 36H3c-.6 0-1-.4-1-1v-1h3v2zm0-4H2v-2h3v2zm0-4H2v-2h3v2zm0-4H2v-2h3v2zm0-4H2v-2h3v2zm0-4H2v-2h3v2zm0-4H2v-2h3v2zm0-4H2V6h3v2zm0-4H2V3c0-.6.4-1 1-1h2v2zm42 32H7V2h40v34zm5-1c0 .6-.4 1-1 1h-2v-2h3v1zm0-3h-3v-2h3v2zm0-4h-3v-2h3v2zm0-4h-3v-2h3v2zm0-4h-3v-2h3v2zm0-4h-3v-2h3v2zm0-4h-3v-2h3v2zm0-4h-3V6h3v2zm0-4h-3V2h2c.6 0 1 .4 1 1v1zM26.6 31.3c7 0 12.7-5.7 12.7-12.7 0-7-5.7-12.7-12.7-12.7-7 0-12.7 5.7-12.7 12.7 0 7 5.7 12.7 12.7 12.7zm0-23.4c5.9 0 10.7 4.8 10.7 10.7 0 5.9-4.8 10.7-10.7 10.7-5.9 0-10.7-4.8-10.7-10.7 0-5.9 4.8-10.7 10.7-10.7zM34 19l-12-7v14l12-7zm-4.1 0L24 22.4v-6.9l5.9 3.5z"></path></svg><svg id="ic_webinars" width="56" height="46" viewBox="0 0 56 46" y="2457"><style>.st0{fill-rule:evenodd;clip-rule:evenodd}</style><path d="M56 34.9V5.2L0 0v40.1l28-2.6v5.7l-4.2.8c-.5.1-.9.6-.8 1.2.1.5.5.8 1 .8h.2l11-2c.5-.1.9-.6.8-1.2-.1-.5-.6-.9-1.2-.8l-4.8.9v-5.6l26-2.4zm-54 3V2.2L54 7v26.1L2 37.9zm3-25.8c.2 0 .3 0 .5-.1l7-4c.5-.3.6-.9.4-1.4-.3-.5-.9-.6-1.4-.4l-7 4c-.5.3-.6.9-.4 1.4.2.3.6.5.9.5zm15.2-5.4l-15.5 9c-.4.3-.6.9-.3 1.3.2.3.5.5.9.5.2 0 .3 0 .5-.1l15.5-9c.5-.3.6-.9.4-1.4-.4-.4-1-.5-1.5-.3z"></path></svg><svg id="ic_well-being-center" width="53.5" height="46" viewBox="0 0 53.5 46" y="2503"><style>.st0{fill-rule:evenodd;clip-rule:evenodd}</style><path d="M26.8 46l-1.9-1.5c-11.3-8.7-18.1-13.9-22-20.7C0 18.8-.7 13.8.7 9.5 1.9 5.9 4.5 3 8.2 1.3 10 .4 12.1 0 14.2 0c5.1 0 9.9 2.5 12.5 6.5 2.7-4 7.5-6.5 12.6-6.5 2.1 0 4.2.4 6.1 1.3C49 3 51.7 5.9 52.9 9.5c1.4 4.3.6 9.3-2.2 14.3-3.9 6.8-10.7 12.1-22 20.7L26.8 46zM14.2 2c-1.8 0-3.6.4-5.2 1.1-3.1 1.4-5.4 3.9-6.4 7-1.2 3.8-.5 8.2 2.1 12.7C8.3 29.3 15 34.5 26.1 43l.7.5.6-.5c11.1-8.5 17.8-13.7 21.5-20.2 2.6-4.5 3.3-8.9 2.1-12.7-1-3.1-3.3-5.6-6.4-7-1.7-.7-3.4-1.1-5.3-1.1-5 0-9.7 2.8-11.6 6.9l-.9 2-.9-2C23.9 4.8 19.2 2 14.2 2z"></path></svg></svg>